<svg width="58" height="31" viewBox="0 0 58 31" fill="none" xmlns="http://www.w3.org/2000/svg">
<path d="M9.42466 0H4.75569L0.605469 12.951H3.10676L4.25544 9.39357H9.99909L11.2034 12.951H13.7046L9.42466 0ZM4.92241 7.33703L7.09022 0.648515L9.31348 7.33703H4.92241ZM17.1276 12.9695V0H14.8302V12.9695H17.1276ZM22.1922 3.40912V0H19.8947V3.40912H18.5051V5.20631H18.7275C18.7275 5.20631 19.8947 5.20631 19.8947 6.48479C19.8947 7.04059 19.8947 10.6164 19.8947 10.6164C19.8947 11.9319 20.9509 12.9695 22.2478 12.9695H23.8226V10.9314C23.8226 10.9314 23.2853 10.9314 22.9148 10.9314C22.5257 10.9314 22.1922 10.5979 22.1922 10.2088V6.65151C22.1922 5.28048 19.2833 5.20631 18.8016 5.20631H23.8226V3.40912H22.1922ZM7.90545 23.062C7.90545 23.062 5.42266 22.4876 5.34857 22.4691C4.51479 22.2468 3.81073 21.8392 3.81073 20.9869C3.81073 20.0605 4.94095 19.3009 6.36762 19.3009C8.10918 19.3009 9.09122 20.3754 9.09122 21.4316H11.5183C11.5183 19.1711 9.75819 17.2628 6.36762 17.2628C3.49584 17.2628 1.38363 18.8006 1.38363 21.0054C1.38363 23.2843 2.82878 24.3774 4.94095 24.8591C4.94095 24.8591 7.4422 25.4336 7.49784 25.4521C8.46125 25.6929 9.25794 26.1746 9.25794 27.1196C9.25794 28.2868 7.81273 29.028 6.29353 28.8982C4.2369 28.7315 3.47729 27.3789 3.47729 26.4155H1.06867C1.06867 28.5277 2.82878 30.8621 6.33053 30.9548C8.9615 31.0104 11.6851 29.5652 11.6851 27.1196C11.6851 24.8591 10.1287 23.5993 7.90545 23.062ZM17.5889 28.7871C16.1253 28.7871 15.3471 27.3975 15.3471 25.8041C15.3471 24.1922 16.3105 22.8211 17.5704 22.8211C18.5709 22.8211 19.3676 23.5622 19.6455 24.5813H22.1283C21.7206 22.1912 19.8123 20.7831 17.5518 20.7831C15.0136 20.7831 12.8088 23.0064 12.9385 26.1005C13.0497 28.9909 15.1248 30.8066 17.6075 30.8066C19.9234 30.8066 21.6465 29.2688 22.0912 27.1751H19.5344C19.3306 28.0089 18.5894 28.7871 17.5889 28.7871ZM25.9935 24.9703C25.9935 24.9889 25.9935 25.0074 25.9935 25.026C25.9935 25.0074 25.9935 24.9889 25.9935 24.9703ZM28.6244 20.8201C27.2163 20.9313 26.012 22.395 25.9935 24.9703C26.012 23.6919 26.5863 22.7655 27.9018 22.7655C29.3469 22.7655 29.8102 23.8402 29.8102 25.026V30.6028H32.1261V24.2478C32.1261 22.0245 30.2919 20.6904 28.6244 20.8201ZM23.696 17.6334V30.6028H25.9935V17.6334H23.696ZM38.362 20.7831C35.8978 20.7831 33.6374 22.6173 33.6374 25.8041C33.6374 28.9909 35.8607 30.7881 38.362 30.8066C40.8818 30.7881 43.1051 28.9723 43.1051 25.8041C43.1051 22.6173 40.8262 20.7831 38.362 20.7831ZM38.362 28.7685C37.1392 28.7685 35.9534 27.8051 35.9534 25.8041C35.9534 23.9143 37.1207 22.8397 38.362 22.8211C39.6219 22.8397 40.7891 23.9328 40.7891 25.8041C40.7891 27.8051 39.6034 28.7685 38.362 28.7685ZM49.0372 20.7831C46.573 20.7831 44.3126 22.6173 44.3126 25.8041C44.3126 28.9909 46.536 30.7881 49.0372 30.8066C51.557 30.7881 53.7803 28.9723 53.7803 25.8041C53.7803 22.6173 51.5014 20.7831 49.0372 20.7831ZM49.0372 28.7685C47.8144 28.7685 46.6286 27.8051 46.6286 25.8041C46.6286 23.9143 47.7958 22.8397 49.0372 22.8211C50.2971 22.8397 51.4644 23.9328 51.4644 25.8041C51.4644 27.8051 50.2785 28.7685 49.0372 28.7685ZM57.7114 30.6028V17.6334H55.4139V30.6028H57.7114Z" fill="#12051C"/>
<path d="M57.7381 10.1399H26.3047V12.951H57.7381V10.1399Z" fill="#12051C"/>
</svg>
