<svg width="14" height="14" viewBox="0 0 14 14" fill="none" xmlns="http://www.w3.org/2000/svg">
<path fill-rule="evenodd" clip-rule="evenodd" d="M0.524806 12.2526C0.281296 12.5739 0.309295 13.0372 0.606533 13.3344C0.930793 13.6587 1.45268 13.6625 1.7722 13.343L11.9416 3.17359L11.9812 10.5603L11.9907 10.6822C12.0517 11.0802 12.3959 11.3884 12.8098 11.3923C13.265 11.3966 13.6321 11.0311 13.6297 10.5758L13.5801 1.20892C13.5809 1.15422 13.5762 1.09939 13.5662 1.04531C13.4946 0.6583 13.1543 0.362445 12.7479 0.36033L3.36522 0.311449L3.24351 0.319751C2.84661 0.376553 2.54489 0.717574 2.54883 1.13142C2.55316 1.58664 2.9257 1.9576 3.38091 1.95997L10.7683 1.99842L0.597951 12.1688L0.524806 12.2526Z" fill="#200E32"/>
</svg>
