<svg width="84" height="21" viewBox="0 0 84 21" fill="none" xmlns="http://www.w3.org/2000/svg">
<g clip-path="url(#clip0_250_2153)">
<path d="M23.6981 18.9444V20.7323H20.6602V0.956322H23.6981V8.41409C24.5335 7.24093 26.174 6.43145 27.9828 6.43145C32.2114 6.43145 34.6324 9.44765 34.6324 13.6933C34.6324 17.939 32.2114 20.9563 27.9279 20.9563C26.063 20.9563 24.3664 20.1175 23.6981 18.9444ZM31.5991 13.6933C31.5991 10.9 29.9855 9.08514 27.5376 9.08514C25.0897 9.08514 23.4761 10.9 23.4761 13.6933C23.4761 16.4584 25.0897 18.3027 27.5376 18.3027C29.9855 18.3027 31.5991 16.4584 31.5991 13.6933Z" fill="white"/>
<path d="M43.6203 9.28574C41.5615 9.28574 39.7586 11.1241 39.7586 15.4812V20.7323H36.7207V6.65435H39.7586V9.33619C40.51 7.65975 42.3456 6.43145 44.0433 6.43145C44.5731 6.42387 45.1001 6.50882 45.6008 6.6825L45.4338 9.6154C44.8571 9.38549 44.2406 9.27342 43.6203 9.28574Z" fill="white"/>
<path d="M58.2505 11.9617V20.7323H55.2733V18.5819C54.4671 20.0061 52.7413 20.9563 50.8776 20.9563C48.0955 20.9563 46.1758 19.1966 46.1758 16.794C46.1758 14.0288 48.3187 12.5483 52.6303 12.1013L55.2733 11.8221V11.6321C55.2733 9.90049 54.0768 8.83878 52.2412 8.83878C50.5434 8.83878 49.3481 9.84418 49.153 11.5206L46.427 11.0173C46.8722 8.2522 49.264 6.44202 52.2412 6.44202C55.8014 6.43146 58.2505 8.44225 58.2505 11.9617ZM55.2733 14.6717V14.0851L52.6022 14.3925C50.3214 14.6447 49.153 15.4824 49.153 16.7119C49.153 17.8287 50.0714 18.6112 51.4899 18.6112C53.8548 18.61 55.2452 16.9617 55.2733 14.6717Z" fill="white"/>
<path d="M59.8574 16.8221L62.3614 15.7604C62.8346 17.2691 63.9201 18.5255 65.8667 18.5255C67.3133 18.5255 68.2877 17.6879 68.2877 16.6825C68.2877 13.6323 60.4697 15.6208 60.4697 10.2853C60.4697 8.07856 62.3894 6.43145 65.4215 6.43145C68.0646 6.43145 70.2904 7.82751 70.9027 9.89461L68.3987 10.9505C68.0365 9.55322 66.729 8.7719 65.4496 8.7719C64.1141 8.7719 63.2798 9.30217 63.2798 10.2243C63.2798 12.9331 71.1528 10.866 71.1528 16.6485C71.1528 19.0781 69.039 20.9505 65.8667 20.9505C62.442 20.9563 60.4942 18.8329 59.8574 16.8221Z" fill="white"/>
<path d="M72.1719 16.8221L74.6758 15.7604C75.1432 17.2691 76.2334 18.5255 78.1812 18.5255C79.6277 18.5255 80.601 17.6879 80.601 16.6825C80.601 13.6323 72.7841 15.6208 72.7841 10.2853C72.7841 8.07856 74.7039 6.43145 77.736 6.43145C80.379 6.43145 82.6049 7.82751 83.216 9.89461L80.7132 10.9505C80.351 9.55322 79.0435 8.7719 77.764 8.7719C76.4285 8.7719 75.5942 9.30217 75.5942 10.2243C75.5942 12.9331 83.4672 10.866 83.4672 16.6485C83.4672 19.0781 81.3523 20.9505 78.1812 20.9505C74.7588 20.9563 72.8122 18.8329 72.1719 16.8221Z" fill="white"/>
<path d="M11.0769 6.65435H0.96875V10.5833H10.1912L8.23528 12.5471H6.18584H0.96875V15.4941H5.30016L0.96875 19.843L1.85443 20.7323L6.18584 16.3834V20.7323H9.12096V15.4941V13.4376L11.0769 11.4725V20.7323H14.99V10.5833V6.65435H11.0769Z" fill="#0BCE5A"/>
</g>
<defs>
<clipPath id="clip0_250_2153">
<rect width="82.5001" height="20" fill="white" transform="translate(0.96875 0.956318)"/>
</clipPath>
</defs>
</svg>
