<svg width="67" height="18" viewBox="0 0 67 18" fill="none" xmlns="http://www.w3.org/2000/svg">
<g clip-path="url(#clip0_471_953)">
<path d="M18.6403 15.3896V16.8217H16.207V0.981873H18.6403V6.95527C19.3095 6.01561 20.6234 5.36725 22.0722 5.36725C25.4591 5.36725 27.3982 7.7831 27.3982 11.1837C27.3982 14.5843 25.4591 17.0011 22.0282 17.0011C20.5345 17.0011 19.1756 16.3293 18.6403 15.3896ZM24.9687 11.1837C24.9687 8.9464 23.6763 7.49275 21.7156 7.49275C19.7549 7.49275 18.4625 8.9464 18.4625 11.1837C18.4625 13.3985 19.7549 14.8756 21.7156 14.8756C23.6763 14.8756 24.9687 13.3985 24.9687 11.1837Z" fill="black"/>
<path d="M34.5986 7.65344C32.9496 7.65344 31.5055 9.12588 31.5055 12.6158V16.8217H29.0723V5.54579H31.5055V7.69384C32.1073 6.35108 33.5776 5.36726 34.9374 5.36726C35.3617 5.36119 35.7838 5.42923 36.1849 5.56834L36.0511 7.91748C35.5893 7.73333 35.0954 7.64356 34.5986 7.65344Z" fill="black"/>
<path d="M46.3159 9.79679V16.8217H43.9313V15.0993C43.2855 16.24 41.9032 17.0011 40.4105 17.0011C38.1822 17.0011 36.6445 15.5916 36.6445 13.6672C36.6445 11.4525 38.3609 10.2666 41.8143 9.90861L43.9313 9.68497V9.53274C43.9313 8.14581 42.9729 7.29542 41.5027 7.29542C40.1428 7.29542 39.1854 8.10071 39.0292 9.44348L36.8457 9.04036C37.2023 6.82559 39.1181 5.3757 41.5027 5.3757C44.3543 5.36725 46.3159 6.97782 46.3159 9.79679ZM43.9313 11.9674V11.4976L41.7919 11.7438C39.965 11.9458 39.0292 12.6167 39.0292 13.6015C39.0292 14.496 39.7648 15.1228 40.9009 15.1228C42.7951 15.1218 43.9088 13.8016 43.9313 11.9674Z" fill="black"/>
<path d="M47.6035 13.6898L49.6091 12.8394C49.9881 14.0478 50.8576 15.0542 52.4167 15.0542C53.5754 15.0542 54.3559 14.3832 54.3559 13.578C54.3559 11.1349 48.0939 12.7276 48.0939 8.45402C48.0939 6.68653 49.6316 5.36725 52.0602 5.36725C54.1771 5.36725 55.96 6.48544 56.4504 8.14111L54.4448 8.9868C54.1547 7.86767 53.1074 7.24186 52.0826 7.24186C51.0129 7.24186 50.3447 7.66659 50.3447 8.40516C50.3447 10.5748 56.6506 8.91915 56.6506 13.5507C56.6506 15.4967 54.9576 16.9964 52.4167 16.9964C49.6737 17.0011 48.1136 15.3004 47.6035 13.6898Z" fill="black"/>
<path d="M57.4668 13.6898L59.4724 12.8394C59.8467 14.0478 60.7199 15.0542 62.28 15.0542C63.4386 15.0542 64.2182 14.3832 64.2182 13.578C64.2182 11.1349 57.9572 12.7276 57.9572 8.45402C57.9572 6.68653 59.4948 5.36725 61.9234 5.36725C64.0404 5.36725 65.8232 6.48544 66.3127 8.14111L64.3081 8.9868C64.0179 7.86767 62.9707 7.24186 61.9459 7.24186C60.8762 7.24186 60.208 7.66659 60.208 8.40516C60.208 10.5748 66.5139 8.91915 66.5139 13.5507C66.5139 15.4967 64.82 16.9964 62.28 16.9964C59.5388 17.0011 57.9797 15.3004 57.4668 13.6898Z" fill="black"/>
<path d="M8.53181 5.54578H0.435547V8.69268H7.82242L6.25576 10.2657H4.61423H0.435547V12.6261H3.90484L0.435547 16.1094L1.14494 16.8216L4.61423 13.3383V16.8216H6.96516V12.6261V10.9789L8.53181 9.40494V16.8216H11.6661V8.69268V5.54578H8.53181Z" fill="#0BCE5A"/>
</g>
<defs>
<clipPath id="clip0_471_953">
<rect width="66.0794" height="16.0193" fill="white" transform="translate(0.435547 0.981873)"/>
</clipPath>
</defs>
</svg>
