<svg width="355" height="196" viewBox="0 0 355 196" fill="none" xmlns="http://www.w3.org/2000/svg">
<mask id="mask0_252_1846" style="mask-type:alpha" maskUnits="userSpaceOnUse" x="0" y="0" width="351" height="188">
<path d="M0 10C0 4.47715 4.47715 0 10 0H341C346.523 0 351 4.47715 351 10V188H0V10Z" fill="#011416"/>
</mask>
<g mask="url(#mask0_252_1846)">
<path d="M0 10C0 4.47715 4.47715 0 10 0H341C346.523 0 351 4.47715 351 10V188H0V10Z" fill="#FFF0EA"/>
<g clip-path="url(#clip0_252_1846)">
<path d="M327.141 187.998L387.316 167.919L337.527 48.01L202.718 98.395L246.29 214.974L273.622 205.855" stroke="#FF986B" stroke-width="0.565299"/>
<path d="M210.958 169.784L271.825 146.699L245.374 80.4995L227.627 71.3075L184.64 87.6119L210.958 169.784Z" fill="#FFF0EA"/>
<path d="M221.376 110.668C216.625 103.512 202.853 92.1428 202.02 97.5867C200.978 104.392 208.215 120.053 212.815 119.403C217.415 118.753 202.447 97.5527 197.768 101.189C194.025 104.097 199.069 110.053 202.059 112.668C199.784 108.486 196.67 102.605 186.452 101.707" stroke="#03292D" stroke-width="0.565299" stroke-linecap="round"/>
<path d="M227.556 71.2599L245.332 80.4573L229.503 85.7511L227.556 71.2599Z" fill="#03292D"/>
<path d="M326.878 122.683L387.054 102.603L337.266 -17.3055L202.457 33.0795L246.029 149.659L273.359 140.539" stroke="#03292D" stroke-width="0.565299"/>
<path d="M352.46 78.0287L326.751 58.5273L315.721 85.3028L282.538 59.3555L276.849 90.5917L237.617 55.1611" stroke="#03292D" stroke-width="0.565299" stroke-linecap="round"/>
<path d="M372.946 96.6634L328.961 113.103L372.946 96.6634ZM369.996 88.7715L342.347 99.1054L369.996 88.7715Z" stroke="#03292D" stroke-width="0.565299" stroke-linecap="round"/>
<path d="M202.463 33.0773L337.271 -17.3076L346.292 6.82687L211.483 57.2118L202.463 33.0773Z" fill="#03292D"/>
<path d="M333.477 4.89023C330.309 6.07441 326.709 4.27409 325.436 0.869206C324.164 -2.53567 325.7 -6.25592 328.869 -7.44009C332.037 -8.62427 335.637 -6.82394 336.91 -3.41906C338.182 -0.0141837 336.645 3.70606 333.477 4.89023Z" fill="white"/>
<path d="M318.559 10.4654C315.391 11.6496 311.791 9.84928 310.518 6.4444C309.246 3.03952 310.782 -0.680723 313.951 -1.8649C317.119 -3.04907 320.719 -1.24875 321.992 2.15613C323.264 5.56101 321.728 9.28126 318.559 10.4654Z" fill="white"/>
<path d="M303.645 16.0401C300.477 17.2243 296.877 15.424 295.604 12.0191C294.332 8.61423 295.868 4.89398 299.037 3.70981C302.205 2.52564 305.805 4.32596 307.078 7.73084C308.35 11.1357 306.813 14.856 303.645 16.0401Z" fill="white"/>
<path d="M328.275 24.3255L322.371 20.7098L299.844 61.9097L302.828 63.737L328.275 24.3255Z" fill="#03292D"/>
<path d="M339.681 37.4478L335.252 32.1262L300.678 63.8985L302.916 66.588L339.681 37.4478Z" fill="#03292D"/>
<path d="M335.11 29.7176L329.822 25.2488L301.251 62.6308L303.923 64.8892L335.11 29.7176Z" fill="#03292D"/>
<path d="M317.739 80.8676C316.793 95.4772 305.077 107.214 291.527 106.337C267.219 106.428 267.726 92.3016 268.673 77.6923C269.618 63.083 281.368 51.9508 294.917 52.8276C308.467 53.7045 318.684 66.2585 317.739 80.8676Z" fill="#B8A5A5"/>
<path d="M280.851 99.6846L287.88 98.5669C287.516 99.5431 286.287 101.236 285.025 101.664C282.939 102.372 281.7 100.84 280.851 99.6846Z" stroke="#03292D" stroke-width="0.565299"/>
<path d="M277.273 95.0496L279.192 87.3157L282.901 94.0203L277.273 95.0496Z" fill="#F7E3D4"/>
<path d="M279.117 87.6091L277.119 95.1299L282.687 93.9809" stroke="#03292D" stroke-width="0.565299" stroke-linecap="round"/>
<path d="M273.571 89.3188C274.558 89.3829 275.41 88.6177 275.476 87.6094C275.541 86.6014 274.794 85.7315 273.807 85.668C272.821 85.604 271.968 86.3695 271.902 87.3779C271.838 88.3855 272.584 89.2551 273.571 89.3188Z" fill="#03292D"/>
<path d="M287.651 89.8939C288.638 89.958 289.49 89.1928 289.556 88.1845C289.621 87.1765 288.874 86.307 287.887 86.2433C286.901 86.1792 286.048 86.9444 285.982 87.9527C285.918 88.9606 286.664 89.8302 287.651 89.8939Z" fill="#03292D"/>
<path d="M287.506 80.2901C289.137 80.2207 291.241 80.821 292.341 81.9709" stroke="#03292D" stroke-width="0.565299" stroke-linecap="round"/>
<path d="M274.403 81.086C272.77 81.076 270.684 81.7526 269.619 82.9419" stroke="#03292D" stroke-width="0.565299" stroke-linecap="round"/>
<path d="M308.745 90.5403C311.376 91.9372 315.037 90.0796 316.921 86.3901C318.806 82.7005 318.201 78.5766 315.57 77.1787C312.94 75.7818 309.279 77.6394 307.394 81.3289C305.509 85.0185 306.114 89.1424 308.745 90.5403Z" fill="#B8A5A5"/>
<path d="M308.752 84.1222C309.584 82.629 311.888 80.3385 313.482 79.8324" stroke="#03292D" stroke-width="0.565299" stroke-linecap="round"/>
<path d="M312.185 80.7583C312.806 81.4384 313.587 83.0268 313.583 83.9518" stroke="#03292D" stroke-width="0.565299" stroke-linecap="round"/>
<path d="M289.08 94.9458C290.095 95.0115 290.973 94.2241 291.041 93.1852C291.108 92.1473 290.338 91.2525 289.322 91.1869C288.307 91.1212 287.429 91.9086 287.362 92.9475C287.294 93.9854 288.063 94.8806 289.08 94.9458Z" fill="#F7E3D4"/>
<path d="M273.706 95.355C274.722 95.4207 275.6 94.6333 275.667 93.5944C275.735 92.5565 274.965 91.6617 273.949 91.596C272.934 91.5304 272.056 92.3177 271.988 93.3567C271.921 94.3946 272.69 95.2898 273.706 95.355Z" fill="#F7E3D4"/>
<path d="M297.413 76.2401C283.485 80.9389 272.084 75.9713 270.233 69.6062C269.839 68.2486 274.644 59.2077 279.314 57.0822C291.765 47.6737 308.584 53.1202 315.101 62.4072C325.715 79.057 315.948 93.9336 309.525 99.143C309.525 99.143 307.426 95.9135 308.206 90.5964C308.753 89.812 309.047 91.1414 311.117 90.0507C317.549 86.6617 317.72 79.3922 314.474 78.1888C309.422 76.3147 306.605 82.0586 306.302 86.733C304.925 86.4073 304.464 83.1871 304.992 81.3102C305.936 77.9546 308.447 74.0161 307.813 72.6706C306.631 71.5412 304.158 73.9644 297.413 76.2401Z" fill="#03292D"/>
<path d="M270.306 147.667C271.5 150.861 273.403 153.582 275.769 155.719C281.287 160.702 289.323 162.51 296.766 159.729C307.404 155.753 312.803 143.906 308.828 133.269C306.379 126.719 300.947 122.152 294.646 120.541C290.718 119.536 286.456 119.68 282.368 121.207C280.672 121.842 279.108 122.676 277.696 123.673C270.246 128.931 266.965 138.726 270.306 147.667Z" stroke="#03292D" stroke-width="0.565299"/>
<path d="M328.806 136.07C335.561 133.545 339.04 126.097 336.693 119.321L316.76 112.394C312.119 115.872 309.646 122.673 311.747 128.294C312.517 130.353 313.743 132.106 315.268 133.484C318.826 136.698 324.008 137.863 328.806 136.07Z" stroke="#03292D" stroke-width="0.565299" stroke-linecap="round"/>
<path d="M233.462 215.027C235.394 220.198 238.475 224.603 242.305 228.062C251.237 236.13 264.247 239.058 276.297 234.554C293.518 228.118 302.26 208.94 295.824 191.719C291.86 181.113 283.063 173.722 272.864 171.113C266.506 169.487 259.604 169.719 252.989 172.192C250.241 173.218 247.711 174.569 245.424 176.184C233.365 184.695 228.052 200.553 233.462 215.027Z" stroke="#03292D" stroke-width="0.565299"/>
<path d="M290.254 241.099C292.187 246.27 295.268 250.675 299.098 254.134C308.03 262.202 321.04 265.13 333.09 260.626C350.311 254.19 359.053 235.012 352.617 217.791C348.653 207.185 339.856 199.794 329.657 197.185C323.299 195.559 316.397 195.791 309.782 198.264C307.034 199.29 304.504 200.641 302.217 202.256C290.158 210.767 284.845 226.625 290.254 241.099Z" stroke="#03292D" stroke-width="0.565299"/>
<path d="M276.914 194.31C273.973 191.815 271.639 188.605 270.22 184.808C266.246 174.177 270.709 162.32 280.323 155.785C282.147 154.545 284.157 153.497 286.329 152.685C291.562 150.729 296.979 150.428 301.936 151.516C309.884 153.26 316.646 158.578 319.558 166.368C322.009 172.925 321.251 179.949 318.054 185.903" stroke="#03292D" stroke-width="0.565299"/>
<path d="M308.988 98.8671C306.862 101.256 301.106 105.36 294.982 106.492C290.801 107.265 285.186 106.421 284.101 106.156" stroke="#03292D" stroke-width="0.565299" stroke-linecap="round"/>
<path d="M250.567 116.74C255.423 114.925 273.968 115.626 282.632 116.203C282.362 117.667 281.396 121.647 279.698 125.854C277.575 131.113 275.32 175.229 277.072 187.657C278.824 200.085 283.533 219.081 285.584 228.944C287.225 236.834 286.819 262.761 286.41 274.739C268.617 276.81 245.345 267.8 235.933 263.037L231.645 211.177C227.576 218.128 216.538 232.786 204.939 235.813C190.44 239.597 185.096 233.04 182.197 229.658C179.297 226.276 172.734 218.477 166.192 210.733C159.649 202.988 150.559 179.844 147.217 170.903C143.876 161.963 132.61 129.127 131.923 126.113C131.719 125.216 166.667 117.487 173.006 115.538L180.778 146.095C189.4 169.163 191.34 170.311 200.564 181.533C205.997 175.707 218.253 161.008 223.811 148.817C230.758 133.579 244.496 119.009 250.567 116.74Z" fill="#FF986B"/>
<path d="M131.127 105.554C130.403 113.544 137.686 121.5 142.258 123.319C153.807 121.393 160.056 119.434 171.672 116.003C173.225 113.022 176.045 104.451 174.883 94.0222C173.721 83.594 164.964 88.704 160.731 92.563C159.146 93.5565 154.343 94.2118 147.815 88.8821C141.285 83.5527 143.521 76.458 145.454 73.5768C146.511 71.7199 147.363 68.3481 142.314 69.7155C132.501 72.644 130.638 86.4713 130.933 93.0189C128.663 95.4912 130.668 101.018 131.955 103.472L131.127 105.554Z" fill="#B8A5A5"/>
<path d="M164.233 80.7578C163.868 84.4092 162.28 89.6749 161.531 91.8516L174.083 91.0375C171.087 69.599 164.69 76.1935 164.233 80.7578Z" fill="#B8A5A5"/>
<path fill-rule="evenodd" clip-rule="evenodd" d="M323.709 114.059C332.128 116.615 350.533 122.047 356.798 123.329C364.63 124.93 395.332 147.168 403.799 160.734C412.266 174.3 432.091 199.912 435.81 203.805C439.53 207.698 449.62 224.431 448.124 236.752C447.029 245.771 441.298 247.793 436.94 249.333C435.344 249.897 433.932 250.394 433 251.148C429.521 253.957 425.74 256.125 422.429 257.363C419.401 258.495 402.752 261.613 393.456 263.355C392.588 263.517 391.783 263.668 391.06 263.804C384.29 265.076 377.386 268.39 374.78 269.888C372.75 267.88 367.785 263.659 364.162 262.85C361.904 262.346 354.413 264.47 346.516 266.709C338.566 268.962 330.204 271.333 326.357 271.256C325.242 260.813 322.811 238.78 322.005 234.2C319.087 217.617 316.649 182.803 320.405 152.844C320.475 152.284 320.626 151.22 320.83 149.79C322.081 140.991 325.306 118.332 323.709 114.059ZM357.996 195.15C358.046 202.574 358.266 218.019 358.755 220.402C359.243 222.786 360.391 231.511 360.903 235.575C365.979 232.945 376.805 227.468 379.504 226.611C382.202 225.753 387.795 222.653 390.253 221.209C383.951 214.948 370.434 201.873 366.79 199.662C363.146 197.452 359.409 195.732 357.996 195.15Z" fill="#FF986B"/>
<path d="M152.406 156.006C153.831 159.816 151.896 164.059 148.086 165.483C147.211 165.81 146.312 165.96 145.431 165.951C144.831 164.346 142.164 156.537 140.905 152.832C141.5 152.357 142.178 151.967 142.93 151.686C146.74 150.262 150.982 152.196 152.406 156.006Z" fill="#FFF0EA"/>
<path d="M193.325 200.025C189.514 201.449 185.272 199.515 183.848 195.705C182.424 191.895 184.358 187.652 188.168 186.228C191.978 184.804 196.221 186.738 197.645 190.548C199.069 194.358 197.135 198.601 193.325 200.025Z" fill="#FFF0EA"/>
<path d="M169.645 136.669C165.835 138.093 161.592 136.159 160.168 132.349C158.744 128.539 160.678 124.296 164.488 122.872C168.298 121.448 172.541 123.382 173.965 127.192C175.389 131.002 173.455 135.245 169.645 136.669Z" fill="#FFF0EA"/>
<path d="M243.907 165.396C240.096 166.82 235.854 164.886 234.43 161.076C233.006 157.265 234.94 153.023 238.75 151.599C242.56 150.175 246.803 152.109 248.227 155.919C249.651 159.729 247.717 163.972 243.907 165.396Z" fill="#FFF0EA"/>
<path d="M362.006 189.563C358.196 190.987 353.953 189.053 352.529 185.242C351.105 181.432 353.04 177.19 356.85 175.766C360.66 174.342 364.902 176.276 366.326 180.086C367.75 183.896 365.816 188.139 362.006 189.563Z" fill="#FFF0EA"/>
<path d="M332.231 130.938C333.656 134.748 331.721 138.991 327.911 140.415C326.052 141.11 324.103 141.252 322.415 140.519C322.777 137.616 323.578 130.335 323.95 126.282C327.414 125.615 330.955 127.523 332.231 130.938Z" fill="#FFF0EA"/>
<path d="M233.393 133.034C234.026 136.479 232.121 139.987 228.725 141.257C228.329 141.404 227.931 141.516 227.529 141.593C229.142 139.04 232.11 134.823 233.393 133.034Z" fill="#FFF0EA"/>
<path d="M277.894 137.849C274.083 139.273 269.841 137.339 268.417 133.529C266.993 129.719 268.927 125.476 272.737 124.052C275.279 123.102 278.014 123.648 279.976 125.246C279.07 127.871 278.167 133.533 277.894 137.849Z" fill="#FFF0EA"/>
<path d="M355.988 137.553C358.742 142.449 354.284 155.22 354.783 166.537C355.132 174.453 358.334 179.739 357.377 190.475" stroke="#03292D" stroke-width="0.565299" stroke-linecap="round"/>
<path d="M251.326 124.319C244.198 129.461 242.239 153.828 241.896 165.393C241.553 176.959 226.682 196.615 232.367 205.562" stroke="#03292D" stroke-width="0.565299" stroke-linecap="round"/>
<path d="M199.104 184.113C197.153 185.124 192.47 188.268 189.341 192.758C185.432 198.372 185.046 201.925 184.04 202.514" stroke="#03292D" stroke-width="0.376866" stroke-linecap="round"/>
<path d="M284.444 108.418C284.715 110.037 284.979 113.955 283.884 116.679L284.444 108.418ZM311.332 100.759C312.341 103.569 314.726 109.705 316.203 111.77L311.332 100.759ZM306.86 103.94C307.808 107.149 309.936 113.785 310.862 114.646L306.86 103.94ZM301.672 106.886C302.698 110.191 304.736 117.238 304.679 118.97L301.672 106.886ZM296.373 108.866C296.988 111.068 298.159 115.797 297.937 117.087L296.373 108.866ZM290.525 110.045C290.936 112.659 291.613 118.243 291.038 119.666L290.525 110.045Z" stroke="#03292D" stroke-width="0.565299" stroke-linecap="round"/>
<path fill-rule="evenodd" clip-rule="evenodd" d="M174.098 70.9445C183.918 66.3566 188.716 54.9121 184.855 44.5838C180.796 33.7235 168.702 28.2098 157.842 32.2687C147.201 36.2459 141.692 47.9381 145.293 58.6247C145.927 62.4173 146.88 69.4682 146.096 73.84C145.037 79.7401 142.415 87.0078 140.055 92.805L151.431 97.9954C154.266 92.4148 158.065 85.6632 161.989 80.8237C165.155 76.919 172.182 72.1967 174.098 70.9445Z" fill="#FF986B"/>
<path d="M105.576 40.4819L108.257 43.4611L112.194 39.3465L110.777 44.977L115.547 45.6125L111.171 47.8946L112.844 51.5386L109.14 50.0176L106.646 54.9258L106.216 49.7465L102.302 50.5629L104.599 47.2863L102.198 44.774L105.508 44.4888L105.576 40.4819Z" fill="#03292D"/>
<path d="M145.2 92.4685C151.52 80.8814 163.274 56.617 159.732 52.255C155.304 46.8026 148.302 55.8351 148.689 60.9108C149.077 65.9864 166.769 74.2806 170.586 71.03C174.403 67.7795 176.009 55.4173 169.94 56.176C165.085 56.7831 155.85 81.3595 149.391 93.9212" stroke="#03292D" stroke-width="0.565299" stroke-linecap="round"/>
<path d="M189.097 66.3768L199.952 71.6914L189.097 66.3768ZM189.452 7.24672L181.471 22.243L189.452 7.24672ZM151.959 14.4668L155.733 24.5662L151.959 14.4668ZM195.015 45.8617L209.292 43.6707L195.015 45.8617ZM135.923 42.9146L127.128 38.9055L135.923 42.9146Z" stroke="#03292D" stroke-width="0.565299" stroke-linecap="round"/>
<path d="M138.824 92.0849L152.906 98.4404L148.215 108.834L134.133 102.478L138.824 92.0849Z" fill="#03292D"/>
<path d="M140.684 106.799C123.109 118.002 94.2861 146.872 119.601 172.733C151.244 205.061 177.591 187.54 176.731 172.955C175.871 158.369 121.556 150.366 124.646 206.762C127.735 263.158 202.793 277.184 215.215 262.289C227.636 247.394 206.333 240.039 190.332 252.09C174.332 264.142 171.364 319.813 211.633 327.594C256.187 336.203 261.73 315.223 258.607 308.213C255.484 301.204 239.224 296.4 231.716 306.439C224.209 316.478 258.12 337.202 306.14 300.763" stroke="#03292D" stroke-width="0.565299" stroke-linecap="round"/>
</g>
</g>
<defs>
<clipPath id="clip0_252_1846">
<rect width="353.5" height="353.5" fill="white" transform="matrix(-0.936713 0.350098 0.350098 0.936713 370.129 -75)"/>
</clipPath>
</defs>
</svg>
