<svg width="330" height="329" viewBox="0 0 330 329" fill="none" xmlns="http://www.w3.org/2000/svg">
<path d="M304.286 124.197H205.812L202.625 198.661L246.004 197.365L284.583 196.211L304.286 195.622V124.197Z" fill="#B1E9EA"/>
<path d="M282.77 239.786L287.255 251.14L302.927 243.601L292.848 258.148L305.822 265.045L290.851 266.889L291.741 279.063L282.77 270.779L270.379 282.117L274.688 266.889L262.613 265.045L272.692 258.148L268.507 248.425L278.285 251.14L282.77 239.786Z" fill="black"/>
<path d="M97.0177 154.203C95.5182 146.568 88.6387 132.448 86.5667 136.835C83.9766 142.32 84.9763 158.021 88.4751 158.935C91.9739 159.849 86.8847 136.943 82.5225 138.556C79.0328 139.847 81.0684 146.55 82.5225 149.74C82.0075 145.439 81.3459 139.416 74.207 135.383" stroke="black" stroke-width="1.316" stroke-linecap="round"/>
<path d="M59.9531 93.9846V8.99292H173.349V28.4588H217.325V90.6398" stroke="#FC804A" stroke-width="1.316"/>
<path d="M123.447 201.712H140.469L171.481 200.608V66.5675H16.4818L11.4648 206.31L64.1716 204.432" stroke="black" stroke-width="1.316"/>
<path d="M16.4786 66.5675H171.477V94.3166H15.4766L16.4786 66.5675Z" fill="black"/>
<path d="M28.678 87.5309C32.3209 87.5309 35.2741 84.3573 35.2741 80.4424C35.2741 76.5275 32.3209 73.3539 28.678 73.3539C25.0351 73.3539 22.082 76.5275 22.082 80.4424C22.082 84.3573 25.0351 87.5309 28.678 87.5309Z" fill="white"/>
<path d="M45.8304 87.5309C49.4733 87.5309 52.4264 84.3573 52.4264 80.4424C52.4264 76.5275 49.4733 73.3539 45.8304 73.3539C42.1875 73.3539 39.2344 76.5275 39.2344 80.4424C39.2344 84.3573 42.1875 87.5309 45.8304 87.5309Z" fill="white"/>
<path d="M62.9788 87.5309C66.6217 87.5309 69.5748 84.3573 69.5748 80.4424C69.5748 76.5275 66.6217 73.3539 62.9788 73.3539C59.3359 73.3539 56.3828 76.5275 56.3828 80.4424C56.3828 84.3573 59.3359 87.5309 62.9788 87.5309Z" fill="white"/>
<path d="M169.75 139.704L110.18 141.442L114.556 41.6181H249.785V137.368L222.729 138.158" stroke="black" stroke-width="1.316"/>
<path d="M165.059 184.846H209.181H165.059ZM165.059 180.011H192.794H165.059Z" stroke="black" stroke-width="1.316" stroke-linecap="round"/>
<path d="M269.735 52.967C269.735 55.0858 269.257 59.2199 267.137 59.2199C265.017 59.2199 262.059 55.0858 262.059 52.967C262.059 50.8482 263.777 49.1306 265.897 49.1306C268.017 49.1306 269.735 50.8482 269.735 52.967Z" fill="black"/>
<path d="M285.528 64.2626C285.528 66.3814 285.057 70.5156 282.967 70.5156C280.878 70.5156 277.961 66.3814 277.961 64.2626C277.961 62.1439 279.655 60.4263 281.744 60.4263C283.834 60.4263 285.528 62.1439 285.528 64.2626Z" fill="black"/>
<path d="M291.45 79.2872C291.45 81.406 290.979 85.5401 288.889 85.5401C286.8 85.5401 283.883 81.406 283.883 79.2872C283.883 77.1684 285.577 75.4508 287.666 75.4508C289.755 75.4508 291.45 77.1684 291.45 79.2872Z" fill="black"/>
<path d="M296.161 64.2626C296.161 66.3814 295.69 70.5156 293.6 70.5156C291.511 70.5156 288.594 66.3814 288.594 64.2626C288.594 62.1439 290.288 60.4263 292.377 60.4263C294.466 60.4263 296.161 62.1439 296.161 64.2626Z" fill="black"/>
<path d="M101.829 49.1306L109.94 70.7721L123.975 59.9692L113.69 77.3323L143.725 85.7108L110.832 82.6971L121.797 108.351L107.118 87.3509L93.2974 106.924L97.2973 85.7108L73.9766 89.4187L97.9402 78.2236L80.155 51.3411L100.797 69.5955L101.829 49.1306Z" fill="#FC804A"/>
<path d="M156.172 33.3086C159.338 37.2549 162.697 45.5364 168.235 41.5336L157.116 55.7354C138.966 29.3606 152.215 28.3755 156.172 33.3086Z" fill="#B8A5A5"/>
<path d="M198.56 9.60467C198.932 10.3668 197.273 11.9401 194.858 13.1189C192.442 14.2976 107.918 54.7674 107.918 54.7674C107.918 54.7674 191.095 11.5379 193.512 10.3591C195.928 9.18034 198.188 8.84257 198.56 9.60467Z" fill="black"/>
<path d="M193.987 12.2176C195.198 11.6646 196.1 11.0377 196 10.8172C195.899 10.5968 194.834 10.8664 193.623 11.4194C192.411 11.9723 191.509 12.5993 191.609 12.8197C191.71 13.0402 192.775 12.7706 193.987 12.2176Z" fill="white"/>
<path d="M192.196 15.6983C201.232 18.3742 203.491 30.5947 203.491 36.3705L185.999 64.4451C182.07 64.8473 171.49 64.2039 160.612 58.4135C149.733 52.6231 159.114 45.2901 165.163 42.3473C166.936 41.0496 169.736 36.0963 166.753 26.665C163.77 17.2336 155.056 16.5939 151.071 17.453C148.586 17.8003 144.534 17.2665 148.219 12.3535C155.677 2.92216 171.578 6.88843 178.597 10.0505C182.282 8.64676 187.444 13.2308 189.564 15.6983H192.196Z" fill="#B8A5A5"/>
<path d="M78.6917 109.996C74.3051 114.108 62.5286 133.903 63.5029 146.57C65.9704 178.647 95.1417 175.302 95.1417 203.98C95.1417 235.071 49.1914 232.658 49.1914 266.38C49.1914 296.758 92.4549 307.871 95.1417 311.289" stroke="black" stroke-width="1.316" stroke-linecap="round"/>
<path d="M78.4729 110.27L73.9766 107.748L82.2016 106.158L81.0675 97.9496C81.057 97.9023 81.0509 97.8598 81.0501 97.823L81.0675 97.9496C81.2662 98.8383 83.0789 101.442 83.0789 101.442C83.0789 101.442 87.2827 100.747 88.3977 99.6873L85.9851 105.171L92.4006 106.158H82.2016L83.0789 113.286L78.4729 110.27Z" fill="#FC804A"/>
<path d="M206.235 36.6448C183.6 35.8552 183.315 59.8942 186.002 72.0123C187.326 77.9892 242.096 106.338 242.644 109.903C243.083 112.754 236.064 127.247 232.5 134.139C225.939 137.849 206.038 151.236 178.928 175.099C151.818 198.963 149.409 231.806 151.786 243.595C151.109 241.054 144.097 235.8 141.696 231.203C139.297 226.605 131.442 226.643 118.831 236.239C108.741 243.915 110.935 246.83 111.593 251.217C122.117 270.107 137.923 307.834 157.708 315.582C166.81 319.147 180.957 316.569 186.002 312.018C190.037 308.377 198.613 275.664 200.478 266.068L215.008 299.47C244.125 308.394 299.566 289.506 307.841 258.994C304.46 246.364 290.843 203.578 285.579 192.655C278.999 179.001 307.841 118.316 289.088 91.204C285.447 85.94 268.38 70.806 260.301 63.897C253.776 59.3458 239.782 56.5493 232.5 51.2853C223.398 44.7053 216.324 39.6607 206.235 36.6448Z" fill="#FF986B"/>
<path d="M166.922 216.482C170.223 216.482 172.899 213.806 172.899 210.505C172.899 207.204 170.223 204.528 166.922 204.528C163.621 204.528 160.945 207.204 160.945 210.505C160.945 213.806 163.621 216.482 166.922 216.482Z" fill="#FC804A"/>
<path d="M177.34 245.982C180.641 245.982 183.317 243.307 183.317 240.006C183.317 236.705 180.641 234.029 177.34 234.029C174.039 234.029 171.363 236.705 171.363 240.006C171.363 243.307 174.039 245.982 177.34 245.982Z" fill="#FC804A"/>
<path d="M207.5 199.593C210.801 199.593 213.477 196.918 213.477 193.617C213.477 190.316 210.801 187.64 207.5 187.64C204.199 187.64 201.523 190.316 201.523 193.617C201.523 196.918 204.199 199.593 207.5 199.593Z" fill="#FC804A"/>
<path d="M215.395 264.187C218.696 264.187 221.372 261.511 221.372 258.21C221.372 254.909 218.696 252.233 215.395 252.233C212.094 252.233 209.418 254.909 209.418 258.21C209.418 261.511 212.094 264.187 215.395 264.187Z" fill="#FC804A"/>
<path d="M253.992 232.383C257.293 232.383 259.969 229.708 259.969 226.407C259.969 223.106 257.293 220.43 253.992 220.43C250.691 220.43 248.016 223.106 248.016 226.407C248.016 229.708 250.691 232.383 253.992 232.383Z" fill="#FC804A"/>
<path d="M298.188 263.419C301.489 263.419 304.165 260.743 304.165 257.442C304.165 254.141 301.489 251.466 298.188 251.466C294.887 251.466 292.211 254.141 292.211 257.442C292.211 260.743 294.887 263.419 298.188 263.419Z" fill="#FC804A"/>
<path d="M236.223 168.558C239.524 168.558 242.2 165.882 242.2 162.581C242.2 159.28 239.524 156.604 236.223 156.604C232.922 156.604 230.246 159.28 230.246 162.581C230.246 165.882 232.922 168.558 236.223 168.558Z" fill="#FC804A"/>
<path d="M221.426 228.435C224.727 228.435 227.403 225.76 227.403 222.459C227.403 219.158 224.727 216.482 221.426 216.482C218.125 216.482 215.449 219.158 215.449 222.459C215.449 225.76 218.125 228.435 221.426 228.435Z" fill="#FC804A"/>
<path d="M249.719 283.378C253.02 283.378 255.696 280.703 255.696 277.402C255.696 274.101 253.02 271.425 249.719 271.425C246.418 271.425 243.742 274.101 243.742 277.402C243.742 280.703 246.418 283.378 249.719 283.378Z" fill="#FC804A"/>
<path d="M274.395 195.316C277.696 195.316 280.372 192.64 280.372 189.339C280.372 186.038 277.696 183.362 274.395 183.362C271.094 183.362 268.418 186.038 268.418 189.339C268.418 192.64 271.094 195.316 274.395 195.316Z" fill="#FC804A"/>
<path d="M259.918 132.477C263.219 132.477 265.895 129.802 265.895 126.501C265.895 123.2 263.219 120.524 259.918 120.524C256.617 120.524 253.941 123.2 253.941 126.501C253.941 129.802 256.617 132.477 259.918 132.477Z" fill="#FC804A"/>
<path d="M283.938 108.351C287.239 108.351 289.915 105.675 289.915 102.374C289.915 99.0732 287.239 96.3973 283.938 96.3973C280.637 96.3973 277.961 99.0732 277.961 102.374C277.961 105.675 280.637 108.351 283.938 108.351Z" fill="#FC804A"/>
<path d="M237.762 94.3133C241.063 94.3133 243.739 91.6374 243.739 88.3365C243.739 85.0355 241.063 82.3596 237.762 82.3596C234.461 82.3596 231.785 85.0355 231.785 88.3365C231.785 91.6374 234.461 94.3133 237.762 94.3133Z" fill="#FC804A"/>
<path d="M215.504 59.6587C218.805 59.6587 221.481 56.9829 221.481 53.6819C221.481 50.3809 218.805 47.7051 215.504 47.7051C212.203 47.7051 209.527 50.3809 209.527 53.6819C209.527 56.9829 212.203 59.6587 215.504 59.6587Z" fill="#FC804A"/>
<path d="M183.258 303.338C186.559 303.338 189.235 300.662 189.235 297.361C189.235 294.06 186.559 291.384 183.258 291.384C179.957 291.384 177.281 294.06 177.281 297.361C177.281 300.662 179.957 303.338 183.258 303.338Z" fill="#FC804A"/>
<path d="M154.965 292.152C158.266 292.152 160.942 289.476 160.942 286.175C160.942 282.874 158.266 280.198 154.965 280.198C151.664 280.198 148.988 282.874 148.988 286.175C148.988 289.476 151.664 292.152 154.965 292.152Z" fill="#FC804A"/>
<path d="M129.965 269.451C133.266 269.451 135.942 266.775 135.942 263.474C135.942 260.173 133.266 257.497 129.965 257.497C126.664 257.497 123.988 260.173 123.988 263.474C123.988 266.775 126.664 269.451 129.965 269.451Z" fill="#FC804A"/>
<path d="M135.996 244.337C139.297 244.337 141.973 241.661 141.973 238.36C141.973 235.059 139.297 232.384 135.996 232.384C132.695 232.384 130.02 235.059 130.02 238.36C130.02 241.661 132.695 244.337 135.996 244.337Z" fill="#FC804A"/>
<path d="M152.389 242.215C151.329 251.116 149.845 269.731 152.389 272.977C154.934 276.223 156.154 283.066 156.447 286.082" stroke="black" stroke-width="1.316" stroke-linecap="round"/>
<path d="M246.812 106.978C248.512 101.732 256.046 95.0027 259.863 94.6956C264.633 94.3118 277.574 90.9121 280.37 92.5023" stroke="black" stroke-width="1.316" stroke-linecap="round"/>
<path d="M249.113 109.257C252.023 107.482 258.245 107.353 260.146 108.74C262.52 110.474 269.915 114.073 270.574 115.94" stroke="black" stroke-width="1.316" stroke-linecap="round"/>
<path d="M149.001 252.195C146.225 254.17 143.655 259.84 144.183 262.132C144.842 264.997 145.239 273.211 146.695 274.553" stroke="black" stroke-width="1.316" stroke-linecap="round"/>
<path d="M150.414 136.387C150.414 139.032 149.706 141.396 148.596 143.081C147.482 144.77 146.018 145.708 144.492 145.708C142.967 145.708 141.503 144.77 140.389 143.081C139.279 141.396 138.57 139.032 138.57 136.387C138.57 133.74 139.279 131.376 140.389 129.692C141.503 128.003 142.967 127.065 144.492 127.065C146.018 127.065 147.482 128.003 148.596 129.692C149.706 131.376 150.414 133.74 150.414 136.387Z" stroke="black" stroke-width="1.316"/>
<path d="M166.978 160.733C179.394 160.733 189.459 150.668 189.459 138.251C189.459 125.835 179.394 115.769 166.978 115.769C154.561 115.769 144.496 125.835 144.496 138.251C144.496 150.668 154.561 160.733 166.978 160.733Z" fill="#B8A5A5"/>
<path d="M166.317 138.26C157.105 134.049 147.326 130.375 145.645 125.733C141.49 102.505 180.404 90.7843 191.541 107.333C192.874 109.315 194.918 114.703 203.823 115.888C214.954 117.368 213.255 120.274 218.409 129.432C222.532 136.757 239.355 139.009 243.687 138.26L188.689 175.88L183.535 173.572L181.561 180.756L166.317 191.448C165.404 186.933 164.124 177.038 166.317 173.572C169.059 169.241 166.317 167.267 166.317 158.987C166.317 152.363 170.594 149.025 172.733 148.185C179.148 144.566 181.177 138.26 176.79 134.696C173.281 131.844 168.346 135.883 166.317 138.26Z" fill="black" stroke="black" stroke-width="0.109667"/>
<path d="M173.826 148.56C178.217 148.56 181.777 145 181.777 140.609C181.777 136.218 178.217 132.658 173.826 132.658C169.435 132.658 165.875 136.218 165.875 140.609C165.875 145 169.435 148.56 173.826 148.56Z" fill="#918181"/>
<path d="M149.154 144.721C150.396 144.721 151.403 143.592 151.403 142.199C151.403 140.806 150.396 139.677 149.154 139.677C147.913 139.677 146.906 140.806 146.906 142.199C146.906 143.592 147.913 144.721 149.154 144.721Z" fill="#918181"/>
<path d="M168.402 139.677C169.664 138.415 172.46 137.154 174.379 137.154" stroke="black" stroke-width="1.316" stroke-linecap="round"/>
<path d="M172.129 137.577C172.545 138.217 173.42 140.324 173.555 141.76" stroke="black" stroke-width="1.316" stroke-linecap="round"/>
<path d="M138.57 136.168L167.577 133.371" stroke="black" stroke-width="1.316"/>
<path d="M83.592 231.277L83.8472 233.897C87.7362 243.494 103.226 241.682 111.587 246.282C115.17 240.871 130.308 229.371 138.73 229.064C134.829 217.689 130.075 208.524 123.298 198.319C116.48 188.053 110.091 198.101 107.749 204.408C106.629 206.297 101.971 209.565 92.2947 207.511C82.6185 205.457 81.1366 196.845 81.6052 192.796C81.7098 190.288 80.7857 186.308 76.2532 190.453C67.5896 198.79 73.0794 214.232 76.9072 220.91C75.8674 224.714 80.9305 229.406 83.592 231.277Z" fill="#B8A5A5"/>
<path d="M97.886 196.334C102.121 199.102 110.689 201.642 107.242 207.542L119.982 194.793C91.9717 179.286 92.5925 192.874 97.886 196.334Z" fill="#B8A5A5"/>
<path d="M315.353 301.592C311.835 283.658 295.694 250.492 290.833 260.797C284.756 273.68 287.102 310.56 295.311 312.707C303.52 314.854 291.58 261.051 281.346 264.84C273.158 267.871 277.934 283.616 281.346 291.109C280.137 281.006 278.585 266.86 261.836 257.388" stroke="black" stroke-width="1.316" stroke-linecap="round"/>
<path d="M56.1016 179.783C56.1016 181.925 56.5793 186.104 58.6991 186.104C60.819 186.104 63.7782 181.925 63.7782 179.783C63.7782 177.641 62.0597 175.905 59.9399 175.905C57.82 175.905 56.1016 177.641 56.1016 179.783Z" fill="black"/>
<path d="M45.3516 179.783C45.3516 181.925 45.8293 186.104 47.9491 186.104C50.069 186.104 53.0282 181.925 53.0282 179.783C53.0282 177.641 51.3098 175.905 49.1899 175.905C47.0701 175.905 45.3516 177.641 45.3516 179.783Z" fill="black"/>
<path d="M34.7109 179.783C34.7109 181.925 35.1886 186.104 37.3085 186.104C39.4284 186.104 42.3876 181.925 42.3876 179.783C42.3876 177.641 40.6691 175.905 38.5493 175.905C36.4295 175.905 34.7109 177.641 34.7109 179.783Z" fill="black"/>
</svg>
