<svg width="49" height="48" viewBox="0 0 49 48" fill="none" xmlns="http://www.w3.org/2000/svg">
<path opacity="0.4" fill-rule="evenodd" clip-rule="evenodd" d="M12.3203 41.177C12.3203 39.497 13.6803 38.137 15.3603 38.137C17.0203 38.137 18.3803 39.497 18.3803 41.177C18.3803 42.837 17.0203 44.197 15.3603 44.197C13.6803 44.197 12.3203 42.837 12.3203 41.177ZM34.8203 41.177C34.8203 39.497 36.1803 38.137 37.8603 38.137C39.5203 38.137 40.8803 39.497 40.8803 41.177C40.8803 42.837 39.5203 44.197 37.8603 44.197C36.1803 44.197 34.8203 42.837 34.8203 41.177Z" fill="#FC804A"/>
<path fill-rule="evenodd" clip-rule="evenodd" d="M40.8815 12.698C42.1015 12.698 42.9015 13.118 43.7015 14.038C44.5015 14.958 44.6415 16.278 44.4615 17.476L42.5615 30.596C42.2015 33.118 40.0415 34.976 37.5015 34.976H15.6815C13.0215 34.976 10.8215 32.936 10.6015 30.298L8.76148 8.496L5.74148 7.976C4.94148 7.836 4.38148 7.056 4.52148 6.256C4.66148 5.436 5.44148 4.896 6.26148 5.016L11.0315 5.736C11.7115 5.858 12.2115 6.416 12.2715 7.096L12.6515 11.576C12.7115 12.218 13.2315 12.698 13.8715 12.698H40.8815ZM28.7615 23.096H34.3015C35.1415 23.096 35.8015 22.416 35.8015 21.596C35.8015 20.756 35.1415 20.096 34.3015 20.096H28.7615C27.9215 20.096 27.2615 20.756 27.2615 21.596C27.2615 22.416 27.9215 23.096 28.7615 23.096Z" fill="#FC804A"/>
</svg>
