<svg width="49" height="48" viewBox="0 0 49 48" fill="none" xmlns="http://www.w3.org/2000/svg">
<path opacity="0.4" d="M29.3365 10.9799C28.3844 10.804 27.51 11.4116 27.3288 12.341C27.1475 13.2703 27.757 14.1777 28.6832 14.3596C31.4717 14.9032 33.6249 17.0617 34.1706 19.8598V19.8618C34.326 20.6672 35.0351 21.2528 35.8517 21.2528C35.9613 21.2528 36.0708 21.2428 36.1824 21.2229C37.1085 21.037 37.718 20.1316 37.5368 19.2002C36.7221 15.0211 33.5054 11.7933 29.3365 10.9799Z" fill="#FF986B"/>
<path opacity="0.4" d="M29.2117 4.01586C28.7655 3.9519 28.3174 4.08381 27.9608 4.36762C27.5944 4.65542 27.3653 5.07113 27.3155 5.53682C27.2099 6.47817 27.8891 7.32958 28.8293 7.43551C35.3126 8.15901 40.3519 13.2095 41.0809 19.7131C41.1785 20.5845 41.9094 21.242 42.7819 21.242C42.8476 21.242 42.9113 21.238 42.9771 21.23C43.4332 21.1801 43.8395 20.9542 44.1263 20.5945C44.4112 20.2347 44.5406 19.787 44.4888 19.3293C43.5806 11.2149 37.3004 4.91724 29.2117 4.01586Z" fill="#FF986B"/>
<path d="M35.7094 29.3461C34.4127 29.0703 33.3869 29.6699 32.4787 30.1935C31.5485 30.7331 29.7778 32.1621 28.7659 31.7944C23.5753 29.6679 18.6934 25.141 16.5801 19.9525C16.2076 18.9192 17.6357 17.1465 18.1715 16.2111C18.6954 15.3037 19.2849 14.2704 19.0161 12.9713C18.7731 11.8021 15.63 7.81887 14.5186 6.72961C13.7836 6.01011 13.0347 5.61438 12.2638 5.54842C9.36576 5.42651 6.12908 9.27786 5.56142 10.1992C4.13728 12.1639 4.14724 14.7781 5.58532 17.9479C9.05106 26.4621 22.1591 39.3112 30.7398 42.8928C32.3213 43.6303 33.7713 44 35.072 44C36.3447 44 37.4781 43.6463 38.4521 42.9447C39.1851 42.523 43.2125 39.1394 43.1049 36.1754C43.0432 35.4199 42.6468 34.6644 41.9337 33.9329C40.8462 32.8157 36.8746 29.5919 35.7094 29.3461Z" fill="#FF986B"/>
</svg>
