<svg id="Layer_1" xmlns="http://www.w3.org/2000/svg" viewBox="0 0 182.2 39"><defs><style>.cls-3<!-- -->{<!-- -->fill:#0c513f<!-- -->}</style></defs><path id="Path_1" d="M18.45 23.29a4.79 4.79 0 0 1-6.11-1.51 4.91 4.91 0 0 1 .3-6.18 4.84 4.84 0 0 1 6.23-.92 17.63 17.63 0 0 0 6.55 2.41c1.84.26 3.72.34 5.6.49A14.8 14.8 0 1 0 4.38 27.72l-.25-.18L0 39l9.51-6.91a14.86 14.86 0 0 0 6.22 1.63 14.69 14.69 0 0 0 15.13-12.3l-.23-.08a21.94 21.94 0 0 0-12.18 1.95" style="fill:#ffc501"></path><g style="isolation:isolate"><path class="cls-3" d="M42.14 18.93A10 10 0 0 1 52.29 8.57c4.35 0 7.56 2.4 8.61 5.37l-3.69 1.78a5.08 5.08 0 0 0-4.92-3.37c-3.56 0-6 2.67-6 6.58s2.4 6.61 6 6.61a5.08 5.08 0 0 0 4.92-3.37L60.9 24c-1 3-4.26 5.37-8.61 5.37a10 10 0 0 1-10.15-10.44ZM76.57 19.5V29h-4v-8.64a2.7 2.7 0 1 0-5.4 0V29h-4.1V8.89h4.05v6.72A4.55 4.55 0 0 1 71 13.94a5.28 5.28 0 0 1 5.57 5.56ZM78.19 21.63a7.88 7.88 0 1 1 7.88 7.69 7.65 7.65 0 0 1-7.88-7.69Zm11.58 0c0-2.35-1.48-4.05-3.7-4.05s-3.7 1.7-3.7 4.05 1.49 4.05 3.7 4.05 3.7-1.68 3.7-4.05ZM118.28 14.26 113.2 29h-3.56l-3.37-9.83-3.4 9.83H99.3l-5.07-14.74h4.18l2.73 8.8 2.86-8.8h4.51l2.86 8.8 2.7-8.8ZM134.32 8.89V29h-3.78v-1.4a6 6 0 0 1-4.48 1.72 7.49 7.49 0 0 1-7.51-7.69 7.51 7.51 0 0 1 7.45-7.69 5.87 5.87 0 0 1 4.24 1.56V8.89Zm-4 12.74a3.74 3.74 0 0 0-3.73-4.05 3.8 3.8 0 0 0-3.8 4.05 3.78 3.78 0 0 0 3.8 4.05 3.73 3.73 0 0 0 3.68-4.05ZM150.79 22.76h-10.37A3.64 3.64 0 0 0 147 24.2l3.24 1.53c-.9 2.16-3.32 3.59-6.35 3.59a7.47 7.47 0 0 1-7.72-7.72 7.39 7.39 0 0 1 7.45-7.66A7.19 7.19 0 0 1 151 21.2a5.41 5.41 0 0 1-.21 1.56Zm-4.1-3a2.87 2.87 0 0 0-3-2.62 3.1 3.1 0 0 0-3.16 2.62ZM151.79 21.6a7.56 7.56 0 0 1 7.8-7.66 7 7 0 0 1 6.89 4.53L163 20.15a3.48 3.48 0 0 0-3.43-2.57c-2.13 0-3.62 1.68-3.62 4.05s1.49 4.05 3.62 4.05a3.46 3.46 0 0 0 3.43-2.56l3.46 1.7a7 7 0 0 1-6.89 4.5 7.61 7.61 0 0 1-7.78-7.72ZM176.82 20.2l5.34 8.8h-4.4l-3.56-5.91-2 2.21V29h-4.1V8.89h4.05v11l5.29-5.59h4.72Z"></path></g></svg>