<svg width="351" height="188" viewBox="0 0 351 188" fill="none" xmlns="http://www.w3.org/2000/svg">
<mask id="mask0_305_624" style="mask-type:alpha" maskUnits="userSpaceOnUse" x="0" y="0" width="351" height="188">
<path d="M0 10C0 4.47715 4.47715 0 10 0H341C346.523 0 351 4.47715 351 10V188H0V10Z" fill="#FFF0EA"/>
</mask>
<g mask="url(#mask0_305_624)">
<path d="M0 10C0 4.47715 4.47715 0 10 0H341C346.523 0 351 4.47715 351 10V188H0V10Z" fill="#FFF0EA"/>
<path d="M132.029 276.856L58.5879 151.549L212.188 39.427L301.325 153.276L132.029 276.856Z" stroke="#03292D" stroke-width="1.336"/>
<path d="M247.206 139.226C239.751 133.56 221.499 124.051 208.13 131.35C191.42 140.473 195.116 161.283 192.791 166.631C190.465 171.98 183.966 202.973 122.277 166.55" stroke="#3FC7C8" stroke-width="1.336" stroke-linecap="round"/>
<path d="M129.888 183.903L114.803 198.599L120.648 202.718L117.085 213.239L126.604 215.633L128.998 202.718L134.23 203.33L129.888 183.903Z" fill="#3FC7C8" stroke="#03292D" stroke-width="0.111333"/>
<path d="M129.138 181.119L111.416 198.394L118.283 203.236L114.097 215.603L125.28 218.416L128.092 203.236L134.239 203.955L129.138 181.119Z" stroke="#03292D" stroke-width="1.336"/>
<path d="M116.086 86.3757L71.6641 117.66L86.2487 140.372" stroke="#3FC7C8" stroke-width="1.336" stroke-linecap="round"/>
<path d="M139.08 119.699L183.844 87.0234L138.509 31.5042L106.851 54.6132L104.943 71.1054L139.08 119.699Z" stroke="#03292D" stroke-width="1.336"/>
<path d="M196.403 81.6579L146.723 117.922L107.975 62.8281L109.857 44.0383L144.943 18.4265L196.403 81.6579Z" fill="#3FC7C8"/>
<path d="M109.854 43.9565L107.961 62.7719L120.319 52.9745L109.854 43.9565Z" fill="#03292D"/>
<path d="M57.7031 151.365L212.282 38.5283L228.102 60.2L71.5893 174.449L57.7031 151.365Z" fill="#03292D"/>
<path d="M173.371 133.525L220.409 101.461L173.371 133.525ZM150.213 133.525L216.123 90.0496L150.213 133.525Z" stroke="#03292D" stroke-width="1.336" stroke-linecap="round"/>
<path d="M78.2019 158.869C80.7347 157.021 81.2892 153.468 79.4403 150.935C77.5915 148.402 74.0394 147.848 71.5064 149.697C68.9736 151.545 68.4192 155.098 70.2681 157.631C72.117 160.164 75.6691 160.718 78.2019 158.869Z" fill="white"/>
<path d="M91.3308 149.285C93.8637 147.437 94.4181 143.884 92.5692 141.351C90.7203 138.819 87.1682 138.264 84.6353 140.113C82.1025 141.961 81.5481 145.514 83.397 148.047C85.2458 150.58 88.7979 151.134 91.3308 149.285Z" fill="white"/>
<path d="M104.469 139.7C107.002 137.852 107.557 134.299 105.708 131.766C103.859 129.234 100.307 128.679 97.774 130.528C95.2412 132.376 94.6868 135.929 96.5356 138.462C98.3845 140.995 101.937 141.549 104.469 139.7Z" fill="white"/>
<path d="M194.689 192.469C192.529 183.167 182.624 165.965 179.642 171.311C175.912 177.992 177.351 197.12 182.389 198.234C187.427 199.347 180.099 171.441 173.819 173.406C168.794 174.978 171.725 183.146 173.819 187.032C173.077 181.792 172.124 174.455 161.846 169.542" stroke="#03292D" stroke-width="1.336" stroke-linecap="round"/>
<path d="M375.614 60.2463C369.356 78.3452 340.647 111.816 332 101.415C321.192 88.4144 325.364 51.197 339.965 49.0302C354.565 46.8635 333.328 101.16 315.124 97.3364C300.562 94.2774 309.057 78.3878 315.124 70.8254C312.975 81.022 310.214 95.297 280.424 104.856" stroke="#3FC7C8" stroke-width="1.336" stroke-linecap="round"/>
<path d="M127.889 61.5668L148.275 46.6299L162.356 65.8486L140.915 82.0339L127.889 61.5668Z" fill="#03292D"/>
<path d="M152.343 25.8025C154.927 24.0805 156.109 21.3158 154.984 19.6273C153.859 17.9388 150.852 17.9659 148.268 19.6878C145.684 21.4097 144.502 24.1744 145.627 25.863C146.752 27.5515 149.759 27.5245 152.343 25.8025Z" fill="#03292D"/>
<path d="M156.349 31.2566C158.933 29.5346 160.115 26.77 158.99 25.0814C157.865 23.3929 154.858 23.4199 152.274 25.1419C149.69 26.8638 148.507 29.6286 149.633 31.3172C150.758 33.0056 153.765 32.9786 156.349 31.2566Z" fill="#03292D"/>
<path d="M160.915 36.0444C163.499 34.3224 164.681 31.5578 163.556 29.8692C162.431 28.1807 159.424 28.2078 156.84 29.9298C154.256 31.6517 153.074 34.4164 154.199 36.105C155.324 37.7935 158.331 37.7664 160.915 36.0444Z" fill="#03292D"/>
<path d="M164.925 41.4998C167.509 39.7778 168.691 37.0131 167.566 35.3245C166.441 33.6361 163.434 33.6631 160.85 35.3851C158.266 37.107 157.084 39.8717 158.209 41.5603C159.334 43.2488 162.341 43.2217 164.925 41.4998Z" fill="#03292D"/>
<path d="M168.933 46.6211C171.517 44.8992 172.699 42.1345 171.574 40.4459C170.449 38.7574 167.442 38.7845 164.858 40.5064C162.274 42.2283 161.091 44.9931 162.217 46.6817C163.342 48.3701 166.349 48.3431 168.933 46.6211Z" fill="#03292D"/>
<path d="M172.94 52.0767C175.524 50.3548 176.707 47.59 175.581 45.9014C174.457 44.213 171.45 44.24 168.866 45.962C166.282 47.6839 165.099 50.4486 166.225 52.1372C167.349 53.8257 170.356 53.7987 172.94 52.0767Z" fill="#03292D"/>
<path d="M177.497 56.8638C180.081 55.1418 181.263 52.3771 180.138 50.6886C179.013 49.0001 176.006 49.0271 173.422 50.7491C170.838 52.471 169.656 55.2357 170.781 56.9243C171.906 58.6128 174.913 58.5858 177.497 56.8638Z" fill="#03292D"/>
<path d="M181.505 62.3186C184.089 60.5966 185.271 57.832 184.146 56.1434C183.021 54.4549 180.014 54.482 177.43 56.204C174.846 57.9258 173.664 60.6906 174.789 62.3792C175.914 64.0677 178.921 64.0406 181.505 62.3186Z" fill="#03292D"/>
<path d="M254.023 32.1011C263.197 34.8176 265.491 47.2238 265.491 53.0874L247.733 81.5887C243.743 81.9969 233.004 81.3438 221.959 75.4654C210.915 69.587 220.437 62.1425 226.58 59.1551C228.379 57.8376 231.222 52.8091 228.194 43.2344C225.166 33.6598 216.318 33.0102 212.273 33.8824C209.749 34.2349 205.638 33.6932 209.379 28.7054C216.949 19.1307 233.093 23.1572 240.218 26.3674C243.959 24.9424 249.198 29.5961 251.351 32.1011H254.023Z" fill="#B8A5A5"/>
<path d="M268.283 53.3655C245.304 52.5639 245.015 76.9681 247.742 89.2705C249.087 95.3381 304.689 124.118 305.246 127.736C305.691 130.631 298.566 145.346 294.948 152.341C288.285 156.107 268.083 169.698 240.561 193.924C213.04 218.15 210.983 248.143 213.396 260.111C212.709 257.532 209.9 251.862 204.155 249.813C196.974 247.252 192.354 246.25 179.551 255.992C169.308 263.785 168.083 274.64 168.751 279.094L174.93 286.275C186.546 301.825 211.626 333.647 219.018 336.542C228.259 340.16 242.621 337.544 247.742 332.923C251.839 329.227 256.649 308.82 258.542 299.078L264.164 321.122C295.95 330.864 334.972 311.881 338.034 307.818C341.095 303.754 361.636 295.46 367.815 290.895C372.758 287.243 377.074 274.974 378.615 269.296C375.181 256.474 366.98 228.059 361.636 216.97C354.956 203.109 357.016 115.434 352.396 108.754C348.699 103.41 331.371 88.0458 323.171 81.0318C316.546 76.4115 302.34 73.5725 294.948 68.2285C285.707 61.5485 278.526 56.4271 268.283 53.3655Z" fill="#FF986B"/>
<path d="M284.643 61.0474C281.582 65.3337 279.655 78.1816 284.643 83.481C290.878 90.1054 316.373 83.147 322.998 93.0557C328.297 100.983 344.318 106.638 347.602 103.354L284.643 61.0474ZM289.097 116.658C292.826 109.7 327.751 112.517 328.509 119.998C329.455 129.35 319.059 125.152 310.918 132.022C308.221 134.298 302.345 143.49 299.896 142.321L289.097 116.658ZM246.567 78.7494C250.798 78.7494 259.146 84.0044 259.705 90.996C259.928 93.801 258.758 97.3977 258.313 98.0657L246.567 78.7494ZM355.618 143.1C349.328 143.1 347.372 160.225 339.141 176.556C329.727 195.232 303.848 210.457 310.306 232.668C316.526 254.064 363.69 241.853 370.203 240.572L355.618 143.1ZM370.092 288.557C367.253 286.052 367.275 276.444 358.235 272.97C346.934 268.628 336.856 276.922 322.998 277.312C305.012 277.82 284.643 270.799 277.128 272.97C271.116 274.707 272.025 284.679 273.232 289.448C277.908 298.967 297.669 316.446 298.95 322.569L370.092 288.557ZM209.939 328.915C214.392 324.74 217.651 307.723 229.032 306.76C240.417 305.797 246.512 323.46 251.577 325.408L209.939 328.915ZM181.604 254.433C183.72 257.161 174.445 264.643 177.875 272.97C182.161 283.38 195.444 285.897 196.913 298.132C197.574 303.647 196.913 311.102 195.354 312.271L181.604 254.433ZM263.267 190.751C270.819 193.459 287.671 196.896 294.663 188.969C301.655 181.042 298.282 171.379 295.721 167.538L263.267 190.751ZM232.038 220.31C242.121 214.304 259.081 212.962 263.267 219.196C268.5 226.99 287.822 242.107 289.041 244.803C294.775 257.495 285.645 266.068 258.424 258.664C236.647 252.741 230.153 279.03 220.348 267.348C214.621 260.526 214.136 254.2 216.897 244.803C219.658 235.407 222.668 225.89 232.038 220.31Z" stroke="#FFF0EA" stroke-width="1.336"/>
<path d="M309.479 124.769C311.204 119.443 318.853 112.611 322.727 112.299C327.57 111.91 340.708 108.458 343.547 110.073" stroke="#03292D" stroke-width="1.336" stroke-linecap="round"/>
<path d="M311.811 127.082C314.763 125.28 321.081 125.148 323.01 126.556C325.421 128.316 332.927 131.97 333.597 133.865" stroke="#03292D" stroke-width="1.336" stroke-linecap="round"/>
<path d="M211.612 154.623C211.612 157.308 210.893 159.709 209.765 161.418C208.635 163.134 207.147 164.086 205.6 164.086C204.051 164.086 202.565 163.134 201.434 161.418C200.306 159.709 199.588 157.308 199.588 154.623C199.588 151.937 200.306 149.536 201.434 147.827C202.565 146.111 204.051 145.159 205.6 145.159C207.147 145.159 208.635 146.111 209.765 147.827C210.893 149.536 211.612 151.937 211.612 154.623Z" stroke="#03292D" stroke-width="1.336"/>
<path d="M228.421 179.339C241.026 179.339 251.244 169.12 251.244 156.515C251.244 143.91 241.026 133.692 228.421 133.692C215.816 133.692 205.598 143.91 205.598 156.515C205.598 169.12 215.816 179.339 228.421 179.339Z" fill="#B8A5A5"/>
<path d="M235.384 166.98C239.842 166.98 243.456 163.366 243.456 158.909C243.456 154.451 239.842 150.837 235.384 150.837C230.926 150.837 227.312 154.451 227.312 158.909C227.312 163.366 230.926 166.98 235.384 166.98Z" fill="#D7090A"/>
<path d="M210.331 163.085C211.591 163.085 212.613 161.938 212.613 160.524C212.613 159.11 211.591 157.963 210.331 157.963C209.071 157.963 208.049 159.11 208.049 160.524C208.049 161.938 209.071 163.085 210.331 163.085Z" fill="#D7090A"/>
<path d="M229.871 157.963C231.151 156.683 233.99 155.403 235.939 155.403" stroke="#03292D" stroke-width="1.336" stroke-linecap="round"/>
<path d="M233.66 155.831C234.082 156.481 234.971 158.621 235.107 160.078" stroke="#03292D" stroke-width="1.336" stroke-linecap="round"/>
<path d="M203.236 140.138L224.285 150.056L227.485 158.407C227.39 156.623 229.045 152.335 233.311 151.662C238.643 150.821 242.222 159.507 238.903 163.847C236.248 167.319 232.552 166.51 231.035 165.673L242.929 204.995L308.687 165.369C308.687 165.369 296.779 148.805 277.813 128.904C258.709 108.859 243.261 114.456 237.468 118.841C218.929 113.521 206.921 130.822 203.236 140.138Z" fill="#03292D"/>
<path d="M199.588 154.4L229.036 151.561" stroke="#03292D" stroke-width="1.336"/>
<path d="M244.349 177.056C244.349 184.957 237.944 191.362 230.043 191.362C222.141 191.362 215.736 184.957 215.736 177.056C215.736 169.155 222.141 162.75 230.043 162.75" stroke="#03292D" stroke-width="1.336"/>
<path d="M192.183 95.672L189.789 76.467L212.223 85.652L192.183 95.672Z" fill="#03292D"/>
<path d="M242.625 22.7029L219.958 11.783L189.586 74.8299L190.794 85.2513L192.001 81.255L193.303 87.1L197.59 83.3146L196.142 87.935L203.769 87.1L202.128 90.7113L212.255 85.7498L242.625 22.7029Z" fill="#3FC7C8"/>
<path d="M196.307 74.4628L223.695 18.8518" stroke="#03292D" stroke-width="1.336" stroke-linecap="round"/>
<path d="M202.037 76.5231L229.425 20.9121" stroke="#03292D" stroke-width="1.336" stroke-linecap="round"/>
<path d="M207.834 79.9743L235.222 24.3633" stroke="#03292D" stroke-width="1.336" stroke-linecap="round"/>
<path d="M211.941 57.8752C216.127 59.0776 222.629 59.638 225.357 59.7679L218.955 73.2949C196.633 60.5472 206.709 56.3722 211.941 57.8752Z" fill="#B8A5A5"/>
<path d="M346.998 185.722C346.998 190.538 348.092 199.936 352.95 199.936C357.807 199.936 364.589 190.538 364.589 185.722C364.589 180.906 360.651 177.001 355.793 177.001C350.936 177.001 346.998 180.906 346.998 185.722Z" fill="#03292D"/>
<path d="M126.31 150.547C126.31 152.293 125.917 155.698 124.171 155.698C122.425 155.698 119.988 152.293 119.988 150.547C119.988 148.801 121.403 147.386 123.149 147.386C124.895 147.386 126.31 148.801 126.31 150.547Z" fill="#03292D"/>
<path d="M135.117 150.547C135.117 152.293 134.723 155.698 132.977 155.698C131.232 155.698 128.795 152.293 128.795 150.547C128.795 148.801 130.21 147.386 131.956 147.386C133.701 147.386 135.117 148.801 135.117 150.547Z" fill="#03292D"/>
<path d="M143.91 150.547C143.91 152.293 143.516 155.698 141.77 155.698C140.025 155.698 137.588 152.293 137.588 150.547C137.588 148.801 139.003 147.386 140.749 147.386C142.494 147.386 143.91 148.801 143.91 150.547Z" fill="#03292D"/>
</g>
</svg>
