<svg width="435" height="435" viewBox="0 0 435 435" fill="none" xmlns="http://www.w3.org/2000/svg">
<path d="M103.461 347.152L7.92188 184.141L207.741 38.2814L323.699 186.387L103.461 347.152Z" stroke="#011416" stroke-width="1.738"/>
<path d="M253.293 168.11C243.595 160.738 219.851 148.368 202.46 157.864C180.722 169.733 185.529 196.803 182.504 203.761C179.479 210.719 171.024 251.038 90.7734 203.655" stroke="#3FC7C8" stroke-width="1.738" stroke-linecap="round"/>
<path d="M100.672 226.23L81.0469 245.348L88.6506 250.706L84.016 264.393L96.3992 267.507L99.5131 250.706L106.32 251.503L100.672 226.23Z" fill="#3FC7C8" stroke="#011416" stroke-width="0.144833"/>
<path d="M99.6956 222.609L76.6406 245.081L85.5734 251.38L80.1286 267.468L94.6763 271.128L98.3345 251.38L106.331 252.316L99.6956 222.609Z" stroke="#011416" stroke-width="1.738"/>
<path d="M82.7182 99.3571L24.9297 140.055L43.9029 169.601" stroke="#3FC7C8" stroke-width="1.738" stroke-linecap="round"/>
<path d="M112.631 142.707L170.864 100.2L111.888 27.9747L70.7045 58.0372L68.2227 79.492L112.631 142.707Z" stroke="#011416" stroke-width="1.738"/>
<path d="M187.204 93.2197L122.576 140.396L72.168 68.7241L74.6164 44.2804L120.26 10.9621L187.204 93.2197Z" fill="#3FC7C8"/>
<path d="M74.6106 44.174L72.1484 68.6508L88.2249 55.9055L74.6106 44.174Z" fill="#011416"/>
<path d="M6.76953 183.901L207.861 37.1124L228.441 65.3051L24.834 213.931L6.76953 183.901Z" fill="#011416"/>
<path d="M157.239 160.694L218.431 118.982L157.239 160.694ZM127.113 160.694L212.855 104.136L127.113 160.694Z" stroke="#011416" stroke-width="1.738" stroke-linecap="round"/>
<path d="M120.037 363.213L86.8259 385.47L120.037 363.213ZM126.101 348.123L80.5117 379.689L126.101 348.123Z" stroke="#011416" stroke-width="1.738" stroke-linecap="round"/>
<path d="M33.4374 193.663C36.7324 191.259 37.4536 186.637 35.0484 183.343C32.6433 180.048 28.0224 179.326 24.7273 181.732C21.4323 184.136 20.711 188.758 23.1163 192.053C25.5215 195.348 30.1424 196.069 33.4374 193.663Z" fill="white"/>
<path d="M50.5155 181.195C53.8105 178.791 54.5317 174.17 52.1265 170.875C49.7213 167.58 45.1003 166.858 41.8054 169.264C38.5104 171.668 37.7892 176.29 40.1944 179.585C42.5995 182.88 47.2204 183.601 50.5155 181.195Z" fill="white"/>
<path d="M67.6092 168.727C70.9043 166.322 71.6255 161.701 69.2203 158.406C66.815 155.111 62.1941 154.39 58.8992 156.795C55.6042 159.199 54.8829 163.821 57.288 167.116C59.6933 170.411 64.3142 171.132 67.6092 168.727Z" fill="white"/>
<path d="M184.976 237.373C182.166 225.272 169.281 202.894 165.401 209.849C160.549 218.541 162.421 243.424 168.975 244.873C175.529 246.321 165.996 210.019 157.826 212.575C151.289 214.62 155.101 225.245 157.826 230.301C156.861 223.484 155.621 213.939 142.25 207.548" stroke="#011416" stroke-width="1.738" stroke-linecap="round"/>
<path d="M96.33 406.504C90.8554 382.958 65.739 339.417 58.1742 352.948C48.7182 369.86 52.3678 418.276 65.1417 421.095C77.9157 423.913 59.3355 353.279 43.4096 358.253C30.6687 362.233 38.1009 382.903 43.4096 392.742C41.5294 379.477 39.114 360.906 13.0508 348.471" stroke="#3FC7C8" stroke-width="1.738" stroke-linecap="round"/>
<path d="M420.336 65.3652C412.195 88.9101 374.849 132.452 363.599 118.922C349.539 102.009 354.966 53.593 373.961 50.7743C392.954 47.9555 365.327 118.59 341.646 113.616C322.701 109.636 333.752 88.9655 341.646 79.1276C338.85 92.3923 335.258 110.963 296.504 123.398" stroke="#3FC7C8" stroke-width="1.738" stroke-linecap="round"/>
<path d="M98.0742 67.0832L124.595 47.6517L142.913 72.6533L115.02 93.7087L98.0742 67.0832Z" fill="#011416"/>
<path d="M129.884 20.5572C133.246 18.3171 134.784 14.7206 133.32 12.524C131.857 10.3274 127.945 10.3626 124.584 12.6027C121.222 14.8427 119.684 18.4393 121.147 20.636C122.611 22.8325 126.523 22.7974 129.884 20.5572Z" fill="#011416"/>
<path d="M135.095 27.6527C138.457 25.4125 139.995 21.816 138.531 19.6193C137.068 17.4228 133.156 17.458 129.794 19.6981C126.433 21.9381 124.895 25.5348 126.358 27.7314C127.822 29.928 131.734 29.8928 135.095 27.6527Z" fill="#011416"/>
<path d="M141.037 33.8812C144.398 31.641 145.936 28.0445 144.473 25.8478C143.009 23.6513 139.097 23.6865 135.736 25.9266C132.374 28.1666 130.836 31.7633 132.3 33.96C133.764 36.1565 137.675 36.1213 141.037 33.8812Z" fill="#011416"/>
<path d="M146.255 40.9778C149.617 38.7376 151.155 35.1411 149.691 32.9445C148.228 30.7479 144.316 30.7831 140.955 33.0232C137.593 35.2632 136.055 38.8599 137.519 41.0566C138.982 43.2531 142.894 43.2179 146.255 40.9778Z" fill="#011416"/>
<path d="M151.47 47.6404C154.832 45.4004 156.37 41.8037 154.906 39.6071C153.443 37.4105 149.531 37.4457 146.169 39.6858C142.808 41.9258 141.27 45.5225 142.733 47.7192C144.197 49.9157 148.109 49.8805 151.47 47.6404Z" fill="#011416"/>
<path d="M156.685 54.7373C160.047 52.4973 161.585 48.9007 160.12 46.704C158.658 44.5074 154.746 44.5426 151.384 46.7828C148.022 49.0228 146.484 52.6194 147.949 54.8161C149.411 57.0126 153.323 56.9774 156.685 54.7373Z" fill="#011416"/>
<path d="M162.607 60.9649C165.968 58.7248 167.506 55.1283 166.042 52.9316C164.579 50.735 160.667 50.7702 157.306 53.0104C153.944 55.2504 152.406 58.847 153.87 61.0437C155.333 63.2402 159.245 63.205 162.607 60.9649Z" fill="#011416"/>
<path d="M167.822 68.0612C171.183 65.821 172.721 62.2245 171.257 60.0278C169.794 57.8313 165.882 57.8665 162.521 60.1066C159.159 62.3466 157.621 65.9433 159.085 68.1399C160.548 70.3365 164.46 70.3013 167.822 68.0612Z" fill="#011416"/>
<path d="M182.026 278.325L217.506 323.642L81.4881 408.721L24.5898 322.031L69.6117 289.165" stroke="#011416" stroke-width="1.738"/>
<path d="M23.6562 322.719L70.1314 288.795L85.8432 315.665L40.7166 347.312L23.6562 322.719Z" fill="#011416"/>
<path d="M45.9897 333.239C48.7316 331.238 49.3318 327.393 47.3303 324.651C45.3288 321.909 41.4837 321.308 38.7418 323.31C36 325.311 35.3997 329.157 37.4011 331.898C39.4026 334.64 43.2479 335.241 45.9897 333.239Z" fill="white"/>
<path d="M60.1968 322.865C62.9386 320.863 63.5388 317.018 61.5373 314.276C59.5359 311.534 55.6907 310.933 52.9489 312.935C50.207 314.937 49.6067 318.782 51.6081 321.524C53.6096 324.265 57.4549 324.866 60.1968 322.865Z" fill="white"/>
<path d="M74.4077 312.49C77.1496 310.488 77.7498 306.643 75.7483 303.901C73.7469 301.159 69.9017 300.558 67.1598 302.56C64.4179 304.562 63.8177 308.407 65.8191 311.149C67.8206 313.89 71.6657 314.491 74.4077 312.49Z" fill="white"/>
<path d="M262.163 28.7512C274.097 32.2851 277.081 48.4244 277.081 56.0523L253.98 93.1296C248.789 93.6606 234.819 92.811 220.451 85.1638C206.084 77.5166 218.471 67.832 226.462 63.9457C228.802 62.2318 232.501 55.6902 228.562 43.2345C224.622 30.7789 213.112 29.9339 207.851 31.0685C204.567 31.5271 199.219 30.8223 204.085 24.3338C213.934 11.8781 234.934 17.1162 244.204 21.2923C249.07 19.4384 255.886 25.4925 258.687 28.7512H262.163Z" fill="#B8A5A5"/>
<path d="M166.92 363.56L104.733 283.366C102.048 278.682 102.778 273.853 111.192 277.76C115.68 279.842 118.744 281.911 119.226 282.546L110.645 269.94C107.941 264.535 111.548 258.235 119.508 264.542C121.421 266.018 123.586 268.322 124.429 269.29L120.249 261.661C116.999 255.195 119.838 247.346 128.531 253.351C133.585 256.944 136.469 259.897 141.311 265.75L136.567 252.756C136.403 248.619 137.805 241.895 144.727 248.099C151.648 254.302 170.195 282.807 173.05 287.227C173.81 287.458 173.696 288.54 174.114 286.273C174.639 283.439 174.889 268.147 176.471 262.002C177.379 258.471 180.323 254.188 185.111 264.225C189.901 274.262 194.557 313.852 197.175 318.007C199.14 321.127 204.354 329.649 205.126 330.124C205.158 330.118 205.188 330.114 205.219 330.11C205.209 330.152 205.177 330.155 205.126 330.124C199.086 331.048 180.969 341.99 180.969 341.99C180.969 341.99 165.684 351.264 166.92 363.56Z" fill="#B8A5A5"/>
<path d="M119.445 283.103L136.603 305.15" stroke="#011416" stroke-width="1.738" stroke-linecap="round"/>
<path d="M125.07 270.011L142.228 292.057" stroke="#011416" stroke-width="1.738" stroke-linecap="round"/>
<path d="M141.016 265.311L158.174 287.358" stroke="#011416" stroke-width="1.738" stroke-linecap="round"/>
<path d="M280.711 56.414C250.817 55.3712 250.441 87.1187 253.989 103.123C255.739 111.016 328.071 148.456 328.796 153.163C329.375 156.928 320.106 176.071 315.399 185.171C306.732 190.071 280.45 207.75 244.647 239.266C208.845 270.782 206.17 309.8 209.308 325.37C208.414 322.014 204.76 314.637 197.287 311.972C187.945 308.641 181.935 307.338 165.279 320.011C151.954 330.149 150.361 344.27 151.23 350.064L159.268 359.405C174.379 379.634 207.005 421.032 216.622 424.798C228.643 429.505 247.327 426.101 253.989 420.091C259.319 415.282 265.576 388.734 268.038 376.061L275.352 404.738C316.702 417.411 367.466 392.717 371.449 387.431C375.432 382.144 402.154 371.354 410.192 365.416C416.623 360.665 422.236 344.705 424.241 337.318C419.774 320.638 409.106 283.672 402.154 269.247C393.464 251.215 396.143 137.159 390.133 128.469C385.324 121.517 362.782 101.53 352.114 92.4051C343.496 86.3945 325.015 82.7013 315.399 75.7493C303.377 67.0593 294.036 60.397 280.711 56.414Z" fill="#FF986B"/>
<path d="M301.993 66.4073C298.01 71.9834 295.505 88.6972 301.993 95.5913C310.104 104.209 343.271 95.1568 351.888 108.047C358.782 118.359 379.624 125.717 383.897 121.444L301.993 66.4073ZM307.787 138.752C312.639 129.7 358.073 133.364 359.058 143.097C360.289 155.263 346.764 149.801 336.174 158.739C332.666 161.699 325.022 173.656 321.835 172.136L307.787 138.752ZM252.46 89.4358C257.964 89.4358 268.824 96.2721 269.551 105.368C269.842 109.016 268.32 113.695 267.74 114.564L252.46 89.4358ZM394.325 173.15C386.141 173.15 383.597 195.428 372.889 216.672C360.642 240.968 326.977 260.774 335.377 289.668C343.469 317.502 404.825 301.617 413.298 299.951L394.325 173.15ZM413.153 362.374C409.46 359.116 409.489 346.616 397.728 342.098C383.028 336.449 369.917 347.238 351.888 347.746C328.491 348.407 301.993 339.273 292.217 342.098C284.396 344.357 285.578 357.33 287.148 363.533C293.231 375.916 318.939 398.655 320.604 406.621L413.153 362.374ZM204.81 414.876C210.603 409.445 214.843 387.307 229.649 386.055C244.46 384.802 252.388 407.78 258.978 410.314L204.81 414.876ZM167.95 317.983C170.702 321.531 158.637 331.264 163.098 342.098C168.674 355.64 185.954 358.914 187.865 374.83C188.725 382.005 187.865 391.703 185.837 393.224L167.95 317.983ZM274.185 235.138C284.009 238.662 305.933 243.133 315.028 232.821C324.124 222.509 319.735 209.937 316.404 204.94L274.185 235.138ZM233.56 273.591C246.676 265.779 268.74 264.032 274.185 272.143C280.992 282.281 306.128 301.947 307.714 305.455C315.173 321.966 303.297 333.118 267.885 323.487C239.556 315.781 231.108 349.981 218.352 334.784C210.902 325.908 210.27 317.679 213.862 305.455C217.454 293.231 221.37 280.85 233.56 273.591Z" stroke="#FFF0EA" stroke-width="1.738"/>
<path d="M209.594 327.905C208.193 339.661 206.234 364.244 209.594 368.531C212.954 372.818 214.566 381.855 214.953 385.838" stroke="#011416" stroke-width="1.738" stroke-linecap="round"/>
<path d="M334.301 149.302C336.546 142.374 346.496 133.487 351.536 133.081C357.836 132.574 374.927 128.084 378.62 130.184" stroke="#011416" stroke-width="1.738" stroke-linecap="round"/>
<path d="M337.336 152.311C341.177 149.968 349.396 149.796 351.905 151.628C355.042 153.918 364.807 158.671 365.678 161.136" stroke="#011416" stroke-width="1.738" stroke-linecap="round"/>
<path d="M205.107 341.085C201.44 343.693 198.048 351.181 198.744 354.209C199.614 357.994 200.14 368.842 202.062 370.612" stroke="#011416" stroke-width="1.738" stroke-linecap="round"/>
<path d="M206.99 188.139C206.99 191.632 206.054 194.757 204.587 196.98C203.117 199.212 201.182 200.45 199.169 200.45C197.154 200.45 195.22 199.212 193.749 196.98C192.282 194.757 191.348 191.632 191.348 188.139C191.348 184.646 192.282 181.522 193.749 179.298C195.22 177.067 197.154 175.828 199.169 175.828C201.182 175.828 203.117 177.067 204.587 179.298C206.054 181.522 206.99 184.646 206.99 188.139Z" stroke="#011416" stroke-width="1.738"/>
<path d="M228.855 220.292C245.253 220.292 258.546 206.999 258.546 190.601C258.546 174.203 245.253 160.91 228.855 160.91C212.457 160.91 199.164 174.203 199.164 190.601C199.164 206.999 212.457 220.292 228.855 220.292Z" fill="#B8A5A5"/>
<path d="M237.914 204.215C243.714 204.215 248.415 199.514 248.415 193.715C248.415 187.916 243.714 183.214 237.914 183.214C232.115 183.214 227.414 187.916 227.414 193.715C227.414 199.514 232.115 204.215 237.914 204.215Z" fill="#D7090A"/>
<path d="M205.321 199.148C206.96 199.148 208.29 197.656 208.29 195.817C208.29 193.977 206.96 192.485 205.321 192.485C203.681 192.485 202.352 193.977 202.352 195.817C202.352 197.656 203.681 199.148 205.321 199.148Z" fill="#D7090A"/>
<path d="M230.742 192.485C232.408 190.82 236.101 189.154 238.636 189.154" stroke="#011416" stroke-width="1.738" stroke-linecap="round"/>
<path d="M235.672 189.711C236.221 190.557 237.377 193.341 237.555 195.237" stroke="#011416" stroke-width="1.738" stroke-linecap="round"/>
<path d="M196.094 169.296L223.476 182.199L227.638 193.063C227.515 190.741 229.668 185.164 235.218 184.288C242.154 183.194 246.81 194.494 242.493 200.14C239.038 204.655 234.23 203.604 232.257 202.515L247.73 253.668L333.274 202.119C333.274 202.119 317.783 180.571 293.11 154.682C268.258 128.605 248.161 135.887 240.626 141.591C216.508 134.671 200.888 157.178 196.094 169.296Z" fill="#011416"/>
<path d="M191.348 187.849L229.656 184.156" stroke="#011416" stroke-width="1.738"/>
<path d="M249.574 217.323C249.574 227.602 241.241 235.934 230.963 235.934C220.684 235.934 212.352 227.602 212.352 217.323C212.352 207.044 220.684 198.712 230.963 198.712" stroke="#011416" stroke-width="1.738"/>
<path d="M181.712 111.451L178.598 86.4669L207.782 98.4157L181.712 111.451Z" fill="#011416"/>
<path d="M247.335 16.5251L217.846 2.31946L178.336 84.3371L179.907 97.8943L181.477 92.6955L183.172 100.299L188.748 95.3749L186.865 101.385L196.786 100.299L194.651 104.997L207.825 98.5428L247.335 16.5251Z" fill="#3FC7C8"/>
<path d="M187.074 83.8596L222.703 11.5154" stroke="#011416" stroke-width="1.738" stroke-linecap="round"/>
<path d="M194.531 86.5396L230.16 14.1954" stroke="#011416" stroke-width="1.738" stroke-linecap="round"/>
<path d="M202.078 91.0294L237.707 18.6852" stroke="#011416" stroke-width="1.738" stroke-linecap="round"/>
<path d="M207.421 62.281C212.866 63.8452 221.325 64.5741 224.873 64.7431L216.545 82.3404C187.506 65.757 200.613 60.3257 207.421 62.281Z" fill="#B8A5A5"/>
<path d="M383.109 228.597C383.109 234.862 384.533 247.087 390.852 247.087C397.171 247.087 405.993 234.862 405.993 228.597C405.993 222.331 400.87 217.252 394.551 217.252C388.232 217.252 383.109 222.331 383.109 228.597Z" fill="#011416"/>
<path d="M358.492 241.558C358.492 245.177 359.308 252.238 362.927 252.238C366.546 252.238 371.598 245.177 371.598 241.558C371.598 237.939 368.664 235.006 365.044 235.006C361.427 235.006 358.492 237.939 358.492 241.558Z" fill="#011416"/>
<path d="M376.73 264.408C376.73 268.028 377.546 275.088 381.165 275.088C384.785 275.088 389.836 268.028 389.836 264.408C389.836 260.79 386.902 257.856 383.284 257.856C379.665 257.856 376.73 260.79 376.73 264.408Z" fill="#011416"/>
<path d="M358.465 264.408C358.465 268.028 359.28 275.088 362.9 275.088C366.518 275.088 371.569 268.028 371.569 264.408C371.569 260.79 368.636 257.856 365.017 257.856C361.399 257.856 358.465 260.79 358.465 264.408Z" fill="#011416"/>
<path d="M340.242 264.408C340.242 268.028 341.058 275.088 344.676 275.088C348.295 275.088 353.347 268.028 353.347 264.408C353.347 260.79 350.414 257.856 346.794 257.856C343.175 257.856 340.242 260.79 340.242 264.408Z" fill="#011416"/>
<path d="M376.508 287.258C376.508 290.876 377.323 297.938 380.943 297.938C384.561 297.938 389.614 290.876 389.614 287.258C389.614 283.639 386.679 280.706 383.06 280.706C379.442 280.706 376.508 283.639 376.508 287.258Z" fill="#011416"/>
<path d="M96.0207 182.837C96.0207 185.108 95.509 189.539 93.238 189.539C90.9671 189.539 87.7969 185.108 87.7969 182.837C87.7969 180.566 89.6379 178.726 91.9088 178.726C94.1797 178.726 96.0207 180.566 96.0207 182.837Z" fill="#011416"/>
<path d="M107.474 182.837C107.474 185.108 106.962 189.539 104.691 189.539C102.42 189.539 99.25 185.108 99.25 182.837C99.25 180.566 101.091 178.726 103.362 178.726C105.633 178.726 107.474 180.566 107.474 182.837Z" fill="#011416"/>
<path d="M118.911 182.837C118.911 185.108 118.4 189.539 116.129 189.539C113.858 189.539 110.688 185.108 110.688 182.837C110.688 180.566 112.528 178.726 114.799 178.726C117.07 178.726 118.911 180.566 118.911 182.837Z" fill="#011416"/>
</svg>
