<svg width="94" height="33" viewBox="0 0 94 33" fill="none" xmlns="http://www.w3.org/2000/svg">
<g clip-path="url(#clip0_1584_2116)">
<path d="M75.6948 32.0528C75.5591 32.0528 75.4492 31.9427 75.4492 31.8071V2.21965C75.4492 2.10317 75.5311 2.00272 75.645 1.97913L80.8126 0.910731C80.965 0.879218 81.1079 0.995612 81.1079 1.15125V31.8071C81.1079 31.9427 80.998 32.0528 80.8624 32.0528H75.6948Z" fill="#12051C"/>
<path d="M10.787 32.6786C8.72391 32.6786 6.88187 32.1776 5.26086 31.1755C3.63988 30.1734 2.35781 28.8029 1.41469 27.064C0.471563 25.3252 0 23.3505 0 21.14C0 18.9297 0.471563 16.9697 1.41469 15.2603C2.35781 13.5214 3.63988 12.1656 5.26086 11.193C6.88187 10.191 8.72391 9.68993 10.787 9.68993C12.4375 9.68993 13.8816 9.99939 15.1195 10.6183C16.1137 11.1154 16.9559 11.7742 17.6458 12.5945C17.8013 12.7793 18.1257 12.6742 18.1257 12.4327V1.6876C18.1257 1.57113 18.2075 1.47067 18.3216 1.44708L23.4891 0.378687C23.6415 0.347175 23.7845 0.463568 23.7845 0.619209V31.9025C23.7845 32.0382 23.6744 32.1481 23.5389 32.1481H18.9465C18.8291 32.1481 18.7283 32.0652 18.7055 31.95L18.2344 29.5611C18.193 29.3507 17.9173 29.2881 17.78 29.4528C17.1206 30.2438 16.2926 30.9507 15.2963 31.5733C14.1469 32.3102 12.6438 32.6786 10.787 32.6786ZM11.9806 27.7272C13.8079 27.7272 15.2963 27.1231 16.4457 25.9146C17.6246 24.6768 18.2141 23.1 18.2141 21.1843C18.2141 19.2685 17.6246 17.7065 16.4457 16.4981C15.2963 15.2603 13.8079 14.6413 11.9806 14.6413C10.1828 14.6413 8.69443 15.2455 7.51553 16.4539C6.33661 17.6623 5.74717 19.2243 5.74717 21.14C5.74717 23.0558 6.33661 24.6326 7.51553 25.8704C8.69443 27.1082 10.1828 27.7272 11.9806 27.7272Z" fill="#12051C"/>
<path d="M37.5805 32.6821C35.37 32.6821 33.4101 32.2105 31.7007 31.2675C29.9913 30.3243 28.6503 28.9981 27.6777 27.2887C26.705 25.5793 26.2188 23.6046 26.2188 21.3647C26.2188 19.0952 26.6903 17.0764 27.6335 15.308C28.6061 13.5396 29.9323 12.1692 31.6123 11.1966C33.3217 10.1945 35.3258 9.69347 37.6248 9.69347C39.7762 9.69347 41.6772 10.165 43.3277 11.1082C44.9782 12.0513 46.2602 13.3481 47.1739 14.9985C48.117 16.6195 48.5886 18.4322 48.5886 20.4362C48.5886 20.7604 48.5738 21.0994 48.5444 21.453C48.5444 21.7363 48.5349 22.0291 48.5159 22.3315C48.508 22.4594 48.401 22.5583 48.2726 22.5583H32.0965C31.9542 22.5583 31.8413 22.6791 31.8555 22.8207C32.0135 24.4055 32.5956 25.6591 33.6017 26.5813C34.6922 27.5539 36.0037 28.0402 37.5363 28.0402C38.6858 28.0402 39.6437 27.7896 40.4099 27.2887C41.1598 26.7888 41.7265 26.1579 42.11 25.3961C42.153 25.3108 42.2394 25.2551 42.3351 25.2551H47.5959C47.7603 25.2551 47.8782 25.4133 47.8264 25.5693C47.4058 26.8324 46.7462 27.995 45.8476 29.057C44.9044 30.1769 43.7255 31.0612 42.3109 31.7095C40.9257 32.3579 39.3489 32.6821 37.5805 32.6821ZM37.6248 14.2912C36.2396 14.2912 35.0164 14.6891 33.9554 15.4848C32.9597 16.204 32.3014 17.2863 31.9806 18.7322C31.9473 18.8822 32.0634 19.0216 32.217 19.0216H42.5802C42.7218 19.0216 42.8345 18.9021 42.8204 18.7613C42.6867 17.4387 42.1632 16.3759 41.2499 15.5733C40.2772 14.7186 39.0689 14.2912 37.6248 14.2912Z" fill="#12051C"/>
<path d="M62.1977 32.6821C59.9872 32.6821 58.0273 32.2105 56.3179 31.2675C54.6085 30.3243 53.2675 28.9981 52.2949 27.2887C51.3222 25.5793 50.8359 23.6046 50.8359 21.3647C50.8359 19.0952 51.3075 17.0764 52.2507 15.308C53.2232 13.5396 54.5495 12.1692 56.2295 11.1966C57.9389 10.1945 59.943 9.69347 62.242 9.69347C64.3934 9.69347 66.2944 10.165 67.9449 11.1082C69.5954 12.0513 70.8774 13.3481 71.791 14.9985C72.7342 16.6195 73.2058 18.4322 73.2058 20.4362C73.2058 20.7604 73.1909 21.0994 73.1616 21.453C73.1616 21.7363 73.1521 22.0291 73.1331 22.3315C73.1251 22.4594 73.0182 22.5583 72.8898 22.5583H56.7136C56.5714 22.5583 56.4585 22.6791 56.4727 22.8207C56.6307 24.4055 57.2127 25.6591 58.2189 26.5813C59.3094 27.5539 60.6209 28.0402 62.1535 28.0402C63.303 28.0402 64.2608 27.7896 65.0271 27.2887C65.777 26.7888 66.3436 26.1579 66.7272 25.3961C66.7702 25.3108 66.8566 25.2551 66.9522 25.2551H72.2131C72.3775 25.2551 72.4954 25.4133 72.4435 25.5693C72.023 26.8324 71.3633 27.995 70.4648 29.057C69.5216 30.1769 68.3427 31.0612 66.9281 31.7095C65.5429 32.3579 63.9661 32.6821 62.1977 32.6821ZM62.242 14.2912C60.8567 14.2912 59.6336 14.6891 58.5726 15.4848C57.5768 16.204 56.9186 17.2863 56.5978 18.7322C56.5645 18.8822 56.6806 19.0216 56.8342 19.0216H67.1974C67.339 19.0216 67.4517 18.9021 67.4376 18.7613C67.3039 17.4387 66.7804 16.3759 65.8671 15.5733C64.8944 14.7186 63.6861 14.2912 62.242 14.2912Z" fill="#12051C"/>
<path d="M88.5246 32.0592C90.6287 32.0592 92.3344 30.3536 92.3344 28.2495C92.3344 26.1454 90.6287 24.4397 88.5246 24.4397C86.4205 24.4397 84.7148 26.1454 84.7148 28.2495C84.7148 30.3536 86.4205 32.0592 88.5246 32.0592Z" fill="#12051C"/>
</g>
<defs>
<clipPath id="clip0_1584_2116">
<rect width="93.0487" height="32.3648" fill="white" transform="translate(0 0.317619)"/>
</clipPath>
</defs>
</svg>
