<svg width="24" height="24" viewBox="0 0 24 24" fill="currentColor" xmlns="http://www.w3.org/2000/svg">
<path fill-rule="evenodd" clip-rule="evenodd" d="M11.3721 3.39514V13.6193L9.73757 11.9792L9.6536 11.9064C9.36043 11.688 8.94372 11.7113 8.67691 11.977C8.38341 12.2693 8.38244 12.7442 8.67473 13.0377L11.5907 15.9657L11.593 15.9676C11.6176 15.9922 11.644 16.015 11.6718 16.036L11.6749 16.0387C11.969 16.2576 12.3871 16.2333 12.6536 15.9657L15.5696 13.0377L15.642 12.9534C15.8593 12.6594 15.8342 12.2427 15.5674 11.977L15.4831 11.9046C15.1891 11.6873 14.7724 11.7124 14.5067 11.9792L12.8721 13.6199V3.39514L12.8653 3.29337C12.8156 2.9273 12.5018 2.64514 12.1221 2.64514C11.7079 2.64514 11.3721 2.98093 11.3721 3.39514ZM17.9053 21.1172C20.2527 21.0085 22.1219 19.0714 22.1219 16.697V11.813L22.1171 11.6042C22.0082 9.25121 20.0674 7.37804 17.6879 7.37804H16.7549L16.6532 7.38489C16.2871 7.43455 16.0049 7.74835 16.0049 8.12804C16.0049 8.54226 16.3407 8.87804 16.7549 8.87804H17.6879L17.8604 8.88302C19.401 8.97224 20.6219 10.2493 20.6219 11.813V16.697L20.617 16.8689C20.528 18.4047 19.255 19.622 17.6969 19.622H6.55695L6.38451 19.6171C4.84397 19.5278 3.62195 18.2499 3.62195 16.687V11.802L3.62691 11.6303C3.71591 10.0956 4.98959 8.87804 6.54695 8.87804H7.48895L7.59072 8.87119C7.95679 8.82153 8.23895 8.50774 8.23895 8.12804C8.23895 7.71383 7.90316 7.37804 7.48895 7.37804H6.54695L6.3326 7.38314C3.98875 7.49497 2.12195 9.43081 2.12195 11.802V16.687L2.12678 16.8958C2.2358 19.2481 4.17771 21.122 6.55695 21.122H17.6969L17.9053 21.1172Z" fill="currentColor"/>
</svg>
