<svg width="46" height="28" viewBox="0 0 46 28" fill="none" xmlns="http://www.w3.org/2000/svg">
<g clip-path="url(#clip0_250_2165)">
<path fill-rule="evenodd" clip-rule="evenodd" d="M24.5431 11.889C24.126 11.8906 23.7126 11.8092 23.327 11.6496C23.2197 11.6062 23.1157 11.556 23.0153 11.4993C22.6965 12.0067 22.4006 12.6243 22.2934 13.0153C22.1861 13.4063 22.2934 27.8361 22.2934 27.8361H20.4651V26.1562C19.6107 27.3562 18.2594 27.9561 16.7095 27.9561C13.6295 27.9561 11.3838 25.7765 11.3838 22.5365C11.3838 19.2965 13.6292 17.1366 16.7095 17.1366C18.2 17.1366 19.5116 17.6966 20.3858 18.8365V13.6408L20.3829 13.4063C20.3089 12.7205 20.0487 12.0715 19.6348 11.5287C19.4539 11.7422 19.2356 11.9218 18.99 12.0584C18.5703 12.2956 18.0957 12.4178 17.6139 12.4129C17.561 12.4129 17.507 12.4116 17.4535 12.4089C17.3885 12.4056 17.3246 12.4027 17.2622 12.3998C17.2467 12.3991 17.2313 12.3984 17.2161 12.3977C16.7301 12.4036 16.2465 12.3301 15.7841 12.1799C15.2843 11.9917 14.795 11.6286 14.2445 11.0367C13.8375 10.5993 13.43 10.1897 12.9619 9.74726C12.3244 9.14469 11.634 8.601 10.899 8.12293C10.3161 7.7438 9.70629 7.40791 9.07456 7.11782C8.49649 6.84397 7.89415 6.62482 7.27539 6.46324L7.27741 6.46115C7.88993 5.95435 8.54925 5.5073 9.24653 5.12608C9.91972 4.75094 10.6282 4.44316 11.3615 4.20717C12.1884 3.93792 13.0515 3.79707 13.9209 3.7895C15.0139 3.78483 16.0918 4.04673 17.0614 4.55262C17.9259 4.97893 18.7057 5.5595 19.3626 6.26592C19.8196 6.76748 20.1526 7.36958 20.335 8.02368C20.5072 8.68471 20.5066 9.37901 20.3332 10.0396C20.3033 10.1599 20.2686 10.2786 20.229 10.3956C20.6428 10.9264 21.0164 11.4887 21.3463 12.0779C21.5589 11.5768 21.7921 11.085 22.0453 10.604C21.8425 10.3411 21.6643 10.0592 21.5133 9.76213C21.1331 9.03744 20.9456 8.22683 20.9689 7.40839C21.0059 6.59509 21.2329 5.80185 21.6315 5.09257C22.2088 4.08986 22.9633 3.20093 23.8584 2.4693C25.3956 1.15449 27.2978 0.487972 29.5107 0.487972C30.3201 0.491751 31.1273 0.573716 31.9211 0.732729C32.6002 0.867216 33.2694 1.04704 33.9245 1.27101C34.5687 1.48519 35.1961 1.74691 35.8017 2.05405C35.1226 2.41 34.4781 2.82874 33.8766 3.30482C33.2169 3.81453 32.5952 4.37185 32.0164 4.97233C31.2861 5.72939 30.6256 6.55102 30.0428 7.42714C29.6147 8.07115 29.2491 8.65987 28.8916 9.2797C28.4077 10.1199 27.9341 10.6756 27.401 11.0312C26.8315 11.4107 26.1617 11.5642 25.5131 11.7496C25.1978 11.8409 24.8713 11.8878 24.5431 11.889ZM19.5074 9.54609C19.5787 9.13376 19.559 8.70669 19.4445 8.29604C19.296 7.7647 19.0262 7.27541 18.6564 6.86673C18.1171 6.28204 17.4751 5.80188 16.7624 5.45031C15.8911 4.99941 14.9234 4.76767 13.9428 4.77504C13.349 4.77805 12.7574 4.85008 12.1802 4.98964C11.6868 5.10778 11.2037 5.26557 10.7356 5.46148C10.2714 5.65068 9.82461 5.88025 9.4003 6.14757L9.4034 6.14866C9.84905 6.3398 10.2822 6.5592 10.7 6.80552C11.7292 7.40343 12.6868 8.11731 13.5542 8.9333C13.9029 9.26292 14.2061 9.56782 14.5087 9.89296C15.5654 11.0284 16.4397 11.3407 16.9879 11.4021C17.0845 11.413 17.1817 11.4185 17.279 11.4187C17.7179 11.421 18.1488 11.3003 18.523 11.0702C18.6727 10.9808 18.8105 10.8737 18.9337 10.7515C18.9306 10.7482 18.9275 10.7448 18.9245 10.7415L18.924 10.741C18.4696 10.2495 17.9866 9.72726 17.5036 9.33995C16.9882 8.92829 16.6536 8.80563 16.2632 8.6625C15.9957 8.56445 15.7019 8.45673 15.3058 8.23985L16.0926 7.1435C16.0926 7.1435 17.616 7.67728 19.0722 9.09692C19.2208 9.24328 19.3659 9.39304 19.5074 9.54609ZM24.7993 10.6211C24.4238 10.624 24.0549 10.5494 23.7145 10.4055C23.8022 10.2661 23.896 10.1152 23.9967 9.95071C25.2313 7.93339 26.7337 6.42668 26.7337 6.42668L25.7156 5.55651C25.7156 5.55651 24.0616 7.27929 22.927 9.09692C22.8335 9.24149 22.7419 9.38731 22.6523 9.53426C22.251 8.93342 22.0484 8.21596 22.0817 7.48506C22.1122 6.82439 22.2957 6.17997 22.6177 5.60274C23.09 4.77407 23.7107 4.03971 24.4484 3.43641C25.2038 2.79223 26.0842 2.31209 27.0339 2.02631C27.8736 1.77692 28.7453 1.65329 29.621 1.65946C30.4857 1.66341 31.3474 1.76392 32.19 1.95912C32.5438 2.0383 32.8926 2.13868 33.2346 2.25972C32.7636 2.60313 32.3155 2.97719 31.8934 3.37945C30.8521 4.35616 29.9257 5.44899 29.1321 6.63671C28.8131 7.11633 28.5409 7.55445 28.2756 8.01532C27.7631 8.90518 26.9151 10.0497 25.786 10.4478C25.4693 10.5613 25.1357 10.6199 24.7993 10.6211ZM13.3112 22.5365C13.3112 24.7963 14.8417 26.2762 16.8685 26.2762C18.875 26.2762 20.4048 24.7966 20.4048 22.5365C20.4048 20.2764 18.8754 18.8165 16.8685 18.8165C14.8412 18.8165 13.3112 20.2766 13.3112 22.5365Z" fill="#03A84E"/>
<path fill-rule="evenodd" clip-rule="evenodd" d="M2.53993 23.9763C3.07645 25.4362 4.38805 26.2762 6.15665 26.2762C7.38872 26.2762 8.42203 25.8563 9.19712 24.9964L10.2304 26.2364C9.29628 27.3563 7.84574 27.9563 6.09701 27.9563C2.69896 27.9563 0.433594 25.6954 0.433594 22.5365C0.433594 19.3971 2.6592 17.1366 5.71931 17.1366C8.60072 17.1366 10.8462 19.1775 10.9058 22.3364L2.53993 23.9763ZM9.01819 21.3563C8.68043 19.8365 7.42846 18.7565 5.71952 18.7565C3.71237 18.7565 2.28171 20.2166 2.28171 22.4365V22.6365L9.01819 21.3563Z" fill="#03A84E"/>
<path fill-rule="evenodd" clip-rule="evenodd" d="M25.8292 23.9763C26.3657 25.4362 27.6773 26.2762 29.4459 26.2762C30.678 26.2762 31.7113 25.8563 32.4861 24.9964L33.5194 26.2364C32.5853 27.3563 31.1348 27.9563 29.3861 27.9563C25.988 27.9563 23.7227 25.6954 23.7227 22.5365C23.7227 19.3965 25.9483 17.1366 29.0086 17.1366C31.89 17.1366 34.1354 19.1775 34.1951 22.3364L25.8292 23.9763ZM32.3074 21.3563C31.9697 19.8365 30.7178 18.7565 29.0088 18.7565C27.0016 18.7565 25.571 20.2166 25.571 22.4362V22.6363L32.3074 21.3563Z" fill="#03A84E"/>
<path d="M37.4728 18.8365C38.2476 17.7567 39.5989 17.1367 41.268 17.1366C43.8315 17.1366 45.6399 18.6167 45.6401 21.7364V27.8363H43.7324V21.9565C43.7324 19.8765 42.6991 18.8565 40.8907 18.8565C38.8639 18.8565 37.5523 20.0766 37.5523 22.3764V27.8363H35.6445V17.236H37.4728V18.8365Z" fill="#03A84E"/>
</g>
<defs>
<clipPath id="clip0_250_2165">
<rect width="45.2084" height="27.4684" fill="white" transform="translate(0.433594 0.487961)"/>
</clipPath>
</defs>
</svg>
