<svg width="35" height="40" viewBox="0 0 35 40" fill="none" xmlns="http://www.w3.org/2000/svg">
<g clip-path="url(#clip0_1082_909)">
<path d="M33.2496 3.777C32.4829 3.32605 31.5646 3.42341 30.8785 4.02898C28.231 6.3659 25.6696 5.41339 21.71 3.66566C17.8292 1.95309 12.9998 -0.178063 8.23341 4.02898C7.66355 4.532 7.32812 5.32136 7.32812 6.1596V22.023C7.32812 23.032 7.81275 23.9544 8.57993 24.4056C9.34711 24.8568 10.2652 24.7591 10.951 24.1536C13.5985 21.8167 16.1599 22.7692 20.1196 24.517C22.3285 25.4917 24.8446 26.6022 27.4816 26.6022C29.4775 26.6022 31.5427 25.9661 33.5961 24.1536C34.166 23.6506 34.5014 22.8613 34.5014 22.023V6.1596C34.5014 5.15063 34.0168 4.22822 33.2496 3.777Z" fill="#FC804A"/>
<path d="M2.76407 1.04134C1.51362 1.04134 0.5 2.23384 0.5 3.70495V36.2949C0.5 37.766 1.51362 38.9585 2.76407 38.9585C4.01452 38.9585 5.02814 37.766 5.02814 36.2949V3.70495C5.02814 2.23384 4.01452 1.04134 2.76407 1.04134Z" fill="#FECCB7"/>
</g>
<defs>
<clipPath id="clip0_1082_909">
<rect width="34" height="40" fill="white" transform="translate(0.5)"/>
</clipPath>
</defs>
</svg>
