<svg width="32" height="32" viewBox="0 0 32 32" fill="none" xmlns="http://www.w3.org/2000/svg">
<circle cx="16" cy="16" r="16" fill="#FFF0EA"/>
<path d="M13.1426 17.716H18.8571C19.1738 17.716 19.462 17.4712 19.5132 17.1587C19.5263 17.0789 19.8337 15.1921 19.8337 14.1685C19.8337 10.9131 18.513 7.89935 16.3008 6.10668C16.2158 6.03785 16.109 6 15.9998 6C15.8906 6 15.7837 6.03789 15.699 6.10668C13.4868 7.89935 12.166 10.9131 12.166 14.1685C12.166 15.1921 12.4734 17.0789 12.4865 17.1587C12.5377 17.4712 12.826 17.716 13.1426 17.716ZM15.9999 10.123C16.9631 10.123 17.7439 10.9039 17.7439 11.8671C17.7439 12.8303 16.9631 13.6112 15.9999 13.6112C15.0366 13.6112 14.2558 12.8303 14.2558 11.8671C14.2558 10.9039 15.0366 10.123 15.9999 10.123Z" fill="#FC804A"/>
<path d="M20.2281 20.3553C20.2165 20.3238 20.1014 20.0323 19.6315 19.5028C19.49 19.3434 19.3936 19.2401 19.3597 19.2118C19.1659 19.0498 18.8162 18.919 18.5599 18.9141L13.4374 18.9141C13.1849 18.919 12.8352 19.0498 12.6413 19.2118C12.6075 19.2401 12.511 19.3435 12.3696 19.5028C11.8998 20.0323 11.7846 20.3238 11.773 20.3553C11.6922 20.5749 11.6289 20.9301 11.6289 21.164V24.2661C11.6289 24.468 11.6557 24.7673 11.7005 24.9187L11.7255 25.0035L11.9039 25.0828C11.9605 25.1079 12.0203 25.1207 12.0817 25.1207H12.21L12.2595 25.086C12.3392 25.0302 12.5348 24.8603 12.678 24.7283L14.5932 22.9622C14.6234 23.0805 14.6674 23.2124 14.7113 23.3214L15.68 25.7332C15.7733 25.9653 15.9209 26 16.0006 26C16.0803 26 16.2279 25.9653 16.3212 25.7332L17.29 23.3215C17.3337 23.2125 17.3778 23.0807 17.408 22.9623L19.3232 24.7283C19.4661 24.8601 19.6616 25.0299 19.7413 25.0859L19.7908 25.1207H19.9195C19.9811 25.1207 20.041 25.1078 20.0967 25.083L20.2756 25.0039L20.3008 24.9188C20.3455 24.7674 20.3723 24.468 20.3723 24.2661V21.164C20.3722 20.9301 20.3089 20.5749 20.2281 20.3553Z" fill="#FC804A"/>
</svg>
