<svg width="49" height="48" viewBox="0 0 49 48" fill="none" xmlns="http://www.w3.org/2000/svg">
<path fill-rule="evenodd" clip-rule="evenodd" d="M16.0376 17.4277H32.9624C37.6773 17.4277 41.5 21.1661 41.5 25.777V35.6507C41.5 40.2616 37.6773 44 32.9624 44H16.0376C11.3227 44 7.5 40.2616 7.5 35.6507V25.777C7.5 21.1661 11.3227 17.4277 16.0376 17.4277ZM24.4898 34.6589C25.4857 34.6589 26.2782 33.8838 26.2782 32.91V28.4978C26.2782 27.5438 25.4857 26.7687 24.4898 26.7687C23.5143 26.7687 22.7218 27.5438 22.7218 28.4978V32.91C22.7218 33.8838 23.5143 34.6589 24.4898 34.6589Z" fill="#FC804A"/>
<path opacity="0.4" d="M35.544 14.7919V17.7333C34.8327 17.5346 34.0807 17.4352 33.3085 17.4352H31.9875V14.7919C31.9875 10.7574 28.6342 7.47805 24.5087 7.47805C20.3832 7.47805 17.0299 10.7375 17.0096 14.7522V17.4352H15.709C14.9164 17.4352 14.1644 17.5346 13.4531 17.7532V14.7919C13.4734 8.82953 18.4119 4 24.4681 4C30.6055 4 35.544 8.82953 35.544 14.7919Z" fill="#FC804A"/>
</svg>
