<svg width="200" height="65" viewBox="0 0 200 65" fill="none" xmlns="http://www.w3.org/2000/svg">
<g clip-path="url(#clip0_240_838)">
<path d="M55.8564 16.1235L27.9319 32.2471V64.4941L0 48.3706V16.1235L27.9319 0L55.8564 16.1235ZM42.1835 56.2858L55.8564 48.3706V32.6355L42.1835 40.536V56.2858Z" fill="url(#paint0_linear_240_838)"/>
<path d="M87.1945 28.1284C85.523 28.1091 83.8956 28.6654 82.5856 29.7041V28.5828H79.8672V42.7275H82.571V32.9801C83.0598 32.3029 83.6982 31.7476 84.4366 31.3573C85.175 30.9671 85.9934 30.7525 86.8282 30.7302C89.1656 30.7302 90.5578 32.1959 90.5578 34.7464V42.7275H93.2689V34.6658C93.2762 30.7375 90.8582 28.1284 87.1945 28.1284Z" fill="white"/>
<path d="M102.875 28.2159C101.395 28.2189 99.9498 28.6611 98.7215 29.4866C97.4933 30.312 96.5377 31.4836 95.9758 32.8528C95.4139 34.222 95.271 35.7272 95.5652 37.1777C95.8595 38.6282 96.5775 39.9587 97.6285 41.0007C98.6795 42.0426 100.016 42.749 101.469 43.0305C102.921 43.3119 104.425 43.1557 105.789 42.5816C107.153 42.0075 108.316 41.0413 109.13 39.8056C109.944 38.5699 110.374 37.1201 110.364 35.6401C110.368 34.6585 110.176 33.6859 109.8 32.779C109.425 31.8722 108.872 31.0492 108.175 30.3582C107.478 29.6671 106.65 29.1218 105.74 28.754C104.831 28.3862 103.856 28.2033 102.875 28.2159ZM102.875 40.6237C102.232 40.6172 101.597 40.4824 101.007 40.227C100.417 39.9717 99.8835 39.6011 99.4385 39.1369C98.9935 38.6727 98.6457 38.1242 98.4154 37.5238C98.1852 36.9233 98.0771 36.2829 98.0977 35.6401C98.0461 34.9831 98.1309 34.3225 98.3469 33.6999C98.5629 33.0773 98.9053 32.5061 99.3526 32.0222C99.7999 31.5383 100.342 31.1522 100.946 30.8881C101.55 30.624 102.202 30.4877 102.86 30.4877C103.519 30.4877 104.171 30.624 104.775 30.8881C105.378 31.1522 105.921 31.5383 106.368 32.0222C106.816 32.5061 107.158 33.0773 107.374 33.6999C107.59 34.3225 107.675 34.9831 107.623 35.6401C107.644 36.2805 107.537 36.9185 107.308 37.517C107.08 38.1156 106.735 38.6627 106.293 39.1265C105.851 39.5903 105.321 39.9616 104.734 40.2186C104.148 40.4757 103.516 40.6134 102.875 40.6237Z" fill="white"/>
<path d="M115.501 30.2609V28.5826H112.797V42.7273H115.501V33.7128C116.011 32.863 116.728 32.1564 117.585 31.6592C118.443 31.1619 119.412 30.8901 120.403 30.8692H120.762V28.2161H120.395C119.484 28.2073 118.579 28.384 117.738 28.7356C116.897 29.0871 116.135 29.606 115.501 30.2609Z" fill="white"/>
<path d="M128.618 28.2162C127.643 28.201 126.676 28.3833 125.774 28.7522C124.871 29.1212 124.053 29.669 123.369 30.3628C122.684 31.0565 122.147 31.8818 121.79 32.7889C121.432 33.6959 121.263 34.6659 121.29 35.6404C121.261 36.6171 121.429 37.5897 121.785 38.4996C122.141 39.4095 122.677 40.238 123.362 40.9351C124.047 41.6321 124.865 42.1834 125.768 42.5557C126.672 42.9279 127.641 43.1135 128.618 43.1012C131.703 43.1012 134.231 41.5181 135.066 39.0776L135.234 38.5866H132.34L132.238 38.7991C131.688 39.9571 130.354 40.6533 128.676 40.6533C127.568 40.6913 126.485 40.3179 125.635 39.6048C124.786 38.8917 124.23 37.8894 124.075 36.791H135.066L135.462 36.9889L135.52 36.4685C135.535 36.1731 135.535 35.8771 135.52 35.5817C135.491 31.3163 132.626 28.2162 128.618 28.2162ZM128.559 30.6641C130.823 30.6641 132.391 32.1298 132.743 34.5191H124.075C124.228 33.4418 124.767 32.4568 125.592 31.7476C126.417 31.0384 127.471 30.6533 128.559 30.6641Z" fill="white"/>
<path d="M145.293 28.2163C143.678 28.197 142.101 28.7124 140.809 29.6821V21.3564H138.098V42.7275H140.809V41.6355C141.752 42.3242 142.844 42.7806 143.996 42.9678C145.149 43.155 146.329 43.0676 147.442 42.7127C148.554 42.3579 149.567 41.7455 150.398 40.9255C151.23 40.1054 151.856 39.1008 152.226 37.9932C152.596 36.8855 152.7 35.7062 152.528 34.551C152.357 33.3958 151.916 32.2973 151.24 31.3447C150.565 30.3921 149.674 29.6124 148.641 29.0688C147.608 28.5252 146.461 28.2331 145.293 28.2163ZM140.809 32.9361C141.27 32.2301 141.902 31.6519 142.646 31.2548C143.391 30.8578 144.223 30.6546 145.066 30.6641C146.35 30.7135 147.564 31.2582 148.455 32.184C149.346 33.1097 149.843 34.3446 149.843 35.6294C149.843 36.9143 149.346 38.1491 148.455 39.0749C147.564 40.0007 146.35 40.5454 145.066 40.5948C144.225 40.6081 143.395 40.4097 142.651 40.0178C141.907 39.6259 141.273 39.0531 140.809 38.3521V32.9361Z" fill="white"/>
<path d="M166.14 29.6525C165.031 28.8393 163.717 28.3494 162.346 28.2372C160.976 28.125 159.6 28.395 158.373 29.0171C157.146 29.6391 156.116 30.5891 155.396 31.7614C154.676 32.9338 154.295 34.2827 154.295 35.6585C154.295 37.0344 154.676 38.3833 155.396 39.5557C156.116 40.728 157.146 41.6779 158.373 42.3C159.6 42.9221 160.976 43.1921 162.346 43.0799C163.717 42.9677 165.031 42.4778 166.14 41.6646V42.7272H168.851V28.5825H166.14V29.6525ZM166.14 38.4472C165.673 39.1338 165.043 39.694 164.306 40.0777C163.57 40.4614 162.75 40.6566 161.919 40.6458C160.636 40.5965 159.421 40.0518 158.531 39.126C157.64 38.2002 157.142 36.9654 157.142 35.6805C157.142 34.3957 157.64 33.1608 158.531 32.2351C159.421 31.3093 160.636 30.7646 161.919 30.7152C162.75 30.7051 163.57 30.9006 164.306 31.2842C165.042 31.6678 165.672 32.2277 166.14 32.9139V38.4472Z" fill="white"/>
<path d="M179.702 34.5558L177.02 34.0868C174.69 33.735 174.69 32.7016 174.69 32.3572C174.69 31.2432 175.921 30.4883 177.753 30.4883C178.97 30.4883 181.058 30.7961 181.366 32.8482L181.417 33.1633H183.959V32.7676C183.696 29.367 180.472 28.1577 177.783 28.1577C174.346 28.1577 172.038 29.902 172.038 32.5037C172.038 33.9695 172.771 35.919 176.324 36.4687L179.38 36.9963C179.988 37.0843 181.395 37.4361 181.395 38.7553C181.395 40.0745 180.098 40.7707 178.098 40.7707C175.775 40.7707 174.434 39.8766 174.009 38.125L173.95 37.8318H171.371L171.43 38.2496C171.884 41.4157 174.229 43.1599 178.024 43.1599C181.688 43.1599 184.033 41.3863 184.033 38.638C184.018 36.3954 182.56 35.0249 179.702 34.5558Z" fill="white"/>
<path d="M193.09 28.2162C192.116 28.201 191.148 28.3833 190.246 28.7522C189.344 29.1212 188.526 29.669 187.841 30.3628C187.157 31.0565 186.619 31.8818 186.262 32.7889C185.905 33.6959 185.735 34.6659 185.763 35.6404C185.733 36.6171 185.902 37.5897 186.258 38.4996C186.614 39.4095 187.15 40.238 187.835 40.9351C188.519 41.6321 189.338 42.1834 190.241 42.5557C191.144 42.9279 192.114 43.1135 193.09 43.1012C196.175 43.1012 198.703 41.5181 199.539 39.0776L199.707 38.5866H196.813L196.71 38.7991C196.161 39.9571 194.827 40.6533 193.149 40.6533C192.041 40.6913 190.957 40.3179 190.108 39.6048C189.258 38.8917 188.702 37.8894 188.548 36.791H199.539L199.934 36.9889L199.993 36.4685C200.024 36.174 200.036 35.8778 200.029 35.5817C199.964 31.3163 197.062 28.2162 193.09 28.2162ZM193.032 30.6641C195.296 30.6641 196.864 32.1298 197.216 34.5191H188.548C188.7 33.4418 189.239 32.4568 190.064 31.7476C190.889 31.0384 191.944 30.6533 193.032 30.6641Z" fill="white"/>
</g>
<defs>
<linearGradient id="paint0_linear_240_838" x1="13.9659" y1="56.447" x2="41.8992" y2="8.06682" gradientUnits="userSpaceOnUse">
<stop stop-color="#FF8E00"/>
<stop offset="1" stop-color="#F06900"/>
</linearGradient>
<clipPath id="clip0_240_838">
<rect width="200" height="64.5161" fill="white"/>
</clipPath>
</defs>
</svg>
