<svg width="146" height="48" viewBox="0 0 146 48" fill="none" xmlns="http://www.w3.org/2000/svg">
<path d="M40.4959 12.3104L20.2506 23.9999V47.379L0 35.6895V12.3104L20.2506 0.620789L40.4959 12.3104ZM30.5831 41.428L40.4959 35.6895V24.2815L30.5831 30.0094V41.428Z" fill="url(#paint0_linear_388_2415)"/>
<path d="M63.2166 21.0138C62.0047 20.9997 60.8249 21.4031 59.8752 22.1562V21.3432H57.9043V31.5981H59.8645V24.5313C60.2189 24.0403 60.6818 23.6377 61.2171 23.3547C61.7524 23.0718 62.3458 22.9162 62.951 22.9001C64.6456 22.9001 65.655 23.9627 65.655 25.8118V31.5981H67.6205V25.7534C67.6259 22.9054 65.8728 21.0138 63.2166 21.0138Z" fill="#020214"/>
<path d="M74.5856 21.0775C73.5127 21.0797 72.4647 21.4003 71.5742 21.9987C70.6838 22.5972 69.991 23.4466 69.5836 24.4392C69.1762 25.4319 69.0726 26.5232 69.2859 27.5748C69.4992 28.6264 70.0198 29.5911 70.7818 30.3465C71.5437 31.1018 72.5127 31.614 73.566 31.8181C74.6192 32.0221 75.7093 31.9088 76.6981 31.4926C77.6869 31.0764 78.53 30.3759 79.1204 29.48C79.7109 28.5841 80.0221 27.5331 80.0148 26.46C80.0176 25.7484 79.8788 25.0432 79.6064 24.3858C79.334 23.7283 78.9334 23.1316 78.4281 22.6306C77.9227 22.1296 77.3227 21.7343 76.663 21.4676C76.0032 21.201 75.297 21.0684 74.5856 21.0775ZM74.5856 30.0732C74.1194 30.0685 73.6589 29.9707 73.2311 29.7856C72.8032 29.6005 72.4167 29.3317 72.094 28.9952C71.7714 28.6586 71.5192 28.261 71.3523 27.8257C71.1854 27.3904 71.107 26.9261 71.1219 26.46C71.0845 25.9837 71.1461 25.5048 71.3026 25.0534C71.4592 24.602 71.7074 24.1879 72.0317 23.837C72.356 23.4862 72.7494 23.2063 73.187 23.0148C73.6247 22.8234 74.0972 22.7245 74.5749 22.7245C75.0526 22.7245 75.5252 22.8234 75.9628 23.0148C76.4005 23.2063 76.7938 23.4862 77.1181 23.837C77.4424 24.1879 77.6907 24.602 77.8472 25.0534C78.0038 25.5048 78.0653 25.9837 78.028 26.46C78.0428 26.9243 77.9652 27.3869 77.7996 27.8208C77.6339 28.2548 77.3837 28.6514 77.0633 28.9877C76.7429 29.324 76.3589 29.5931 75.9335 29.7795C75.5081 29.9658 75.0499 30.0657 74.5856 30.0732Z" fill="#020214"/>
<path d="M83.7376 22.5599V21.3432H81.7773V31.5981H83.7376V25.0626C84.1075 24.4465 84.6274 23.9342 85.249 23.5737C85.8705 23.2132 86.5732 23.0161 87.2915 23.001H87.5518V21.0775H87.2862C86.6252 21.0711 85.9697 21.1992 85.3596 21.4541C84.7496 21.7089 84.1977 22.0852 83.7376 22.5599Z" fill="#020214"/>
<path d="M93.2464 21.0775C92.5399 21.0665 91.8384 21.1987 91.1844 21.4662C90.5303 21.7336 89.9372 22.1308 89.4407 22.6338C88.9443 23.1368 88.5549 23.7351 88.2959 24.3927C88.037 25.0503 87.9139 25.7536 87.9341 26.4601C87.9125 27.1682 88.0345 27.8733 88.2926 28.533C88.5507 29.1927 88.9396 29.7933 89.436 30.2987C89.9323 30.8041 90.5258 31.2038 91.1806 31.4736C91.8355 31.7435 92.5382 31.8781 93.2464 31.8691C95.4829 31.8691 97.3157 30.7214 97.9213 28.9521L98.0434 28.5961H95.9451L95.8707 28.7501C95.4723 29.5897 94.5054 30.0944 93.2889 30.0944C92.4853 30.122 91.6999 29.8512 91.084 29.3342C90.468 28.8173 90.0651 28.0906 89.9528 27.2943H97.9213L98.2081 27.4377L98.2506 27.0605C98.2617 26.8463 98.2617 26.6317 98.2506 26.4175C98.2294 23.3251 96.1523 21.0775 93.2464 21.0775ZM93.2039 22.8522C94.8454 22.8522 95.9823 23.9149 96.2373 25.6471H89.9528C90.0636 24.8661 90.4544 24.152 91.0525 23.6378C91.6507 23.1236 92.4153 22.8444 93.2039 22.8522Z" fill="#020214"/>
<path d="M105.338 21.0775C104.167 21.0636 103.024 21.4372 102.087 22.1402V16.1041H100.121V31.5981H102.087V30.8064C102.77 31.3057 103.562 31.6367 104.398 31.7724C105.233 31.9081 106.089 31.8447 106.895 31.5874C107.702 31.3302 108.436 30.8862 109.039 30.2917C109.642 29.6971 110.096 28.9688 110.364 28.1657C110.632 27.3627 110.708 26.5077 110.583 25.6702C110.459 24.8327 110.139 24.0362 109.65 23.3456C109.16 22.655 108.514 22.0897 107.765 21.6956C107.016 21.3015 106.184 21.0897 105.338 21.0775ZM102.087 24.4994C102.421 23.9876 102.88 23.5684 103.419 23.2805C103.958 22.9926 104.562 22.8453 105.173 22.8522C106.104 22.888 106.984 23.2829 107.63 23.9541C108.276 24.6253 108.637 25.5206 108.637 26.452C108.637 27.3835 108.276 28.2788 107.63 28.95C106.984 29.6212 106.104 30.0161 105.173 30.0519C104.564 30.0616 103.961 29.9178 103.422 29.6336C102.883 29.3495 102.423 28.9342 102.087 28.426V24.4994Z" fill="#020214"/>
<path d="M120.451 22.119C119.647 21.5294 118.695 21.1742 117.701 21.0929C116.707 21.0115 115.71 21.2072 114.82 21.6583C113.931 22.1093 113.183 22.798 112.662 23.6479C112.14 24.4979 111.863 25.4759 111.863 26.4733C111.863 27.4708 112.14 28.4488 112.662 29.2988C113.183 30.1487 113.931 30.8374 114.82 31.2884C115.71 31.7394 116.707 31.9351 117.701 31.8538C118.695 31.7725 119.647 31.4173 120.451 30.8277V31.5982H122.417V21.3432H120.451V22.119ZM120.451 28.4951C120.112 28.9929 119.656 29.3991 119.122 29.6772C118.588 29.9554 117.993 30.0969 117.391 30.0891C116.46 30.0534 115.58 29.6585 114.934 28.9873C114.288 28.3161 113.928 27.4208 113.928 26.4893C113.928 25.5578 114.288 24.6625 114.934 23.9913C115.58 23.3201 116.46 22.9252 117.391 22.8894C117.993 22.8821 118.587 23.0238 119.121 23.302C119.655 23.5801 120.112 23.986 120.451 24.4835V28.4951Z" fill="#020214"/>
<path d="M130.284 25.6737L128.34 25.3336C126.651 25.0786 126.651 24.3294 126.651 24.0796C126.651 23.272 127.543 22.7247 128.871 22.7247C129.753 22.7247 131.267 22.9479 131.49 24.4356L131.527 24.6641H133.371V24.3772C133.179 21.9118 130.842 21.035 128.892 21.035C126.401 21.035 124.728 22.2996 124.728 24.1859C124.728 25.2486 125.259 26.662 127.835 27.0605L130.051 27.443C130.491 27.5068 131.511 27.7618 131.511 28.7183C131.511 29.6747 130.571 30.1795 129.121 30.1795C127.437 30.1795 126.465 29.5312 126.157 28.2613L126.114 28.0488H124.244L124.287 28.3516C124.616 30.647 126.316 31.9116 129.068 31.9116C131.724 31.9116 133.424 30.6258 133.424 28.6333C133.413 27.0073 132.356 26.0137 130.284 25.6737Z" fill="#020214"/>
<path d="M139.991 21.0775C139.284 21.0665 138.583 21.1987 137.928 21.4662C137.274 21.7336 136.681 22.1308 136.185 22.6338C135.688 23.1368 135.299 23.7351 135.04 24.3927C134.781 25.0503 134.658 25.7536 134.678 26.4601C134.657 27.1682 134.779 27.8733 135.037 28.533C135.295 29.1927 135.684 29.7933 136.18 30.2987C136.676 30.8041 137.27 31.2038 137.925 31.4736C138.58 31.7435 139.282 31.8781 139.991 31.8691C142.227 31.8691 144.06 30.7214 144.665 28.9521L144.788 28.5961H142.689L142.615 28.7501C142.216 29.5897 141.25 30.0944 140.033 30.0944C139.229 30.122 138.444 29.8512 137.828 29.3342C137.212 28.8173 136.809 28.0906 136.697 27.2943H144.665L144.952 27.4377L144.995 27.0605C145.017 26.8469 145.026 26.6322 145.021 26.4175C144.974 23.3251 142.87 21.0775 139.991 21.0775ZM139.948 22.8522C141.59 22.8522 142.726 23.9149 142.981 25.6471H136.697C136.808 24.8661 137.199 24.152 137.797 23.6378C138.395 23.1236 139.159 22.8444 139.948 22.8522Z" fill="#020214"/>
<defs>
<linearGradient id="paint0_linear_388_2415" x1="10.1253" y1="41.5449" x2="30.3769" y2="6.46923" gradientUnits="userSpaceOnUse">
<stop stop-color="#FF8E00"/>
<stop offset="1" stop-color="#F06900"/>
</linearGradient>
</defs>
</svg>
