<svg xmlns="http://www.w3.org/2000/svg" width="191.544" height="39.462" viewBox="0 0 191.544 39.462">
  <defs>
    <style>
      .cls-1 {
        fill-rule: evenodd;
      }

      .cls-2 {
        fill: #1f1f30;
      }
    </style>
  </defs>
  <g id="Group_2" data-name="Group 2" transform="translate(-88.072 -32.304)">
    <path id="mercury-logo_1_" data-name="mercury-logo (1)" class="cls-1" d="M27.648,33.1a6.145,6.145,0,0,0-2.132-5.722,6.989,6.989,0,0,0-4.568-1.67,6.465,6.465,0,0,1-2.823-.64h0a6.059,6.059,0,0,1-2.679-2.525h0a7.049,7.049,0,0,0,.517-2.659A4.564,4.564,0,0,0,17.44,23.22,5.164,5.164,0,0,0,21,24.581a4.847,4.847,0,0,0,4.9-4.7,7.027,7.027,0,0,1,.517-2.659v0a7.412,7.412,0,0,1,1.77-2.6,8.21,8.21,0,0,1,6.093-2.244,15.251,15.251,0,0,0-5.362-5.062,7.184,7.184,0,0,1-1.589,4.867,10,10,0,0,0-.985-.645A6.117,6.117,0,0,0,27.73,7.668a6.014,6.014,0,0,0-.5-2.42,6.8,6.8,0,0,0-6.1-3.967c-.06,0-.12,0-.181,0s-.119,0-.179,0a20.645,20.645,0,0,0-4.957.637A19.28,19.28,0,0,0,1.873,15.043,7.233,7.233,0,0,0,0,19.679C.114,8.943,9.333.261,20.731.153c.072,0,.144,0,.215,0q.146,0,.292,0c11.346.164,20.5,8.825,20.617,19.526,0,.068,0,.135,0,.2s0,.135,0,.2a7.233,7.233,0,0,1-1.873,4.637,8.161,8.161,0,0,1-5.7,2.668,8.286,8.286,0,0,1-5.19-1.5,9.919,9.919,0,0,1-1.771,1.674l.013.016a7.184,7.184,0,0,1,1.589,4.869,15.251,15.251,0,0,0,5.36-5.064,8.533,8.533,0,0,0,1.485-.2,16.546,16.546,0,0,1-8.574,7.329,17.543,17.543,0,0,1-6.278,1.149,3.867,3.867,0,0,1-3.008-1.4,3.418,3.418,0,0,1,.555-4.888,10.925,10.925,0,0,0,2.454.276,2.448,2.448,0,1,0,0,4.886h.037a2.448,2.448,0,1,0,0-4.886,10.59,10.59,0,0,1-8.178-3.76,7.558,7.558,0,0,0,.9-.748,9.1,9.1,0,0,0,2.708,2.232,9.58,9.58,0,0,0,4.568,1.148,3.92,3.92,0,0,1,2.454.852,3.418,3.418,0,0,1,.56,4.881A16.1,16.1,0,0,0,27.648,33.1Zm8.531-16.052a13.987,13.987,0,0,0-1.219-3.473,6.99,6.99,0,0,0-6.091,2.006,6.158,6.158,0,0,0-1.772,4.3,5.531,5.531,0,0,1-.68,2.658v0a6.058,6.058,0,0,1-2.664,2.516l.02.006h0a7.992,7.992,0,0,1,2.747,1.653,8.88,8.88,0,0,0,2.349-2.532,8.228,8.228,0,0,0,1.219-4.3,3.436,3.436,0,0,1,.9-2.312,3.948,3.948,0,0,1,5.188-.524Zm.292,2.731a2.536,2.536,0,0,0-2.7-2.344,2.507,2.507,0,0,0-2.491,2.535,2.536,2.536,0,0,0,2.7,2.344A2.507,2.507,0,0,0,36.47,19.778ZM30.991,22.2a9.364,9.364,0,0,1-1.218,2.77,7.011,7.011,0,0,0,4.1,1.307,7.088,7.088,0,0,0,2.569-.475,6.423,6.423,0,0,0,4.212-5.745c0-.057,0-.113,0-.169s0-.113,0-.17a17.479,17.479,0,0,0-.676-4.67A19.275,19.275,0,0,0,26.1,1.934a7.457,7.457,0,0,1,2.606,3.981,16.263,16.263,0,0,1,7.738,8.056,14.891,14.891,0,0,1,1.22,5.914,3.5,3.5,0,0,1-1.489,2.833,3.948,3.948,0,0,1-5.188-.521ZM20.618,39.61C9.274,39.447.116,30.785,0,20.084c0-.066,0-.135,0-.2s0-.135,0-.2a7.233,7.233,0,0,1,1.873-4.637,8.161,8.161,0,0,1,5.7-2.668,8.286,8.286,0,0,1,5.19,1.5A9.919,9.919,0,0,1,14.54,12.2a7.185,7.185,0,0,1-1.6-4.885,15.251,15.251,0,0,0-5.36,5.064,8.533,8.533,0,0,0-1.485.2,16.546,16.546,0,0,1,8.574-7.328A17.543,17.543,0,0,1,20.945,4.1a3.867,3.867,0,0,1,3.008,1.4,3.418,3.418,0,0,1-.555,4.888,10.964,10.964,0,0,0-2.454-.277,2.522,2.522,0,0,0,2.594-2.443,2.521,2.521,0,0,0-2.594-2.444h-.037a2.522,2.522,0,0,0-2.594,2.443,2.522,2.522,0,0,0,2.594,2.444,10.59,10.59,0,0,1,8.178,3.759,7.654,7.654,0,0,0-.9.748,9.1,9.1,0,0,0-2.708-2.232,9.58,9.58,0,0,0-4.568-1.148,3.915,3.915,0,0,1-2.454-.852,3.418,3.418,0,0,1-.56-4.88,16.1,16.1,0,0,0-3.686,1.157,6.145,6.145,0,0,0,2.132,5.722,6.988,6.988,0,0,0,4.568,1.671,6.459,6.459,0,0,1,2.823.641h0a6.059,6.059,0,0,1,2.679,2.524v0a7.049,7.049,0,0,0-.517,2.658,4.564,4.564,0,0,0-1.481-3.337,5.164,5.164,0,0,0-3.562-1.36,4.847,4.847,0,0,0-4.9,4.7,7.02,7.02,0,0,1-.517,2.658v0a7.427,7.427,0,0,1-1.77,2.6A8.21,8.21,0,0,1,7.579,27.39a15.251,15.251,0,0,0,5.362,5.064,7.184,7.184,0,0,1,1.589-4.867,9.817,9.817,0,0,0,.985.644A6.117,6.117,0,0,0,14.128,32.1a6.014,6.014,0,0,0,.5,2.42,6.81,6.81,0,0,0,6.278,3.968c.059,0,.119,0,.179,0a20.706,20.706,0,0,0,4.957-.636A19.28,19.28,0,0,0,39.983,24.722a7.233,7.233,0,0,0,1.873-4.638c-.114,10.736-9.333,19.42-20.731,19.527H20.7l-.076,0Zm-4.863-1.778a7.458,7.458,0,0,1-2.607-3.981A16.263,16.263,0,0,1,5.41,25.8a14.884,14.884,0,0,1-1.22-5.914,3.5,3.5,0,0,1,1.489-2.834,3.948,3.948,0,0,1,5.188.521,9.364,9.364,0,0,1,1.218-2.77,7.011,7.011,0,0,0-4.1-1.306,7.088,7.088,0,0,0-2.569.475A6.423,6.423,0,0,0,1.2,19.713c0,.057,0,.113,0,.17a17.476,17.476,0,0,0,.679,4.838A19.275,19.275,0,0,0,15.754,37.832ZM6.9,26.191a7.447,7.447,0,0,0,1.08.08,6.938,6.938,0,0,0,5.01-2.086,6.158,6.158,0,0,0,1.774-4.3,5.53,5.53,0,0,1,.68-2.659v0A6.058,6.058,0,0,1,18.1,14.706l-.018-.007h0a8,8,0,0,1-2.747-1.653,8.88,8.88,0,0,0-2.349,2.534,8.228,8.228,0,0,0-1.219,4.3,3.433,3.433,0,0,1-.9,2.311,3.948,3.948,0,0,1-5.188.524A13.987,13.987,0,0,0,6.9,26.19Zm-1.511-6.2a2.536,2.536,0,0,0,2.7,2.343,2.507,2.507,0,0,0,2.49-2.536,2.536,2.536,0,0,0-2.7-2.343,2.507,2.507,0,0,0-2.49,2.536Z" transform="translate(88.072 32.153)"/>
    <path id="Path_1" data-name="Path 1" class="cls-2" d="M1.2,6.566H4.249v-11.2L9.762,5.59,15.3-4.631v11.2h3.025V-10.192H15.3L9.762.029,4.249-10.192H1.2ZM37.547-7.411v-2.781H24.935V6.566H37.547V3.785H27.984V-.581h8.66V-3.362h-8.66V-7.411ZM57.086,6.566,52.89.614A5.441,5.441,0,0,0,56.94-4.631c0-3.269-2.683-5.562-6.269-5.562H43.377V6.566h3.049V.931H49.67l3.952,5.635ZM46.426-7.387h3.9c2.073,0,3.513,1.049,3.513,2.756S52.4-1.874,50.329-1.874h-3.9ZM70.771,6.859a8.736,8.736,0,0,0,6.318-2.732l-2.147-2a5.562,5.562,0,0,1-4.171,1.951,5.87,5.87,0,0,1-5.708-5.9A5.865,5.865,0,0,1,70.771-7.7a5.511,5.511,0,0,1,4.147,1.951l2.171-2.025a8.81,8.81,0,0,0-6.318-2.708,8.836,8.836,0,0,0-8.806,8.66A8.857,8.857,0,0,0,70.771,6.859Zm19,0a7.108,7.108,0,0,0,7.391-7.44v-9.611H94.14V-.679C94.14,2.1,92.335,4.1,89.774,4.1c-2.537,0-4.342-2-4.342-4.781v-9.514H82.382V-.581A7.122,7.122,0,0,0,89.774,6.859Zm27.516-.293-4.2-5.952a5.441,5.441,0,0,0,4.049-5.245c0-3.269-2.683-5.562-6.269-5.562H103.58V6.566h3.049V.931h3.244l3.952,5.635ZM106.63-7.387h3.9c2.073,0,3.513,1.049,3.513,2.756s-1.439,2.756-3.513,2.756h-3.9ZM127,6.566h3.1V.273l6.611-10.465h-3.464L128.56-2.606l-4.61-7.586h-3.586L127,.273Z" transform="translate(142.909 53.848)"/>
  </g>
</svg>
