<svg width="104" height="18" viewBox="0 0 104 18" fill="none" xmlns="http://www.w3.org/2000/svg">
<g clip-path="url(#clip0_252_401)">
<path d="M19.4527 11.9867C19.498 13.1056 19.8458 14.0053 20.496 14.6857C21.1462 15.3662 22.0534 15.7064 23.2177 15.7064C23.747 15.7064 24.2081 15.6459 24.6013 15.5249C24.9944 15.4039 25.3271 15.2376 25.5992 15.0259C25.8866 14.8142 26.1134 14.5723 26.2797 14.3002C26.4611 14.0128 26.6048 13.7105 26.7106 13.3929L28.389 13.8465C28.0714 14.8899 27.4817 15.7442 26.6199 16.4095C25.7731 17.0597 24.624 17.3848 23.1724 17.3848C22.371 17.3848 21.6301 17.2487 20.9497 16.9765C20.2843 16.6892 19.7097 16.2885 19.2259 15.7744C18.742 15.2603 18.364 14.6479 18.0919 13.9373C17.8197 13.2266 17.6836 12.4403 17.6836 11.5785V11.0341C17.6836 10.2478 17.8197 9.51447 18.0919 8.83402C18.3791 8.15358 18.7723 7.5715 19.2713 7.08761C19.7703 6.58863 20.3524 6.20305 21.0177 5.93088C21.6981 5.64359 22.4314 5.49994 23.2177 5.49994C24.1401 5.49994 24.934 5.67383 25.5992 6.02161C26.2797 6.35426 26.8316 6.77007 27.2549 7.26906C27.6934 7.76802 28.011 8.31239 28.2075 8.90209C28.4192 9.4918 28.5251 10.0361 28.5251 10.5351V11.9867H19.4527ZM23.2177 7.17833C22.7188 7.17833 22.25 7.26149 21.8115 7.42782C21.3882 7.57905 21.0101 7.79825 20.6774 8.08558C20.36 8.37284 20.0954 8.71306 19.8837 9.10624C19.6871 9.48424 19.5586 9.90002 19.498 10.3537H26.756C26.7257 9.8698 26.6048 9.43128 26.3931 9.03817C26.1965 8.64506 25.9319 8.31239 25.5992 8.04024C25.2817 7.76802 24.9112 7.55632 24.4879 7.40514C24.0796 7.25393 23.6563 7.17833 23.2177 7.17833Z" fill="white"/>
<path d="M33.4541 8.72062C33.4541 9.26498 33.6809 9.68077 34.1345 9.96809C34.6033 10.2554 35.45 10.4444 36.6748 10.5351C37.9903 10.641 38.9883 10.9585 39.6687 11.4877C40.3643 12.0018 40.712 12.7579 40.712 13.7558V13.8919C40.712 14.4362 40.5986 14.9277 40.3718 15.3662C40.1601 15.7895 39.8577 16.1524 39.4646 16.4548C39.0866 16.7573 38.6178 16.9841 38.0583 17.1353C37.514 17.3016 36.9167 17.3848 36.2666 17.3848C35.3895 17.3848 34.6335 17.2714 33.9985 17.0445C33.3785 16.8026 32.8568 16.4926 32.4334 16.1146C32.0252 15.7215 31.7152 15.283 31.5035 14.7991C31.2919 14.3002 31.1709 13.8011 31.1406 13.3022L32.8191 12.8939C32.8946 13.7558 33.2273 14.4514 33.817 14.9806C34.4067 15.4947 35.193 15.7517 36.1758 15.7517C37.0074 15.7517 37.6728 15.593 38.1717 15.2754C38.6858 14.9428 38.9429 14.4816 38.9429 13.8919C38.9429 13.2568 38.6934 12.8032 38.1944 12.5311C37.6954 12.2588 36.8865 12.085 35.7676 12.0094C34.4672 11.9186 33.4692 11.6162 32.7737 11.1022C32.0781 10.588 31.7303 9.83957 31.7303 8.85669V8.72062C31.7303 8.19143 31.8437 7.73024 32.0706 7.33709C32.2974 6.92884 32.5998 6.58863 32.9778 6.31646C33.3709 6.04429 33.8094 5.84015 34.2933 5.70407C34.7771 5.56798 35.2837 5.49994 35.8129 5.49994C36.5538 5.49994 37.204 5.60578 37.7635 5.81747C38.3229 6.01404 38.7917 6.27866 39.1697 6.61131C39.5477 6.92884 39.835 7.29929 40.0316 7.72269C40.2433 8.14602 40.3794 8.56943 40.4398 8.99283L38.7614 9.40106C38.6858 8.67528 38.391 8.10824 37.8769 7.70002C37.3779 7.29174 36.7202 7.08761 35.9037 7.08761C35.5861 7.08761 35.2761 7.12541 34.9737 7.20101C34.6864 7.26149 34.4294 7.35978 34.2026 7.49587C33.9757 7.63195 33.7943 7.80587 33.6583 8.0175C33.5221 8.21409 33.4541 8.44846 33.4541 8.72062Z" fill="white"/>
<path d="M43.2461 5.81736H46.7843V1.19044H48.5534V5.81736H52.9082V7.4504H48.5534V14.7537C48.5534 15.2073 48.7576 15.4341 49.1658 15.4341H52.3639V17.0671H48.5308C48.0167 17.0671 47.5933 16.9008 47.2606 16.5681C46.9431 16.2354 46.7843 15.8121 46.7843 15.298V7.4504H43.2461V5.81736Z" fill="white"/>
<path d="M66.366 13.0754C66.245 13.6954 66.0334 14.2699 65.731 14.7991C65.4437 15.3283 65.0732 15.7895 64.6196 16.1827C64.166 16.5607 63.6367 16.8555 63.0319 17.0672C62.4271 17.2789 61.7542 17.3848 61.0133 17.3848C60.227 17.3848 59.4786 17.2562 58.7679 16.9992C58.0724 16.7421 57.46 16.3717 56.9307 15.8878C56.4015 15.3888 55.9781 14.784 55.6606 14.0734C55.3582 13.3627 55.207 12.5462 55.207 11.6238V11.3516C55.207 10.4444 55.3582 9.62787 55.6606 8.90209C55.9781 8.17631 56.4015 7.56388 56.9307 7.06492C57.46 6.56595 58.0724 6.18037 58.7679 5.9082C59.4786 5.63603 60.227 5.49994 61.0133 5.49994C61.724 5.49994 62.3818 5.60578 62.9866 5.81747C63.5914 6.02916 64.1206 6.33158 64.5742 6.72471C65.043 7.10272 65.421 7.55632 65.7083 8.08558C66.0107 8.61476 66.2148 9.18936 66.3207 9.80935L64.5515 10.2176C64.5062 9.82446 64.3928 9.4464 64.2113 9.08351C64.045 8.7055 63.8107 8.38039 63.5082 8.10824C63.221 7.82098 62.8656 7.59417 62.4422 7.42782C62.0188 7.26149 61.5274 7.17833 60.968 7.17833C60.4236 7.17833 59.9095 7.28418 59.4256 7.49587C58.9569 7.69246 58.5411 7.97972 58.1782 8.35773C57.8153 8.72062 57.528 9.15913 57.3164 9.67321C57.1198 10.1874 57.0215 10.7468 57.0215 11.3516V11.6238C57.0215 12.2588 57.1198 12.8334 57.3164 13.3476C57.528 13.8465 57.8153 14.2699 58.1782 14.6177C58.5411 14.9654 58.9645 15.2376 59.4484 15.4342C59.9322 15.6157 60.4539 15.7064 61.0133 15.7064C61.5728 15.7064 62.0567 15.6232 62.4649 15.4569C62.8883 15.2754 63.2436 15.0486 63.5309 14.7765C63.8333 14.4891 64.0677 14.1641 64.234 13.8011C64.4155 13.4382 64.5364 13.0602 64.5969 12.6671L66.366 13.0754Z" fill="white"/>
<path d="M78.7915 11.5785C78.7915 12.5159 78.6325 13.3476 78.3151 14.0734C78.0129 14.784 77.6048 15.3888 77.0904 15.8878C76.5766 16.3717 75.9714 16.7421 75.2762 16.9992C74.5955 17.2562 73.8846 17.3848 73.1441 17.3848C72.3878 17.3848 71.6697 17.2562 70.989 16.9992C70.3089 16.7421 69.7117 16.3717 69.1972 15.8878C68.6834 15.3888 68.2675 14.784 67.9501 14.0734C67.6479 13.3476 67.4961 12.5159 67.4961 11.5785V11.3062C67.4961 10.3839 67.6479 9.56736 67.9501 8.85669C68.2675 8.13091 68.6834 7.51854 69.1972 7.01956C69.7268 6.52058 70.3313 6.14257 71.012 5.88552C71.692 5.62846 72.403 5.49994 73.1441 5.49994C73.8846 5.49994 74.5955 5.62846 75.2762 5.88552C75.9563 6.14257 76.5536 6.52058 77.068 7.01956C77.597 7.51854 78.0129 8.13091 78.3151 8.85669C78.6325 9.56736 78.7915 10.3839 78.7915 11.3062V11.5785ZM73.1441 15.7064C73.6882 15.7064 74.1875 15.6157 74.6409 15.4342C75.1094 15.2376 75.518 14.9579 75.8656 14.595C76.2132 14.2321 76.4859 13.8011 76.6823 13.3022C76.8788 12.7881 76.9767 12.2135 76.9767 11.5785V11.3062C76.9767 10.7014 76.8788 10.1495 76.6823 9.65054C76.4859 9.13646 76.2132 8.69795 75.8656 8.33506C75.518 7.97217 75.1094 7.69246 74.6409 7.49587C74.1724 7.28418 73.673 7.17833 73.1441 7.17833C72.6145 7.17833 72.1158 7.28418 71.6467 7.49587C71.1782 7.69246 70.7702 7.97217 70.4219 8.33506C70.0744 8.69795 69.8024 9.13646 69.6059 9.65054C69.4094 10.1495 69.3109 10.7014 69.3109 11.3062V11.5785C69.3109 12.2135 69.4094 12.7881 69.6059 13.3022C69.8024 13.8011 70.0744 14.2321 70.4219 14.595C70.7702 14.9579 71.171 15.2376 71.6244 15.4342C72.0928 15.6157 72.5994 15.7064 73.1441 15.7064Z" fill="white"/>
<path d="M83.9884 2.46065C83.9884 2.02215 84.1396 1.65169 84.4418 1.34928C84.7598 1.03175 85.1376 0.872982 85.5759 0.872982C86.0148 0.872982 86.3847 1.03175 86.6876 1.34928C87.005 1.65169 87.164 2.02215 87.164 2.46065C87.164 2.89915 87.005 3.27716 86.6876 3.59469C86.3847 3.89711 86.0148 4.04832 85.5759 4.04832C85.1376 4.04832 84.7598 3.89711 84.4418 3.59469C84.1396 3.27716 83.9884 2.89915 83.9884 2.46065ZM80.7676 15.4342H84.7145V7.45046H81.1763V5.81743H86.4833V15.4342H90.1575V17.0672H80.7676V15.4342Z" fill="white"/>
<path d="M95.0344 17.0672H93.2656V5.81747H95.0344V7.72269H95.3064C96.0022 6.24085 97.2119 5.49994 98.9353 5.49994C100.236 5.49994 101.272 5.9082 102.043 6.72471C102.814 7.5261 103.2 8.73573 103.2 10.3537V17.0672H101.431V10.7165C101.431 9.53713 101.166 8.65261 100.636 8.06291C100.108 7.4732 99.3894 7.17833 98.482 7.17833C97.4083 7.17833 96.5614 7.54876 95.9418 8.28972C95.3367 9.0155 95.0344 9.99076 95.0344 11.2156V17.0672Z" fill="white"/>
<path d="M6.04685 2.88246V2.81013V1.33674L0.701172 4.60291V6.07565V6.14862V7.62137L6.04685 4.35585V2.88246Z" fill="white"/>
<path d="M0.701172 9.18245V17.1171H6.04685V5.76975L0.701172 9.18245Z" fill="white"/>
<path d="M11.2697 2.839L6.04688 5.76978L9.66247 9.18252V17.1172H15.0082V5.76978L11.2697 2.839Z" fill="white"/>
</g>
<defs>
<clipPath id="clip0_252_401">
<rect width="102.5" height="17.0833" fill="white" transform="translate(0.701172 0.872986)"/>
</clipPath>
</defs>
</svg>
