<svg width="83" height="15" viewBox="0 0 83 15" fill="none" xmlns="http://www.w3.org/2000/svg">
<g clip-path="url(#clip0_471_977)">
<path d="M15.1807 9.21969C15.217 10.1159 15.4955 10.8365 16.0163 11.3815C16.5371 11.9265 17.2638 12.199 18.1963 12.199C18.6202 12.199 18.9896 12.1506 19.3045 12.0537C19.6194 11.9568 19.8858 11.8236 20.1038 11.654C20.3339 11.4845 20.5156 11.2907 20.6488 11.0727C20.7942 10.8426 20.9092 10.6004 20.994 10.346L22.3383 10.7094C22.084 11.545 21.6116 12.2293 20.9213 12.7622C20.2431 13.2829 19.3226 13.5433 18.16 13.5433C17.5181 13.5433 16.9247 13.4343 16.3797 13.2163C15.8468 12.9862 15.3865 12.6653 14.999 12.2535C14.6114 11.8417 14.3087 11.3513 14.0907 10.782C13.8727 10.2128 13.7637 9.58303 13.7637 8.89271V8.4567C13.7637 7.82691 13.8727 7.23953 14.0907 6.69452C14.3208 6.14951 14.6357 5.68329 15.0354 5.29571C15.435 4.89605 15.9013 4.58721 16.4341 4.36921C16.9791 4.13911 17.5665 4.02405 18.1963 4.02405C18.9351 4.02405 19.5709 4.16333 20.1038 4.44188C20.6488 4.70832 21.0909 5.04138 21.4299 5.44104C21.7812 5.8407 22.0355 6.27671 22.1929 6.74904C22.3625 7.22138 22.4473 7.65734 22.4473 8.05704V9.21969H15.1807ZM18.1963 5.36838C17.7967 5.36838 17.4212 5.43499 17.07 5.56821C16.7309 5.68934 16.4281 5.8649 16.1616 6.09504C15.9073 6.32513 15.6954 6.59764 15.5258 6.91256C15.3684 7.21532 15.2654 7.54835 15.217 7.91169H21.0303C21.0061 7.52414 20.9092 7.17291 20.7396 6.85804C20.5822 6.54317 20.3702 6.27671 20.1038 6.05873C19.8495 5.8407 19.5527 5.67113 19.2137 5.55004C18.8866 5.42893 18.5475 5.36838 18.1963 5.36838Z" fill="black"/>
<path d="M26.396 6.60369C26.396 7.03971 26.5776 7.37273 26.941 7.60287C27.3164 7.83296 27.9946 7.98437 28.9756 8.05704C30.0293 8.14183 30.8286 8.39612 31.3736 8.82004C31.9307 9.23179 32.2093 9.83738 32.2093 10.6367V10.7457C32.2093 11.1817 32.1185 11.5753 31.9368 11.9265C31.7672 12.2656 31.525 12.5563 31.2101 12.7985C30.9074 13.0407 30.5319 13.2224 30.0838 13.3435C29.6478 13.4767 29.1694 13.5433 28.6486 13.5433C27.9462 13.5433 27.3406 13.4525 26.832 13.2708C26.3354 13.0771 25.9176 12.8288 25.5785 12.526C25.2515 12.2111 25.0032 11.8599 24.8336 11.4723C24.6641 11.0727 24.5672 10.673 24.543 10.2733L25.8873 9.94637C25.9479 10.6367 26.2143 11.1938 26.6866 11.6177C27.159 12.0295 27.7888 12.2353 28.576 12.2353C29.2421 12.2353 29.775 12.1082 30.1746 11.8538C30.5864 11.5874 30.7923 11.218 30.7923 10.7457C30.7923 10.237 30.5924 9.87369 30.1928 9.65571C29.7931 9.43767 29.1452 9.29842 28.249 9.23784C27.2074 9.16517 26.4081 8.92298 25.851 8.51122C25.2939 8.09941 25.0153 7.49993 25.0153 6.71268V6.60369C25.0153 6.17983 25.1061 5.81044 25.2878 5.49554C25.4695 5.16855 25.7117 4.89605 26.0145 4.67805C26.3294 4.46005 26.6806 4.29655 27.0681 4.18755C27.4557 4.07855 27.8614 4.02405 28.2853 4.02405C28.8787 4.02405 29.3995 4.10883 29.8476 4.27838C30.2957 4.43583 30.6712 4.64777 30.9739 4.91421C31.2767 5.16855 31.5068 5.46526 31.6643 5.80438C31.8339 6.14346 31.9428 6.48259 31.9913 6.82172L30.647 7.1487C30.5864 6.56737 30.3502 6.1132 29.9384 5.78623C29.5388 5.45921 29.012 5.29571 28.358 5.29571C28.1036 5.29571 27.8553 5.32599 27.6131 5.38654C27.383 5.43499 27.1771 5.51371 26.9955 5.62271C26.8138 5.73171 26.6685 5.87101 26.5595 6.04052C26.4504 6.19798 26.396 6.38571 26.396 6.60369Z" fill="black"/>
<path d="M34.2383 4.27828H37.0723V0.572296H38.4893V4.27828H41.9772V5.58629H38.4893V11.4359C38.4893 11.7993 38.6528 11.9809 38.9797 11.9809H41.5413V13.2889H38.4711C38.0593 13.2889 37.7202 13.1557 37.4538 12.8892C37.1994 12.6228 37.0723 12.2837 37.0723 11.8719V5.58629H34.2383V4.27828Z" fill="black"/>
<path d="M52.7563 10.0917C52.6594 10.5883 52.4899 11.0484 52.2476 11.4723C52.0175 11.8962 51.7208 12.2656 51.3575 12.5805C50.9942 12.8833 50.5702 13.1194 50.0858 13.289C49.6014 13.4586 49.0624 13.5433 48.469 13.5433C47.8392 13.5433 47.2397 13.4404 46.6705 13.2345C46.1134 13.0286 45.6229 12.7319 45.199 12.3443C44.7751 11.9447 44.436 11.4602 44.1816 10.891C43.9395 10.3218 43.8184 9.66781 43.8184 8.92903V8.71104C43.8184 7.98437 43.9395 7.33037 44.1816 6.74904C44.436 6.16772 44.7751 5.67718 45.199 5.27754C45.6229 4.87788 46.1134 4.56905 46.6705 4.35105C47.2397 4.13305 47.8392 4.02405 48.469 4.02405C49.0382 4.02405 49.5651 4.10883 50.0495 4.27838C50.5339 4.44793 50.9578 4.69016 51.3211 5.00504C51.6966 5.30782 51.9993 5.67113 52.2295 6.09504C52.4717 6.51891 52.6352 6.97913 52.72 7.47572L51.303 7.8027C51.2667 7.48783 51.1758 7.18501 51.0305 6.89435C50.8973 6.59158 50.7095 6.33118 50.4673 6.1132C50.2372 5.88311 49.9526 5.70144 49.6135 5.56821C49.2743 5.43499 48.8807 5.36838 48.4327 5.36838C47.9967 5.36838 47.5849 5.45315 47.1973 5.62271C46.8219 5.78018 46.4888 6.01026 46.1982 6.31303C45.9075 6.60369 45.6774 6.95492 45.5079 7.36668C45.3504 7.77849 45.2717 8.22661 45.2717 8.71104V8.92903C45.2717 9.43767 45.3504 9.8979 45.5079 10.3097C45.6774 10.7094 45.9075 11.0484 46.1982 11.327C46.4888 11.6055 46.828 11.8236 47.2155 11.981C47.6031 12.1263 48.0209 12.199 48.469 12.199C48.9171 12.199 49.3047 12.1324 49.6316 11.9992C49.9708 11.8538 50.2554 11.6722 50.4855 11.4542C50.7277 11.2241 50.9154 10.9637 51.0486 10.673C51.194 10.3823 51.2909 10.0796 51.3393 9.7647L52.7563 10.0917Z" fill="black"/>
<path d="M62.7093 8.89271C62.7093 9.6436 62.5819 10.3097 62.3277 10.891C62.0856 11.4602 61.7588 11.9447 61.3468 12.3443C60.9352 12.7319 60.4505 13.0286 59.8937 13.2345C59.3485 13.4404 58.7791 13.5433 58.186 13.5433C57.5802 13.5433 57.005 13.4404 56.4598 13.2345C55.9151 13.0286 55.4367 12.7319 55.0246 12.3443C54.6131 11.9447 54.28 11.4602 54.0258 10.891C53.7837 10.3097 53.6621 9.6436 53.6621 8.89271V8.67468C53.6621 7.9359 53.7837 7.2819 54.0258 6.71268C54.28 6.13136 54.6131 5.64087 55.0246 5.24121C55.4488 4.84155 55.933 4.53877 56.4782 4.33288C57.0229 4.12699 57.5923 4.02405 58.186 4.02405C58.7791 4.02405 59.3485 4.12699 59.8937 4.33288C60.4384 4.53877 60.9168 4.84155 61.3289 5.24121C61.7525 5.64087 62.0856 6.13136 62.3277 6.71268C62.5819 7.2819 62.7093 7.9359 62.7093 8.67468V8.89271ZM58.186 12.199C58.6217 12.199 59.0217 12.1263 59.3848 11.981C59.76 11.8236 60.0874 11.5995 60.3658 11.3088C60.6442 11.0182 60.8626 10.673 61.0199 10.2733C61.1773 9.86158 61.2557 9.40136 61.2557 8.89271V8.67468C61.2557 8.19024 61.1773 7.74818 61.0199 7.34852C60.8626 6.93677 60.6442 6.58553 60.3658 6.29487C60.0874 6.00421 59.76 5.78018 59.3848 5.62271C59.0096 5.45315 58.6096 5.36838 58.186 5.36838C57.7618 5.36838 57.3623 5.45315 56.9866 5.62271C56.6113 5.78018 56.2845 6.00421 56.0056 6.29487C55.7272 6.58553 55.5093 6.93677 55.352 7.34852C55.1946 7.74818 55.1157 8.19024 55.1157 8.67468V8.89271C55.1157 9.40136 55.1946 9.86158 55.352 10.2733C55.5093 10.673 55.7272 11.0182 56.0056 11.3088C56.2845 11.5995 56.6056 11.8236 56.9687 11.981C57.3439 12.1263 57.7497 12.199 58.186 12.199Z" fill="black"/>
<path d="M66.8708 1.58968C66.8708 1.23847 66.9918 0.941742 67.2339 0.699522C67.4887 0.445189 67.7913 0.318024 68.1423 0.318024C68.4938 0.318024 68.7901 0.445189 69.0327 0.699522C69.2869 0.941742 69.4143 1.23847 69.4143 1.58968C69.4143 1.9409 69.2869 2.24368 69.0327 2.49801C68.7901 2.74023 68.4938 2.86135 68.1423 2.86135C67.7913 2.86135 67.4887 2.74023 67.2339 2.49801C66.9918 2.24368 66.8708 1.9409 66.8708 1.58968ZM64.291 11.981H67.4523V5.58634H64.6184V4.27834H68.8691V11.981H71.812V13.289H64.291V11.981Z" fill="black"/>
<path d="M75.7195 13.289H74.3027V4.27838H75.7195V5.80438H75.9373C76.4947 4.61749 77.4635 4.02405 78.8439 4.02405C79.886 4.02405 80.7154 4.35105 81.3332 5.00504C81.9505 5.64692 82.2595 6.61579 82.2595 7.91169V13.289H80.8427V8.20235C80.8427 7.25769 80.6306 6.54922 80.2065 6.07689C79.7828 5.60456 79.2076 5.36838 78.4808 5.36838C77.6209 5.36838 76.9425 5.66508 76.4462 6.25856C75.9615 6.83988 75.7195 7.62103 75.7195 8.60205V13.289Z" fill="black"/>
<path d="M4.44379 1.92754V1.86961V0.689484L0.162109 3.30556V4.48517V4.54362V5.72323L4.44379 3.10767V1.92754Z" fill="black"/>
<path d="M0.162109 6.97359V13.329H4.44379V4.24014L0.162109 6.97359Z" fill="black"/>
<path d="M8.62663 1.89273L4.44336 4.24017L7.33932 6.97364V13.329H11.621V4.24017L8.62663 1.89273Z" fill="black"/>
</g>
<defs>
<clipPath id="clip0_471_977">
<rect width="82.0987" height="13.6831" fill="white" transform="translate(0.162109 0.318024)"/>
</clipPath>
</defs>
</svg>
