<svg width="32" height="32" viewBox="0 0 32 32" fill="none" xmlns="http://www.w3.org/2000/svg">
<circle cx="16" cy="16" r="16" fill="#FFF0EA"/>
<path d="M26 17.4708C26 16.9032 25.5386 16.4418 24.971 16.4418H21.9453C19.4096 16.4418 17.3557 18.4916 17.3434 21.0232C17.3393 22.3422 16.4042 23.5141 15.0976 23.6774C13.5296 23.8734 12.1903 22.6484 12.1903 21.1212V18.8183C14.5423 18.3405 16.3144 16.2621 16.3144 13.7672V11.1539C16.3144 10.7823 16.0163 10.4843 15.6448 10.4843H14.3667V7.25436C14.3667 6.74803 13.9992 6.29887 13.4969 6.24987C12.9212 6.1927 12.4353 6.64595 12.4353 7.21353V10.4843H9.8873V7.25436C9.8873 6.74803 9.5198 6.29887 9.01347 6.24987C8.43773 6.19679 7.95182 6.64595 7.95182 7.21353V10.4843H6.66966C6.29808 10.4843 6 10.7823 6 11.1539V13.7672C6 16.2621 7.77215 18.3405 10.1241 18.8183V21.0028C10.1241 23.5141 12.0719 25.6578 14.5831 25.7517C17.2209 25.8497 19.4014 23.7346 19.4014 21.1172V21.0804C19.4014 19.6553 20.557 18.5038 21.9779 18.5038H24.9669C25.5386 18.4998 26 18.0384 26 17.4708Z" fill="#FC804A"/>
</svg>
