<svg width="188" height="31" viewBox="0 0 188 31" fill="none" xmlns="http://www.w3.org/2000/svg">
<g clip-path="url(#clip0_1584_2127)">
<path d="M76.697 11.1265L76.5965 13.5679C77.296 12.4352 78.6758 11.1265 80.8067 11.1265C83.7675 11.1265 85.874 13.1904 85.8767 17.3194C85.8767 22.4804 82.7407 25.1986 78.779 25.1986C77.8256 25.1986 77.0229 25.0227 76.5965 24.6697V30.3337H71.9571V11.1265H76.697ZM61.9883 7.02334C67.5553 7.02334 70.4645 11.0761 70.4645 15.7586C70.4645 21.548 66.7282 25.1986 61.5361 25.1986C55.9691 25.1986 53.0586 21.1459 53.0586 16.4634C53.0586 10.6739 56.8274 7.02334 61.9883 7.02334ZM93.4934 11.1265C97.1303 11.1265 98.9872 13.4426 98.9872 16.6392V17.2744H90.986C90.9344 20.2694 92.5899 22.1328 94.8729 22.1328C96.4781 22.1328 97.657 21.548 98.6092 20.2898L99.0848 20.5924C98.4085 23.361 96.4772 25.1986 93.3169 25.1986C89.6061 25.1986 86.7975 22.7026 86.7975 18.4768C86.7975 13.996 89.8819 11.1265 93.4934 11.1265ZM152.654 11.1265C156.792 11.1265 159.651 13.7697 159.651 17.8987C159.651 22.1273 156.742 25.1986 152.628 25.1986C148.489 25.1986 145.631 22.5554 145.631 18.4263C145.631 14.1977 148.54 11.1265 152.654 11.1265ZM182.405 11.1265C186.041 11.1265 187.897 13.4426 187.897 16.6392V17.269H179.897C179.845 20.2639 181.502 22.1273 183.784 22.1273C185.389 22.1273 186.571 21.548 187.521 20.2898L187.997 20.5924C187.318 23.361 185.387 25.1986 182.227 25.1986C178.517 25.1986 175.708 22.7026 175.708 18.4768C175.708 13.996 178.793 11.1265 182.405 11.1265ZM105.29 11.1265L105.19 13.6443C106.141 12.4352 107.598 11.1265 109.855 11.1265C112.287 11.1265 113.667 12.4856 113.669 15.2542V24.9464H109.029V15.6332C109.029 14.5249 108.653 13.8706 107.349 13.8706C106.596 13.8806 105.857 14.0704 105.192 14.424V24.9464H100.575V11.1265H105.29ZM122.567 7.27417C127.458 7.27417 129.715 9.56567 129.715 12.6178C129.715 16.0858 127.332 18.1305 122.366 18.1305H120.636V24.9464H115.72V7.27417H122.567ZM135.689 7.27417V13.6443C136.642 12.4352 138.073 11.1265 140.354 11.1265C142.765 11.1265 144.143 12.5115 144.143 15.2542V24.9464H139.502V15.6332C139.502 14.5249 139.125 13.8706 137.821 13.8706C137.076 13.8775 136.344 14.0675 135.689 14.424V24.9464H131.05V7.27417H135.689ZM165.855 11.1265L165.755 13.6443C166.708 12.4352 168.163 11.1265 170.42 11.1265C172.852 11.1265 174.231 12.4856 174.234 15.2542V24.9464H169.595V15.6332C169.595 14.5249 169.219 13.8706 167.914 13.8706C167.161 13.8806 166.422 14.0704 165.757 14.424V24.9464H161.14V11.1265H165.855ZM152.527 12.1898C151.022 12.1898 150.547 14.1269 150.547 17.3249C150.547 21.4485 151.149 24.1407 152.754 24.1407C154.259 24.1407 154.735 22.2023 154.735 19.0056C154.735 14.8834 154.157 12.1898 152.527 12.1898ZM78.0741 13.8706C77.549 13.8602 77.033 14.0095 76.5938 14.2987V21.3722C76.5938 23.008 77.0461 24.0154 78.3743 24.0154C80.1806 24.0154 81.1585 21.6993 81.1585 18.729C81.1585 15.4055 79.9755 13.8706 78.0741 13.8706ZM61.6366 8.23384C59.1037 8.23384 58.2508 12.1108 58.2508 15.8117C58.2508 20.2898 59.2544 23.9908 61.8878 23.9908C64.4208 23.9908 65.2737 20.1139 65.2737 16.4129C65.2737 11.9349 64.27 8.23384 61.6366 8.23384ZM121.209 8.4574H120.632V16.8164H121.212C123.616 16.8164 124.896 15.2065 124.896 12.6123C124.896 10.0183 123.466 8.4574 121.209 8.4574ZM93.193 12.1816C91.8131 12.1816 91.1354 13.7697 91.0104 16.1076H95.0234C95.0234 13.6661 94.5515 12.1816 93.193 12.1816ZM182.103 12.1816C180.724 12.1816 180.048 13.7697 179.921 16.1076H183.934C183.934 13.6661 183.461 12.1816 182.103 12.1816Z" fill="#020214"/>
<path d="M25.8448 0.666177C21.8973 0.661697 18.118 2.29364 15.3767 5.18643C19.5035 6.88629 22.2047 10.9663 22.2047 15.4998C22.2047 20.0333 19.5035 24.1134 15.3767 25.8132C19.9808 30.6606 27.2163 31.7347 32.9876 28.4275C38.7588 25.1203 41.6129 18.2645 39.9343 11.7407C38.2556 5.21683 32.4669 0.66744 25.8448 0.667675V0.666177ZM15.3767 5.18643C10.8134 3.30493 5.57807 4.76416 2.5915 8.75004C-0.395082 12.7359 -0.395082 18.2637 2.5915 22.2496C5.57807 26.2355 10.8134 27.6947 15.3767 25.8132C9.91428 20.0629 9.91428 10.9368 15.3767 5.18643Z" fill="#6333FF"/>
</g>
<defs>
<clipPath id="clip0_1584_2127">
<rect width="187.648" height="29.6677" fill="white" transform="translate(0.351562 0.666168)"/>
</clipPath>
</defs>
</svg>
