<svg width="61" height="13" viewBox="0 0 61 13" fill="none" xmlns="http://www.w3.org/2000/svg">
<g clip-path="url(#clip0_471_988)">
<path d="M30.3511 10.9702C29.9568 10.1464 29.5538 9.32668 29.1527 8.50614C29.0286 8.25237 28.8641 8.02662 28.6568 7.83368C28.399 7.59394 28.4186 7.38099 28.7236 7.19647C29.2568 6.87427 29.6346 6.41997 29.8636 5.84478C30.2166 4.95657 30.2235 4.04717 29.9632 3.13896C29.6819 2.1563 29.0138 1.56151 28.0312 1.30413C27.6477 1.20407 27.2554 1.16484 26.864 1.16124C25.5771 1.15003 24.2899 1.15523 23.0026 1.15804C22.6388 1.15844 22.5123 1.29173 22.5119 1.65557C22.5115 3.23622 22.5119 4.81648 22.5119 6.39714C22.5119 7.97739 22.5115 9.55804 22.5119 11.1383C22.5119 11.5098 22.6388 11.6406 23.0162 11.6454C23.4097 11.6506 23.8031 11.6426 24.1966 11.6482C24.6625 11.6554 24.8819 11.6002 24.8675 10.9946C24.845 10.0548 24.8611 9.11414 24.8623 8.17391C24.8623 7.92456 24.9515 7.79125 25.1396 7.74524C25.7396 7.59795 26.2604 7.8577 26.5206 8.41927C26.9661 9.3807 27.4239 10.3369 27.8667 11.3C27.9791 11.5446 28.1476 11.6522 28.4126 11.6491C28.9126 11.6422 29.4129 11.6491 29.9128 11.6462C30.3779 11.6439 30.5496 11.3852 30.3511 10.9702ZM27.8619 4.7084C27.7962 5.3016 27.4512 5.59179 26.7931 5.62303C26.2548 5.64825 25.7144 5.63463 25.1749 5.63021C24.9715 5.62901 24.8594 5.51214 24.8535 5.3008C24.8455 5.02102 24.8514 4.74123 24.8514 4.46144C24.8511 4.18165 24.8483 3.90187 24.8519 3.62208C24.8542 3.43876 24.9423 3.29866 25.1304 3.29266C25.7228 3.27425 26.3184 3.23902 26.9068 3.30947C27.6901 3.40354 27.9527 3.89066 27.8619 4.7084Z" fill="#12051C"/>
<path d="M18.8904 7.5108C18.8904 8.70479 18.8908 9.89837 18.89 11.0924C18.89 11.5054 18.7519 11.6444 18.3376 11.6463C17.9042 11.6484 17.4707 11.648 17.0372 11.6463C16.5757 11.6448 16.44 11.5111 16.4396 11.0496C16.4384 8.7088 16.4392 6.36765 16.4392 4.02687C16.4392 3.96003 16.44 3.89358 16.4388 3.82674C16.4348 3.53534 16.3203 3.41687 16.0233 3.41486C15.4297 3.41086 14.8361 3.41406 14.2425 3.41326C13.8907 3.41286 13.7534 3.27998 13.7518 2.93495C13.7494 2.50826 13.7494 2.08118 13.7518 1.65449C13.7538 1.31827 13.9023 1.15896 14.2401 1.15856C16.5208 1.15536 18.802 1.15536 21.0827 1.15856C21.4425 1.15896 21.5766 1.30266 21.5778 1.65889C21.5794 2.08558 21.5794 2.51266 21.5778 2.93935C21.5762 3.28638 21.4513 3.41286 21.1103 3.41326C20.5235 3.41446 19.9363 3.41246 19.3495 3.41406C19.0109 3.41486 18.8908 3.53374 18.8908 3.86957C18.89 5.08318 18.8904 6.2972 18.8904 7.5108Z" fill="#12051C"/>
<path d="M14.4303 11.5662C14.2033 11.5658 13.9768 11.5654 13.7498 11.5662C13.5085 11.5666 13.3507 11.4606 13.2667 11.2268C13.0842 10.7189 12.8856 10.2165 12.7031 9.70819C12.6266 9.49565 12.4954 9.40757 12.2684 9.40882C11.1681 9.41521 10.0673 9.41121 8.96702 9.41199C8.69282 9.41241 8.61478 9.46804 8.52031 9.71979C8.3362 10.2133 8.15246 10.7069 7.96836 11.2C7.86469 11.4778 7.7542 11.5626 7.46523 11.565C7.0049 11.569 6.54461 11.5706 6.08469 11.5646C5.6724 11.5594 5.5107 11.3093 5.66481 10.9242C5.84293 10.4783 6.02704 10.0352 6.19996 9.58731C6.2532 9.45 6.33004 9.39718 6.48097 9.39161C7.88107 9.33915 9.00783 8.74317 9.85322 7.63402C10.0361 7.39387 10.2258 7.28017 10.5237 7.3058C10.7486 7.3254 10.9768 7.31022 11.2037 7.30939C11.6052 7.30778 11.7413 7.12086 11.6048 6.74943C11.3402 6.02976 11.072 5.31166 10.8043 4.59358C10.7274 4.38745 10.6617 4.17891 10.6089 3.96436C10.4344 3.25189 10.1098 2.61307 9.60423 2.07911C9.40131 1.86496 9.39569 1.65883 9.50296 1.40546C9.60746 1.15889 9.78756 1.07163 10.0385 1.07444C10.392 1.07844 10.7454 1.07404 11.0988 1.07564C11.4675 1.07764 11.5612 1.13968 11.7 1.48191C12.4962 3.44682 13.2911 5.41213 14.0868 7.37703C14.5623 8.55101 15.0374 9.72499 15.515 10.8986C15.6847 11.3161 15.5242 11.5606 15.0707 11.5654C14.8569 11.5682 14.6436 11.5666 14.4303 11.5662Z" fill="#12051C"/>
<path d="M33.9387 6.40911C33.9387 7.96975 33.9391 9.53039 33.9387 11.091C33.9387 11.5081 33.8054 11.6438 33.3903 11.6458C32.9436 11.6478 32.4966 11.6486 32.0498 11.6454C31.6752 11.6426 31.5231 11.4945 31.5227 11.1238C31.5211 7.96933 31.5211 4.81445 31.5227 1.65995C31.5227 1.31372 31.6768 1.16121 32.0266 1.15761C32.4869 1.15281 32.9469 1.15401 33.4071 1.15681C33.801 1.15921 33.9383 1.29731 33.9387 1.68717C33.9391 3.26141 33.9387 4.83526 33.9387 6.40911Z" fill="#12051C"/>
<path d="M39.656 11.8055C39.082 11.7126 38.5165 11.5877 37.9929 11.3247C36.263 10.4558 35.2439 9.05363 34.9633 7.14834C34.5658 4.45095 36.3466 1.65028 39.4295 1.16996C41.4508 0.854951 43.1611 1.52339 44.462 3.14167C44.5037 3.19371 44.5405 3.24935 44.5777 3.30459C44.653 3.41546 44.6197 3.49831 44.5184 3.57677C44.424 3.65001 44.3499 3.71486 44.2263 3.61079C44.0509 3.46389 43.9029 3.29298 43.7512 3.12527C42.839 2.11819 41.6722 1.59544 40.3473 1.59184C38.5333 1.58664 37.0735 2.35555 36.1129 3.94301C35.6461 4.71433 35.3471 5.55009 35.3888 6.46428C35.5137 9.20654 37.274 10.8744 39.4823 11.2467C41.3071 11.5545 42.8594 10.9469 44.0405 9.4847C44.0742 9.44347 44.1078 9.40187 44.1458 9.36465C44.2615 9.25094 44.3932 9.22775 44.5217 9.33262C44.6538 9.44066 44.6169 9.56596 44.5297 9.68684C44.1126 10.264 43.581 10.7107 42.9723 11.0738C42.3526 11.4432 41.6858 11.6822 40.9765 11.8055C40.5366 11.8055 40.0963 11.8055 39.656 11.8055Z" fill="#12051C"/>
<path d="M36.2538 6.08747C36.2622 8.20848 37.361 9.77391 39.0529 10.2766C40.4802 10.7009 42.1869 10.4384 43.2613 9.09307C43.3153 9.02543 43.3705 8.95816 43.4298 8.89493C43.5887 8.72481 43.6639 8.73001 43.8265 8.88734C43.9317 8.9894 43.9181 9.07025 43.8361 9.17871C43.1056 10.1441 42.1469 10.7462 40.9505 10.9235C39.6769 11.1124 38.5089 10.8082 37.4858 10.0233C36.4816 9.25274 35.93 8.21925 35.7975 6.96083C35.6806 5.85247 35.9024 4.8206 36.5288 3.89559C37.3069 2.74642 38.42 2.14201 39.7834 1.98511C41.2235 1.8194 42.4515 2.2685 43.4642 3.30199C43.6175 3.4585 43.7444 3.64062 43.8861 3.80913C43.9678 3.90639 43.9293 3.97844 43.8456 4.04489C43.7624 4.11133 43.6984 4.23341 43.5607 4.12614C43.4594 4.04689 43.3821 3.94722 43.2977 3.85316C42.7073 3.19672 42.0048 2.73201 41.1267 2.54749C39.7529 2.25929 38.5373 2.58991 37.5226 3.53575C36.7057 4.29745 36.2878 5.27371 36.2538 6.08747Z" fill="#12051C"/>
<path d="M40.1265 10.1358C38.3914 10.1358 36.8019 8.63682 36.637 6.7584C36.4765 4.93077 37.7201 3.28447 39.426 2.88901C40.827 2.56399 42.2732 3.06953 43.0729 4.17826C43.0925 4.20548 43.1165 4.2307 43.1289 4.26072C43.1625 4.34158 43.2966 4.43164 43.1469 4.50728C43.0268 4.56813 42.9004 4.71422 42.7503 4.5197C42.2511 3.87206 41.5827 3.51623 40.7846 3.35411C38.9769 2.98707 37.3803 4.40922 37.1506 5.93464C36.8848 7.69899 38.0259 9.30206 39.7847 9.57548C40.9327 9.75397 41.8969 9.36331 42.657 8.48355C42.8543 8.25541 42.9496 8.22858 43.1125 8.37306C43.225 8.47273 43.1994 8.56159 43.1293 8.66926C42.7895 9.18882 42.3156 9.54585 41.7588 9.7992C41.2801 10.0169 40.779 10.1439 40.1265 10.1358Z" fill="#12051C"/>
<path d="M40.2135 3.65552C41.1257 3.65512 41.8245 4.00335 42.3797 4.65258C42.4653 4.75305 42.5722 4.86072 42.4101 4.98921C42.2768 5.09488 42.1727 5.13891 42.0294 4.9696C41.1929 3.98054 39.7792 4.00175 39.0151 4.51369C38.1965 5.06206 37.8202 5.98867 38.0296 6.99216C38.2113 7.86474 38.9666 8.59481 39.8824 8.73649C40.7318 8.86782 41.4427 8.56638 42.0239 7.95001C42.1383 7.82871 42.2268 7.74625 42.3789 7.89516C42.5206 8.03403 42.5322 8.10931 42.3741 8.28302C41.5831 9.1532 40.6097 9.47342 39.4814 9.13355C38.3434 8.79093 37.6581 7.99363 37.4956 6.81284C37.2859 5.28861 38.3246 3.9309 39.8464 3.68274C39.9841 3.66032 40.1254 3.66152 40.2135 3.65552Z" fill="#12051C"/>
<path d="M45.2609 11.8051C45.2569 11.7455 45.2497 11.6854 45.2497 11.6258C45.2493 8.16427 45.2505 4.70235 45.2461 1.24084C45.2457 1.05072 45.3029 0.983072 45.4967 0.985474C45.6896 0.987876 45.7096 1.09034 45.7136 1.24044C45.7937 4.48781 45.7496 7.73559 45.7416 10.983C45.7412 11.1823 45.7152 11.382 45.7148 11.5813C45.7148 11.7102 45.6652 11.7819 45.5411 11.8051C45.4475 11.8051 45.3542 11.8051 45.2609 11.8051Z" fill="#12051C"/>
<path d="M47.0596 6.4012C47.0596 4.68724 47.0591 2.9733 47.0601 1.25975C47.0601 0.999981 47.1111 0.960355 47.3697 0.990375C47.4677 1.00158 47.5041 1.04721 47.517 1.14208C47.5506 1.38104 47.5474 1.6208 47.552 1.86056C47.6099 4.68724 47.5984 7.51435 47.5782 10.341C47.5754 10.7269 47.5598 11.1135 47.5487 11.4998C47.5414 11.7652 47.5234 11.7668 47.2805 11.7828C47.0476 11.798 47.0587 11.6571 47.0587 11.503C47.0601 9.80225 47.0596 8.10191 47.0596 6.4012Z" fill="#12051C"/>
<path d="M47.9416 6.36922C47.9416 4.80298 47.9407 3.23634 47.943 1.67009C47.9434 1.51759 47.9605 1.36469 47.9752 1.21259C47.989 1.07009 48.0714 0.999244 48.2158 1.00165C48.3663 1.00405 48.3916 1.09331 48.4013 1.2254C48.4551 1.94427 48.4293 2.66396 48.4353 3.38323C48.4487 4.93587 48.4795 6.48849 48.4574 8.04076C48.4413 9.15989 48.4551 10.2794 48.4257 11.3982C48.4238 11.4646 48.4151 11.5307 48.41 11.5971C48.4013 11.7072 48.3723 11.7877 48.2319 11.7797C48.0967 11.772 47.9922 11.7368 47.9766 11.5859C47.9595 11.427 47.943 11.2673 47.943 11.108C47.9407 9.52851 47.9416 7.9491 47.9416 6.36922Z" fill="#12051C"/>
<path d="M46.622 6.39343C46.622 8.09299 46.6224 9.7925 46.6215 11.4924C46.6215 11.7394 46.5819 11.7782 46.3744 11.7782C46.2453 11.7782 46.1717 11.7206 46.1541 11.5969C46.1408 11.5052 46.1329 11.4116 46.1329 11.3187C46.1313 8.03294 46.1309 4.74674 46.1309 1.46094C46.1309 1.38129 46.1344 1.30084 46.1448 1.22199C46.1657 1.06068 46.2661 0.997035 46.4237 1.00184C46.5944 1.00664 46.6238 1.10791 46.6238 1.25481C46.6206 2.96755 46.6215 4.68069 46.622 6.39343Z" fill="#12051C"/>
<path d="M57.8152 11.7788C57.4834 11.7828 57.4839 11.7824 57.3536 11.4486C56.1379 8.3457 54.9227 5.24242 53.7042 2.14035C53.6683 2.04909 53.6692 1.88658 53.5528 1.89378C53.4447 1.90019 53.4033 2.04989 53.3618 2.15436C52.8966 3.33234 52.4296 4.50953 51.9694 5.68912C51.7067 6.36356 51.4904 6.77623 51.2323 7.45228C51.2088 7.51435 51.149 7.55517 51.0827 7.55517H50.8338C50.721 7.55517 50.6437 7.44188 50.6852 7.3366C51.501 5.25202 52.2736 3.43041 53.0885 1.34502C53.1562 1.1725 53.2266 1.01079 53.4267 0.957558H53.5869C53.7953 0.956357 53.8694 1.08925 53.9384 1.26536C55.2779 4.69165 56.6238 8.11595 57.9684 11.5406C58.0577 11.7688 58.0521 11.776 57.8152 11.7788Z" fill="#12051C"/>
<path d="M56.6276 0.95795C56.8531 1.01519 56.9272 1.20171 57.0008 1.39064C57.651 3.05215 58.3104 4.71045 58.9509 6.37557C59.5698 7.98504 60.2067 9.58732 60.844 11.1896C60.9029 11.3373 60.942 11.493 60.9908 11.6447C61.0211 11.7816 60.9687 11.8292 60.8302 11.8072C60.7519 11.7948 60.6705 11.8048 60.5904 11.8048C60.4671 11.7299 60.4252 11.6023 60.3742 11.4786C59.4318 9.19302 58.5805 6.87148 57.663 4.57636C57.2152 3.45682 56.7864 2.32966 56.3428 1.20852C56.2526 0.980365 56.4569 1.02239 56.5471 0.95755C56.5743 0.95795 56.6009 0.95795 56.6276 0.95795Z" fill="#12051C"/>
<path d="M56.3113 9.37258C56.3025 9.49466 56.2556 9.56271 56.1198 9.57951C55.7273 9.62838 55.3348 9.59791 54.9428 9.60353C54.8402 9.60514 54.2203 9.60514 53.4376 9.60436C53.2554 9.60436 53.0649 9.60436 52.8698 9.60394C52.7331 9.60353 52.5946 9.60353 52.4552 9.60316C52.261 9.60275 52.0645 9.60233 51.8717 9.60192C51.8423 9.60192 51.7829 9.60155 51.7158 9.60155C51.5538 9.60114 51.4075 9.69882 51.3453 9.84851C51.3237 9.90055 51.3071 9.94178 51.3012 9.95655C51.2358 10.1227 51.1714 10.2892 51.1079 10.4561C50.9795 10.7887 50.8534 11.1222 50.7287 11.4564C50.6786 11.5909 50.6123 11.7098 50.5051 11.805H50.3049C50.039 11.7146 50.039 11.7146 50.142 11.4508C50.2718 11.1189 50.402 10.7875 50.5318 10.4557C50.5971 10.2892 50.662 10.1227 50.7274 9.95619C50.7743 9.83692 50.8208 9.7176 50.8672 9.59874H50.8677C50.9133 9.48187 50.9344 9.43424 50.9777 9.31695C51.0573 9.09999 51.2634 9.06957 51.4553 9.0704H52.6627C52.8026 9.0704 52.9416 9.07077 53.0783 9.07077H53.6479C54.3782 9.07118 54.946 9.0716 55.0514 9.0716C55.3781 9.07118 55.7043 9.0664 56.0306 9.07279C56.2418 9.07721 56.3255 9.17564 56.3113 9.37258Z" fill="#12051C"/>
<path d="M53.7857 3.63868C53.2515 4.99839 52.7587 6.09432 52.224 7.45401C52.2 7.51526 52.1407 7.55571 52.0753 7.55571H51.842C51.7289 7.55571 51.6515 7.442 51.693 7.33714C52.2843 5.82895 52.8327 4.58411 53.4245 3.07631C53.459 2.98905 53.4576 2.84135 53.5694 2.83775C53.679 2.83415 53.7277 2.96824 53.7779 3.0595C53.8823 3.24842 53.8621 3.44535 53.7857 3.63868Z" fill="#12051C"/>
<path d="M54.2988 4.90754C53.9578 5.76891 53.6583 6.36609 53.3205 7.22869C53.2906 7.30355 53.2616 7.37837 53.2322 7.45365C53.2082 7.5149 53.1489 7.5553 53.0835 7.5553H52.8438C52.7311 7.5553 52.6538 7.44201 52.6947 7.33678C53.1226 6.24204 53.5078 5.41148 53.9357 4.31675C53.9624 4.2499 53.9707 4.15304 54.0462 4.13702C54.1327 4.11861 54.1824 4.20707 54.2325 4.26751C54.3959 4.46484 54.3881 4.68219 54.2988 4.90754Z" fill="#12051C"/>
<path d="M52.801 10.635C52.9133 10.635 52.9911 10.7483 52.9501 10.8532C52.8705 11.0577 52.7909 11.2623 52.7118 11.4664C52.663 11.5921 52.6046 11.7102 52.507 11.8054H52.3068C52.0524 11.6986 52.051 11.6982 52.1536 11.4356C52.2452 11.203 52.3358 10.9701 52.4269 10.7367C52.4509 10.6755 52.5102 10.635 52.576 10.635H52.801Z" fill="#12051C"/>
<path d="M54.7738 6.24162C54.5773 6.73435 54.4236 6.96249 54.2271 7.4548C54.2027 7.51564 54.1438 7.55567 54.0785 7.55567H53.8438C53.7311 7.55567 53.6538 7.44201 53.6947 7.33714C53.9542 6.67269 54.1723 6.2724 54.4328 5.60836C54.4595 5.53953 54.4567 5.42706 54.5556 5.42426C54.6385 5.42226 54.684 5.51152 54.7296 5.57597C54.8819 5.78768 54.8649 6.01265 54.7738 6.24162Z" fill="#12051C"/>
<path d="M58.6858 11.7792C58.5418 11.8108 58.4599 11.7364 58.3982 11.5787C57.0546 8.13914 55.7059 4.70207 54.3604 1.26337C54.331 1.18812 54.2454 1.09526 54.3811 1.02562C54.527 0.950765 54.7621 0.97278 54.8417 1.08445C54.8914 1.1541 54.9273 1.23495 54.9595 1.31501C55.7068 3.16945 56.432 5.03309 57.154 6.89752C57.7029 8.31445 58.2675 9.72541 58.8243 11.1395C58.8685 11.2512 58.9136 11.3633 58.944 11.479C59.0139 11.7439 58.9826 11.7804 58.6858 11.7792Z" fill="#12051C"/>
<path d="M59.7011 11.7765C59.5538 11.8093 59.4646 11.736 59.3997 11.5695C58.0597 8.13646 56.7138 4.70535 55.3711 1.27346C55.3425 1.20061 55.268 1.11896 55.3803 1.04571C55.5146 0.958051 55.7493 0.968058 55.8459 1.07133C55.9209 1.15138 55.9545 1.25425 55.9927 1.35351C56.5003 2.66519 56.989 3.98407 57.5172 5.28694C58.3188 7.26305 59.0444 9.26958 59.8676 11.2373C59.9035 11.3229 59.9371 11.4118 59.9546 11.5023C60.0052 11.7585 59.9873 11.7765 59.7011 11.7765Z" fill="#12051C"/>
<path d="M56.5473 10.4536C56.054 10.458 55.5608 10.456 55.0679 10.456C54.8816 10.456 54.0694 10.456 53.1036 10.4564H52.3135C52.198 10.4564 52.094 10.5273 52.0526 10.635C51.9403 10.9227 51.829 11.2109 51.7167 11.4987C51.6702 11.6188 51.6164 11.7313 51.505 11.8053H51.3449C51.3067 11.7929 51.2699 11.7769 51.2312 11.7689C51.0798 11.7389 51.0614 11.6588 51.1157 11.5236C51.2588 11.1685 51.3983 10.8127 51.5372 10.4564C51.5791 10.3495 51.6205 10.2423 51.6624 10.1354C51.7043 10.0278 51.8078 9.9569 51.9233 9.9569H52.7308C52.9209 9.9569 53.1109 9.95648 53.2991 9.95648C54.6487 9.95648 55.9091 9.95648 56.2777 9.95772C56.5073 9.95851 56.6766 10.121 56.7075 10.3508C56.7268 10.4993 56.6117 10.4532 56.5473 10.4536Z" fill="#12051C"/>
<path d="M55.7357 8.61644C55.5098 8.61805 55.2834 8.61685 55.0575 8.61685H51.0353C50.9194 8.61685 50.8158 8.68808 50.774 8.79659C50.739 8.88783 50.7036 8.9795 50.6686 9.07074C50.6009 9.24606 50.5333 9.42179 50.4652 9.59711C50.4187 9.71679 50.3722 9.83648 50.3253 9.95616C50.2604 10.1231 50.1951 10.2896 50.1297 10.4557C49.9963 10.7939 49.8615 11.1313 49.7248 11.4679C49.6687 11.6073 49.6075 11.7374 49.4625 11.805H49.3024C49.0263 11.7245 49.0263 11.7245 49.1229 11.4787C49.2568 11.1377 49.3898 10.7963 49.5237 10.4553C49.5886 10.2888 49.6535 10.1223 49.7188 9.95533C49.7662 9.83487 49.8136 9.7144 49.8606 9.59352C49.9287 9.41977 49.9968 9.24569 50.0649 9.07157C50.1242 8.92027 50.1836 8.76856 50.2429 8.61685C50.2853 8.50798 50.3281 8.39911 50.3704 8.29024C50.4127 8.18298 50.5158 8.11253 50.6308 8.11211C50.7523 8.1117 50.8885 8.1117 51.0362 8.1117C51.1655 8.11133 51.3031 8.11133 51.4471 8.11133C51.6307 8.11092 51.8245 8.11092 52.0242 8.11092H52.0246C52.1645 8.11092 52.3076 8.1105 52.4521 8.11092C52.6454 8.1105 52.8409 8.1105 53.0351 8.1105H53.452C53.649 8.1105 53.8422 8.1105 54.0267 8.11092C54.8302 8.11092 55.4707 8.1117 55.6023 8.11253C55.7505 8.11373 55.877 8.16333 55.9359 8.31665C56.0151 8.52358 55.9548 8.61483 55.7357 8.61644Z" fill="#12051C"/>
<path d="M6.46976 7.09983C7.02815 7.09983 7.50445 6.9045 7.89871 6.51264C8.29259 6.12077 8.48912 5.60081 8.48912 4.95319C8.48912 4.42843 8.28615 3.96052 7.87989 3.54985C7.47321 3.13917 7.00372 2.93384 6.46976 2.93384H2.69164C2.35821 2.93384 2.08763 3.20402 2.08763 3.53784V4.91436C2.08763 5.03925 2.1889 5.14091 2.31419 5.14091H2.31859C2.44347 5.14091 2.54514 5.03965 2.54514 4.91436V3.6179C2.54514 3.49301 2.64641 3.39135 2.77169 3.39135H6.46976C6.87644 3.39135 7.23826 3.55145 7.55608 3.87046C7.87308 4.19068 8.03238 4.55132 8.03238 4.95279C8.03238 5.49114 7.88072 5.90704 7.57808 6.20043C7.27548 6.4946 6.90644 6.64189 6.47018 6.64189H1.77783C1.4444 6.64189 1.17383 6.91209 1.17383 7.24593V11.3943C1.17383 11.5192 1.27509 11.6208 1.40038 11.6208H1.40478C1.52966 11.6208 1.63133 11.5196 1.63133 11.3943V7.32636C1.63133 7.20148 1.7326 7.09983 1.85788 7.09983H6.46976Z" fill="#12051C"/>
<path d="M6.47072 6.18512C7.2076 6.18512 7.57586 5.77443 7.57586 4.95309C7.57586 4.6573 7.46657 4.39913 7.24883 4.17858C7.03067 3.95803 6.77092 3.84875 6.47072 3.84875H3.6076C3.27418 3.84875 3.0036 4.11894 3.0036 4.45276V4.91427C3.0036 5.03915 3.10486 5.14082 3.23015 5.14082H3.23375C3.35863 5.14082 3.4603 5.03955 3.4603 4.91427V4.53201C3.4603 4.40713 3.56157 4.30546 3.68685 4.30546H6.47072C6.65243 4.30546 6.80654 4.3675 6.93101 4.48959C7.05548 4.61246 7.11833 4.76737 7.11833 4.95309C7.11833 5.24129 7.06192 5.44222 6.94702 5.55709C6.83295 5.67118 6.67364 5.72842 6.47072 5.72842H0.863766C0.530346 5.72842 0.259766 5.99857 0.259766 6.33241V11.395C0.259766 11.5199 0.361033 11.6215 0.486317 11.6215H0.490719C0.615603 11.6215 0.717271 11.5203 0.717271 11.395V6.41165C0.717271 6.28676 0.818538 6.18512 0.943823 6.18512H6.47072Z" fill="#12051C"/>
<path d="M6.46976 8.01425C6.99051 8.01425 7.47445 7.88453 7.92075 7.624C8.36742 7.36341 8.72606 6.99755 8.99704 6.52567C9.26802 6.05291 9.40372 5.52938 9.40372 4.9534C9.40372 4.44546 9.26922 3.96513 9.00063 3.51244C8.73126 3.05973 8.37022 2.69709 7.91753 2.42611C7.46483 2.15513 6.98209 2.01984 6.46976 2.01984H1.77783C1.4444 2.01984 1.17383 2.29002 1.17383 2.62384V4.91457C1.17383 5.03945 1.27509 5.14112 1.40038 5.14112H1.40478C1.52966 5.14112 1.63133 5.03985 1.63133 4.91457V2.70309C1.63133 2.57821 1.7326 2.47654 1.85788 2.47654H6.46976C7.1258 2.47654 7.70259 2.72631 8.20052 3.22624C8.69803 3.72577 8.94619 4.30176 8.94619 4.9534C8.94619 5.45773 8.83056 5.91045 8.60039 6.31271C8.36944 6.71497 8.06685 7.02318 7.69219 7.2365C7.31713 7.45024 6.90925 7.55714 6.46935 7.55714H2.69124C2.35781 7.55714 2.08723 7.82734 2.08723 8.16113V11.3945C2.08723 11.5194 2.1885 11.621 2.31379 11.621H2.31819C2.44307 11.621 2.54474 11.5198 2.54474 11.3945V8.24037C2.54474 8.11553 2.64601 8.01383 2.77129 8.01383H6.46976V8.01425Z" fill="#12051C"/>
<path d="M9.79171 3.05462C9.43988 2.46222 8.96836 1.98871 8.3756 1.63567C7.7832 1.28184 7.14755 1.10492 6.4703 1.10492H0.863766C0.530346 1.10492 0.259766 1.3751 0.259766 1.70892V4.91426C0.259766 5.03915 0.361033 5.14081 0.486317 5.14081H0.490719C0.615603 5.14081 0.717271 5.03955 0.717271 4.91426V1.78898C0.717271 1.66409 0.818538 1.56243 0.943823 1.56243H6.47072C7.0679 1.56243 7.6279 1.71773 8.15022 2.02874C8.67336 2.33974 9.08924 2.75722 9.39786 3.28037C9.70727 3.80272 9.86215 4.36069 9.86215 4.95309C9.86215 5.44902 9.77091 5.91531 9.58878 6.35324C9.40707 6.7919 9.1625 7.16374 8.85512 7.47117C8.54769 7.77859 8.18707 8.02155 7.77276 8.20165C7.3577 8.38139 6.92341 8.47103 6.47072 8.47103H3.6076C3.27417 8.47103 3.0036 8.74123 3.0036 9.07502V11.3946C3.0036 11.5195 3.10486 11.6211 3.23015 11.6211H3.23375C3.35863 11.6211 3.4603 11.5199 3.4603 11.3946V9.15508C3.4603 9.0302 3.56157 8.92855 3.68685 8.92855H6.47072C6.98705 8.92855 7.47858 8.83648 7.94407 8.65237C8.41002 8.46822 8.81826 8.20847 9.17009 7.87426C9.52114 7.54001 9.80054 7.12012 10.0079 6.61382C10.2156 6.10825 10.3189 5.55469 10.3189 4.95309C10.3189 4.28064 10.1428 3.64702 9.79171 3.05462Z" fill="#12051C"/>
</g>
<defs>
<clipPath id="clip0_471_988">
<rect width="60.7397" height="11.0436" fill="white" transform="translate(0.259766 0.95755)"/>
</clipPath>
</defs>
</svg>
