<svg width="76" height="14" viewBox="0 0 76 14" fill="none" xmlns="http://www.w3.org/2000/svg">
<g clip-path="url(#clip0_252_476)">
<path d="M37.7347 12.6692C37.2425 11.6408 36.7393 10.6173 36.2386 9.59286C36.0836 9.27602 35.8782 8.99418 35.6194 8.75329C35.2975 8.45398 35.322 8.1881 35.7028 7.95773C36.3684 7.55547 36.8402 6.98827 37.1261 6.27015C37.5668 5.16122 37.5754 4.02583 37.2505 2.89194C36.8992 1.66509 36.0651 0.922488 34.8383 0.601161C34.3596 0.476228 33.8698 0.427254 33.3811 0.422756C31.7744 0.408763 30.1673 0.41526 28.5601 0.418758C28.1059 0.419258 27.948 0.585669 27.9475 1.03993C27.947 3.01337 27.9475 4.98632 27.9475 6.95977C27.9475 8.9327 27.947 10.9062 27.9475 12.8791C27.9475 13.3429 28.1059 13.5063 28.5771 13.5122C29.0684 13.5187 29.5596 13.5087 30.0508 13.5157C30.6325 13.5248 30.9064 13.4558 30.8884 12.6997C30.8604 11.5263 30.8804 10.3519 30.8819 9.17807C30.8819 8.86675 30.9934 8.70032 31.2282 8.64287C31.9773 8.45898 32.6275 8.78328 32.9523 9.48439C33.5085 10.6847 34.0802 11.8786 34.6329 13.081C34.7733 13.3863 34.9837 13.5207 35.3145 13.5168C35.9387 13.5083 36.5634 13.5168 37.1876 13.5133C37.7682 13.5103 37.9826 13.1874 37.7347 12.6692ZM34.6269 4.85139C34.5449 5.59199 34.1142 5.95429 33.2926 5.9933C32.6205 6.02478 31.9458 6.00778 31.2722 6.00226C31.0183 6.00077 30.8784 5.85485 30.8709 5.59099C30.8609 5.24168 30.8684 4.89237 30.8684 4.54306C30.8679 4.19374 30.8644 3.84443 30.8689 3.49511C30.8719 3.26623 30.9819 3.09133 31.2167 3.08383C31.9563 3.06085 32.7 3.01687 33.4346 3.10482C34.4125 3.22226 34.7403 3.83043 34.6269 4.85139Z" fill="white"/>
<path d="M23.4276 8.35017C23.4276 9.84087 23.4281 11.3311 23.4271 12.8218C23.4271 13.3375 23.2546 13.5109 22.7374 13.5134C22.1963 13.5159 21.655 13.5154 21.1138 13.5134C20.5376 13.5114 20.3682 13.3445 20.3677 12.7683C20.3662 9.84587 20.3672 6.92295 20.3672 4.00049C20.3672 3.91704 20.3682 3.83409 20.3667 3.75063C20.3617 3.38682 20.2188 3.2389 19.848 3.2364C19.1069 3.23141 18.3658 3.2354 17.6247 3.23441C17.1854 3.23391 17.014 3.068 17.012 2.63723C17.009 2.10451 17.009 1.5713 17.012 1.03858C17.0145 0.618806 17.1999 0.419913 17.6217 0.419413C20.4691 0.415415 23.3172 0.415415 26.1646 0.419413C26.6139 0.419913 26.7813 0.599316 26.7828 1.04408C26.7848 1.57679 26.7848 2.11001 26.7828 2.64272C26.7808 3.07599 26.6249 3.23391 26.1991 3.23441C25.4665 3.2359 24.7334 3.23341 24.0007 3.2354C23.578 3.2364 23.4281 3.38483 23.4281 3.8041C23.4271 5.31929 23.4276 6.835 23.4276 8.35017Z" fill="white"/>
<path d="M17.8591 13.4134C17.5757 13.4129 17.2928 13.4124 17.0095 13.4134C16.7082 13.4139 16.5112 13.2815 16.4063 12.9896C16.1784 12.3554 15.9305 11.7283 15.7027 11.0936C15.6072 10.8283 15.4433 10.7183 15.16 10.7198C13.7862 10.7278 12.4119 10.7228 11.0382 10.7238C10.6959 10.7243 10.5984 10.7938 10.4805 11.1081C10.2506 11.7243 10.0212 12.3404 9.79137 12.9561C9.66194 13.303 9.52401 13.4089 9.16322 13.4119C8.5885 13.4169 8.01383 13.4189 7.43962 13.4114C6.92487 13.4049 6.723 13.0926 6.91539 12.6118C7.13778 12.0551 7.36764 11.5019 7.58353 10.9427C7.65 10.7713 7.74594 10.7053 7.93438 10.6984C9.68239 10.6329 11.0892 9.88878 12.1446 8.50402C12.373 8.20419 12.6098 8.06223 12.9817 8.09423C13.2625 8.11871 13.5474 8.09975 13.8307 8.09871C14.332 8.0967 14.5018 7.86334 14.3314 7.39961C14.0011 6.5011 13.6663 5.60456 13.332 4.70804C13.236 4.45067 13.1541 4.19031 13.0881 3.92246C12.8702 3.03294 12.4649 2.23536 11.8338 1.56872C11.5804 1.30136 11.5734 1.044 11.7073 0.727667C11.8378 0.419831 12.0626 0.310889 12.376 0.314388C12.8172 0.319385 13.2585 0.313888 13.6998 0.315886C14.16 0.318385 14.277 0.395844 14.4504 0.823116C15.4444 3.2763 16.4368 5.72999 17.4303 8.18317C18.024 9.64888 18.6171 11.1146 19.2133 12.5798C19.4252 13.1011 19.2248 13.4064 18.6586 13.4124C18.3917 13.4159 18.1254 13.4139 17.8591 13.4134Z" fill="white"/>
<path d="M42.2152 6.97471C42.2152 8.92317 42.2157 10.8716 42.2152 12.8201C42.2152 13.3408 42.0487 13.5102 41.5305 13.5127C40.9728 13.5152 40.4146 13.5162 39.8569 13.5122C39.3892 13.5087 39.1993 13.3238 39.1988 12.861C39.1968 8.92265 39.1968 4.98378 39.1988 1.0454C39.1988 0.613124 39.3912 0.422726 39.828 0.418228C40.4026 0.412231 40.9768 0.413731 41.5515 0.417229C42.0433 0.420227 42.2146 0.592635 42.2152 1.07938C42.2157 3.04482 42.2152 5.00977 42.2152 6.97471Z" fill="white"/>
<path d="M49.3534 13.712C48.6368 13.5961 47.9307 13.4402 47.2771 13.1119C45.1172 12.0269 43.8449 10.2764 43.4945 7.89764C42.9983 4.52995 45.2216 1.03332 49.0706 0.433643C51.5942 0.0403537 53.7296 0.874905 55.3537 2.89532C55.4057 2.96029 55.4517 3.02976 55.4982 3.09872C55.5921 3.23714 55.5506 3.34059 55.4242 3.43854C55.3062 3.52999 55.2138 3.61094 55.0594 3.48102C54.8405 3.29761 54.6556 3.08422 54.4662 2.87484C53.3273 1.61751 51.8706 0.964859 50.2165 0.960361C47.9517 0.953863 46.1292 1.91385 44.9298 3.89579C44.3471 4.85878 43.9738 5.90222 44.0258 7.04359C44.1817 10.4673 46.3795 12.5497 49.1365 13.0144C51.4148 13.3987 53.3528 12.6401 54.8275 10.8146C54.8695 10.7631 54.9115 10.7112 54.9589 10.6647C55.1034 10.5227 55.2678 10.4938 55.4282 10.6247C55.5931 10.7596 55.5471 10.916 55.4382 11.067C54.9175 11.7875 54.2538 12.3453 53.4937 12.7985C52.7201 13.2598 51.8876 13.5581 51.002 13.712C50.4528 13.712 49.9031 13.712 49.3534 13.712Z" fill="white"/>
<path d="M45.1051 6.57314C45.1156 9.22121 46.4874 11.1756 48.5997 11.8033C50.3818 12.333 52.5126 12.0052 53.8539 10.3256C53.9214 10.2412 53.9903 10.1572 54.0643 10.0782C54.2627 9.86586 54.3566 9.87235 54.5595 10.0688C54.691 10.1962 54.674 10.2971 54.5716 10.4325C53.6595 11.6379 52.4626 12.3895 50.9689 12.6109C49.3788 12.8467 47.9206 12.4669 46.6433 11.487C45.3895 10.525 44.7008 9.23466 44.5354 7.66353C44.3895 6.27974 44.6663 4.99145 45.4484 3.83657C46.4199 2.40184 47.8096 1.64724 49.5117 1.45135C51.3098 1.24446 52.843 1.80516 54.1073 3.09547C54.2987 3.29087 54.4571 3.51824 54.634 3.72863C54.736 3.85006 54.6879 3.94002 54.5835 4.02297C54.4796 4.10593 54.3996 4.25834 54.2277 4.12442C54.1013 4.02547 54.0048 3.90104 53.8994 3.7836C53.1623 2.96404 52.2852 2.38385 51.1889 2.15347C49.4738 1.79366 47.9561 2.20644 46.6892 3.38731C45.6693 4.3383 45.1476 5.55715 45.1051 6.57314Z" fill="white"/>
<path d="M49.9405 11.6275C47.7741 11.6275 45.7897 9.75602 45.5838 7.41081C45.3834 5.12901 46.9361 3.07361 49.0659 2.57987C50.8151 2.17409 52.6206 2.80525 53.619 4.18951C53.6435 4.22349 53.6735 4.25498 53.689 4.29246C53.731 4.39341 53.8984 4.50585 53.7115 4.60029C53.5615 4.67625 53.4037 4.85866 53.2163 4.61579C52.5931 3.80722 51.7585 3.36296 50.7621 3.16056C48.5052 2.70231 46.5119 4.47786 46.225 6.38235C45.8932 8.58514 47.3179 10.5866 49.5137 10.9279C50.947 11.1508 52.1508 10.663 53.0998 9.56465C53.3462 9.27982 53.4651 9.24632 53.6685 9.42671C53.8089 9.55115 53.7769 9.66208 53.6895 9.79652C53.2652 10.4452 52.6735 10.8909 51.9784 11.2072C51.3807 11.4791 50.7551 11.6375 49.9405 11.6275Z" fill="white"/>
<path d="M50.0479 3.53686C51.1868 3.53636 52.0593 3.97113 52.7524 4.78169C52.8593 4.90713 52.9928 5.04156 52.7904 5.20197C52.624 5.3339 52.494 5.38887 52.3151 5.17749C51.2707 3.94264 49.5057 3.96913 48.5517 4.60829C47.5297 5.29292 47.0599 6.44979 47.3213 7.70265C47.5482 8.79207 48.4912 9.70356 49.6346 9.88045C50.695 10.0444 51.5825 9.66806 52.3082 8.89852C52.451 8.74708 52.5615 8.64413 52.7514 8.83004C52.9283 9.00342 52.9428 9.09741 52.7454 9.31428C51.7579 10.4007 50.5426 10.8005 49.1339 10.3762C47.7131 9.94841 46.8575 8.95298 46.6547 7.47877C46.3928 5.57577 47.6896 3.88068 49.5896 3.57084C49.7615 3.54286 49.9379 3.54436 50.0479 3.53686Z" fill="white"/>
<path d="M56.3505 13.7116C56.3455 13.6371 56.3365 13.5622 56.3365 13.4877C56.3361 9.16601 56.3375 4.84382 56.332 0.522129C56.3316 0.284756 56.403 0.200301 56.6449 0.203299C56.8857 0.206297 56.9107 0.334229 56.9157 0.521629C57.0157 4.57596 56.9607 8.63081 56.9507 12.6851C56.9502 12.934 56.9177 13.1833 56.9172 13.4322C56.9172 13.5931 56.8553 13.6826 56.7003 13.7116C56.5834 13.7116 56.467 13.7116 56.3505 13.7116Z" fill="white"/>
<path d="M58.597 6.96483C58.597 4.82496 58.5964 2.6851 58.5975 0.545746C58.5975 0.221419 58.6613 0.171946 58.9842 0.209426C59.1065 0.223418 59.1519 0.280388 59.168 0.398824C59.2099 0.697165 59.2059 0.996505 59.2117 1.29585C59.284 4.82496 59.2697 8.3546 59.2444 11.8837C59.241 12.3654 59.2214 12.8482 59.2076 13.3304C59.1984 13.6617 59.176 13.6637 58.8727 13.6837C58.582 13.7027 58.5958 13.5268 58.5958 13.3344C58.5975 11.211 58.597 9.08817 58.597 6.96483Z" fill="white"/>
<path d="M59.6975 6.9249C59.6975 4.96945 59.6963 3.0135 59.6992 1.05804C59.6998 0.867651 59.721 0.67675 59.7394 0.486852C59.7567 0.308947 59.8595 0.220495 60.0399 0.223493C60.2278 0.226492 60.2593 0.337932 60.2714 0.502843C60.3386 1.40036 60.3065 2.29888 60.3139 3.1969C60.3306 5.13536 60.3691 7.07381 60.3415 9.01182C60.3214 10.409 60.3386 11.8068 60.3019 13.2036C60.2996 13.2865 60.2886 13.369 60.2823 13.4519C60.2714 13.5893 60.2352 13.6898 60.06 13.6798C59.8911 13.6703 59.7607 13.6263 59.7412 13.4379C59.7199 13.2395 59.6992 13.0401 59.6992 12.8412C59.6963 10.8693 59.6975 8.89738 59.6975 6.9249Z" fill="white"/>
<path d="M58.0487 6.95512C58.0487 9.07702 58.0493 11.1989 58.0481 13.3212C58.0481 13.6296 57.9987 13.678 57.7396 13.678C57.5785 13.678 57.4865 13.6061 57.4645 13.4516C57.448 13.3372 57.4381 13.2203 57.4381 13.1043C57.4361 9.00205 57.4355 4.89923 57.4355 0.796924C57.4355 0.69748 57.44 0.597034 57.453 0.498586C57.479 0.297194 57.6044 0.217736 57.8011 0.223733C58.0142 0.22973 58.051 0.356163 58.051 0.539564C58.047 2.67792 58.0481 4.81678 58.0487 6.95512Z" fill="white"/>
<path d="M72.0253 13.6787C71.6111 13.6837 71.6117 13.6832 71.4491 13.2665C69.9313 9.39253 68.414 5.51808 66.8928 1.64516C66.848 1.53122 66.8491 1.32832 66.7038 1.33732C66.5688 1.34531 66.5171 1.53221 66.4654 1.66264C65.8845 3.13336 65.3014 4.60307 64.7269 6.07579C64.3989 6.91783 64.1289 7.43304 63.8066 8.27709C63.7773 8.35459 63.7026 8.40555 63.6199 8.40555H63.3091C63.1683 8.40555 63.0718 8.2641 63.1235 8.13266C64.1421 5.53008 65.1067 3.25579 66.1241 0.652184C66.2086 0.436799 66.2965 0.234907 66.5464 0.168442H66.7463C67.0065 0.166943 67.099 0.332854 67.1852 0.552736C68.8576 4.83045 70.538 9.10568 72.2166 13.3814C72.3281 13.6662 72.3212 13.6752 72.0253 13.6787Z" fill="white"/>
<path d="M70.5419 0.168932C70.8234 0.240394 70.9159 0.473269 71.0078 0.709143C71.8196 2.78353 72.6428 4.85392 73.4425 6.93283C74.2152 8.94224 75.0103 10.9427 75.806 12.9431C75.8795 13.1275 75.9284 13.3219 75.9892 13.5113C76.0272 13.6822 75.9617 13.7417 75.7888 13.7142C75.6911 13.6987 75.5894 13.7112 75.4894 13.7112C75.3355 13.6177 75.2832 13.4583 75.2194 13.3039C74.0429 10.4504 72.98 7.55196 71.8345 4.68652C71.2755 3.28876 70.7401 1.88151 70.1863 0.481765C70.0737 0.196917 70.3287 0.249389 70.4413 0.168432C70.4752 0.168932 70.5086 0.168932 70.5419 0.168932Z" fill="white"/>
<path d="M70.1473 10.6746C70.1364 10.827 70.0778 10.912 69.9083 10.9329C69.4183 10.9939 68.9282 10.9559 68.4387 10.9629C68.3106 10.9649 67.5368 10.9649 66.5596 10.964C66.3321 10.964 66.0942 10.964 65.8506 10.9634C65.68 10.9629 65.5071 10.9629 65.333 10.9625C65.0906 10.9619 64.8453 10.9614 64.6046 10.9609C64.5678 10.9609 64.4937 10.9605 64.4098 10.9605C64.2076 10.9599 64.0249 11.0819 63.9473 11.2688C63.9203 11.3338 63.8997 11.3852 63.8922 11.4037C63.8106 11.6111 63.7302 11.819 63.6509 12.0273C63.4906 12.4426 63.3332 12.8589 63.1775 13.2762C63.1149 13.4441 63.0322 13.5926 62.8983 13.7115H62.6484C62.3164 13.5985 62.3164 13.5985 62.445 13.2692C62.607 12.8549 62.7696 12.4412 62.9316 12.0269C63.0132 11.819 63.0942 11.6111 63.1758 11.4032C63.2344 11.2543 63.2924 11.1053 63.3504 10.9569H63.351C63.4079 10.811 63.4343 10.7516 63.4883 10.6051C63.5877 10.3343 63.8451 10.2963 64.0846 10.2973H65.5921C65.7668 10.2973 65.9403 10.2978 66.1109 10.2978H66.8221C67.7338 10.2983 68.4428 10.2988 68.5743 10.2988C68.9822 10.2983 69.3895 10.2923 69.7969 10.3003C70.0605 10.3058 70.1651 10.4287 70.1473 10.6746Z" fill="white"/>
<path d="M66.9941 3.51584C66.3271 5.21344 65.7119 6.5817 65.0443 8.27928C65.0144 8.35574 64.9403 8.40624 64.8587 8.40624H64.5675C64.4261 8.40624 64.3296 8.26428 64.3813 8.13336C65.1195 6.25039 65.8043 4.69621 66.5431 2.81372C66.5862 2.70478 66.5845 2.52038 66.7241 2.51588C66.8608 2.51138 66.9217 2.67879 66.9844 2.79273C67.1148 3.0286 67.0895 3.27447 66.9941 3.51584Z" fill="white"/>
<path d="M67.6338 5.09999C67.2081 6.17541 66.8341 6.92099 66.4124 7.99794C66.375 8.09141 66.3388 8.18483 66.3021 8.27881C66.2722 8.35528 66.1981 8.40572 66.1165 8.40572H65.8172C65.6764 8.40572 65.5799 8.26428 65.6311 8.13289C66.1653 6.76611 66.6462 5.72916 67.1805 4.36239C67.2138 4.27893 67.2241 4.158 67.3184 4.13801C67.4264 4.11502 67.4884 4.22546 67.551 4.30092C67.755 4.54729 67.7452 4.81865 67.6338 5.09999Z" fill="white"/>
<path d="M65.7649 12.2508C65.9051 12.2508 66.0021 12.3922 65.951 12.5231C65.8516 12.7785 65.7522 13.0339 65.6534 13.2888C65.5925 13.4457 65.5196 13.5931 65.3978 13.712H65.1479C64.8302 13.5786 64.8285 13.5781 64.9566 13.2503C65.0709 12.9599 65.1841 12.669 65.2978 12.3777C65.3277 12.3013 65.4018 12.2508 65.484 12.2508H65.7649Z" fill="white"/>
<path d="M68.2263 6.7656C67.981 7.38077 67.7891 7.66561 67.5438 8.28026C67.5133 8.35621 67.4398 8.40619 67.3582 8.40619H67.0652C66.9245 8.40619 66.828 8.26429 66.8791 8.13336C67.2031 7.30379 67.4754 6.80404 67.8006 5.97498C67.8339 5.88905 67.8305 5.74863 67.954 5.74513C68.0574 5.74263 68.1143 5.85407 68.1711 5.93454C68.3613 6.19886 68.34 6.47974 68.2263 6.7656Z" fill="white"/>
<path d="M73.1119 13.6792C72.9321 13.7187 72.8298 13.6258 72.7529 13.4289C71.0753 9.13464 69.3915 4.84347 67.7117 0.550264C67.6749 0.456315 67.568 0.340376 67.7375 0.253423C67.9196 0.159973 68.2132 0.187458 68.3126 0.326884C68.3746 0.413837 68.4194 0.514783 68.4597 0.61473C69.3926 2.92999 70.298 5.25675 71.1994 7.58448C71.8848 9.35353 72.5897 11.1151 73.2848 12.8806C73.34 13.0201 73.3963 13.16 73.4342 13.3044C73.5215 13.6352 73.4825 13.6807 73.1119 13.6792Z" fill="white"/>
<path d="M74.3795 13.6759C74.1957 13.7168 74.0842 13.6254 74.0032 13.4175C72.3303 9.13131 70.6499 4.84757 68.9735 0.562864C68.9379 0.471912 68.8448 0.369967 68.985 0.278516C69.1528 0.169074 69.4458 0.181567 69.5664 0.310499C69.66 0.410445 69.702 0.538877 69.7497 0.66281C70.3833 2.30043 70.9935 3.94706 71.653 5.57368C72.6537 8.04086 73.5597 10.546 74.5875 13.0027C74.6323 13.1096 74.6742 13.2206 74.6961 13.3335C74.7593 13.6534 74.7369 13.6759 74.3795 13.6759Z" fill="white"/>
<path d="M70.4411 12.0243C69.8252 12.0298 69.2094 12.0273 68.5941 12.0273C68.3614 12.0273 67.3474 12.0273 66.1416 12.0278H65.1552C65.011 12.0278 64.8811 12.1163 64.8294 12.2507C64.6892 12.61 64.5502 12.9698 64.41 13.3291C64.352 13.479 64.2848 13.6194 64.1458 13.7119H63.9458C63.8982 13.6964 63.8522 13.6764 63.804 13.6664C63.6149 13.6289 63.592 13.529 63.6598 13.3601C63.8384 12.9168 64.0125 12.4726 64.186 12.0278C64.2383 11.8943 64.29 11.7604 64.3423 11.627C64.3945 11.4926 64.5238 11.4041 64.668 11.4041H65.6762C65.9135 11.4041 66.1508 11.4036 66.3857 11.4036C68.0707 11.4036 69.6443 11.4036 70.1044 11.4052C70.3911 11.4061 70.6025 11.6091 70.641 11.8959C70.6651 12.0813 70.5215 12.0238 70.4411 12.0243Z" fill="white"/>
<path d="M69.4287 9.73057C69.1466 9.73258 68.864 9.73109 68.5819 9.73109H63.5602C63.4155 9.73109 63.2862 9.82002 63.2339 9.95548C63.1903 10.0694 63.146 10.1838 63.1024 10.2978C63.0179 10.5167 62.9335 10.7361 62.8484 10.9549C62.7904 11.1044 62.7324 11.2538 62.6738 11.4032C62.5928 11.6116 62.5112 11.8195 62.4296 12.0269C62.263 12.4491 62.0947 12.8704 61.9241 13.2907C61.854 13.4646 61.7776 13.627 61.5966 13.7115H61.3967C61.052 13.611 61.052 13.611 61.1726 13.3042C61.3398 12.8784 61.5058 12.4521 61.673 12.0264C61.754 11.8185 61.835 11.6106 61.9166 11.4022C61.9758 11.2518 62.0349 11.1014 62.0935 10.9505C62.1786 10.7335 62.2636 10.5162 62.3486 10.2988C62.4227 10.1099 62.4968 9.9205 62.5709 9.73109C62.6238 9.59516 62.6772 9.45924 62.7301 9.32331C62.7829 9.1894 62.9116 9.10144 63.0553 9.10092C63.2069 9.10041 63.377 9.10041 63.5614 9.10041C63.7228 9.09995 63.8946 9.09995 64.0744 9.09995C64.3036 9.09943 64.5455 9.09943 64.7948 9.09943H64.7954C64.97 9.09943 65.1487 9.09891 65.3291 9.09943C65.5704 9.09891 65.8146 9.09891 66.057 9.09891H66.5775C66.8234 9.09891 67.0647 9.09891 67.295 9.09943C68.2981 9.09943 69.0978 9.10041 69.2621 9.10144C69.4471 9.10293 69.6051 9.16486 69.6786 9.35629C69.7774 9.61464 69.7022 9.72856 69.4287 9.73057Z" fill="white"/>
<path d="M7.92056 7.83709C8.61771 7.83709 9.21237 7.59321 9.7046 7.10397C10.1964 6.61473 10.4417 5.96555 10.4417 5.157C10.4417 4.50185 10.1883 3.91766 9.6811 3.40494C9.17336 2.89221 8.5872 2.63585 7.92056 2.63585H3.20358C2.7873 2.63585 2.44948 2.97317 2.44948 3.38995V5.10853C2.44948 5.26445 2.57591 5.39137 2.73233 5.39137H2.73783C2.89374 5.39137 3.02068 5.26494 3.02068 5.10853V3.48989C3.02068 3.33397 3.14711 3.20704 3.30352 3.20704H7.92056C8.4283 3.20704 8.88002 3.40693 9.27683 3.80522C9.6726 4.20501 9.87149 4.65527 9.87149 5.1565C9.87149 5.82864 9.68213 6.34788 9.30429 6.71418C8.9265 7.08145 8.46575 7.26535 7.92107 7.26535H2.06269C1.64641 7.26535 1.30859 7.60269 1.30859 8.01949V13.1987C1.30859 13.3546 1.43502 13.4816 1.59144 13.4816H1.59694C1.75285 13.4816 1.87979 13.3551 1.87979 13.1987V8.11991C1.87979 7.96399 2.00622 7.83709 2.16263 7.83709H7.92056Z" fill="white"/>
<path d="M7.92038 6.69505C8.84038 6.69505 9.30015 6.18231 9.30015 5.15687C9.30015 4.78757 9.1637 4.46524 8.89185 4.18988C8.61948 3.91453 8.29518 3.7781 7.92038 3.7781H4.34578C3.92951 3.7781 3.59169 4.11542 3.59169 4.5322V5.10839C3.59169 5.26431 3.71811 5.39124 3.87453 5.39124H3.87903C4.03495 5.39124 4.16188 5.26481 4.16188 5.10839V4.63115C4.16188 4.47523 4.28831 4.3483 4.44472 4.3483H7.92038C8.14725 4.3483 8.33965 4.42576 8.49505 4.57818C8.65045 4.73159 8.72893 4.92499 8.72893 5.15687C8.72893 5.51668 8.65849 5.76754 8.51504 5.91096C8.37262 6.05339 8.17373 6.12486 7.92038 6.12486H0.92011C0.503835 6.12486 0.166016 6.46215 0.166016 6.87894V13.1995C0.166016 13.3555 0.292448 13.4824 0.448864 13.4824H0.454361C0.610278 13.4824 0.73721 13.356 0.73721 13.1995V6.97787C0.73721 6.82195 0.863643 6.69505 1.02006 6.69505H7.92038Z" fill="white"/>
<path d="M7.92056 8.97872C8.57071 8.97872 9.17491 8.81677 9.73211 8.49149C10.2898 8.16616 10.7375 7.70938 11.0759 7.12023C11.4142 6.52999 11.5836 5.87637 11.5836 5.15725C11.5836 4.52309 11.4157 3.92341 11.0803 3.35822C10.744 2.79302 10.2933 2.34026 9.72809 2.00194C9.1629 1.66362 8.5602 1.49471 7.92056 1.49471H2.06269C1.64641 1.49471 1.30859 1.83203 1.30859 2.24881V5.10878C1.30859 5.2647 1.43502 5.39163 1.59144 5.39163H1.59694C1.75285 5.39163 1.87979 5.2652 1.87979 5.10878V2.34775C1.87979 2.19184 2.00622 2.06491 2.16263 2.06491H7.92056C8.73962 2.06491 9.45975 2.37674 10.0814 3.0009C10.7026 3.62457 11.0124 4.34369 11.0124 5.15725C11.0124 5.78692 10.868 6.35213 10.5806 6.85435C10.2923 7.35658 9.91452 7.74137 9.44676 8.00771C8.97849 8.27456 8.46926 8.40802 7.92004 8.40802H3.20308C2.7868 8.40802 2.44898 8.74536 2.44898 9.1621V13.199C2.44898 13.3549 2.57541 13.4818 2.73183 13.4818H2.73733C2.89324 13.4818 3.02018 13.3553 3.02018 13.199V9.26103C3.02018 9.10517 3.14661 8.97821 3.30302 8.97821H7.92056V8.97872Z" fill="white"/>
<path d="M12.0666 2.78665C11.6274 2.04705 11.0387 1.45586 10.2986 1.0151C9.55902 0.573336 8.76541 0.352453 7.91987 0.352453H0.92011C0.503835 0.352453 0.166016 0.689773 0.166016 1.10655V5.10841C0.166016 5.26433 0.292448 5.39126 0.448864 5.39126H0.454361C0.610278 5.39126 0.73721 5.26483 0.73721 5.10841V1.2065C0.73721 1.05058 0.863643 0.92365 1.02006 0.92365H7.92038C8.66596 0.92365 9.36512 1.11754 10.0172 1.50584C10.6704 1.89413 11.1896 2.41535 11.5749 3.0685C11.9612 3.72066 12.1546 4.41728 12.1546 5.15688C12.1546 5.77606 12.0407 6.35822 11.8133 6.90497C11.5864 7.45263 11.2811 7.91688 10.8973 8.30071C10.5135 8.68453 10.0632 8.98786 9.54597 9.21272C9.02778 9.43711 8.48557 9.54903 7.92038 9.54903H4.34578C3.9295 9.54903 3.59169 9.88637 3.59169 10.3031V13.1991C3.59169 13.355 3.71811 13.4819 3.87453 13.4819H3.87903C4.03495 13.4819 4.16188 13.3555 4.16188 13.1991V10.4031C4.16188 10.2472 4.28831 10.1202 4.44473 10.1202H7.92038C8.56502 10.1202 9.1787 10.0053 9.75986 9.77543C10.3416 9.54552 10.8513 9.22122 11.2905 8.80396C11.7288 8.38665 12.0777 7.86242 12.3365 7.23031C12.5959 6.59911 12.7248 5.90798 12.7248 5.15688C12.7248 4.31733 12.5049 3.52626 12.0666 2.78665Z" fill="white"/>
</g>
<defs>
<clipPath id="clip0_252_476">
<rect width="75.8334" height="13.7879" fill="white" transform="translate(0.166016 0.168446)"/>
</clipPath>
</defs>
</svg>
