<svg width="32" height="32" viewBox="0 0 32 32" fill="none" xmlns="http://www.w3.org/2000/svg">
<circle cx="16" cy="16" r="16" fill="#FFF0EA"/>
<path d="M21.1421 11.1423C21.1421 8.30683 18.8352 6 15.9998 6C13.1643 6 10.8574 8.30683 10.8574 11.1423C10.8574 13.6741 12.6966 15.7843 15.1092 16.2072V24.6074C15.1092 25.3752 15.6266 25.9999 16.2628 25.9999C16.8989 25.9999 17.4165 25.3752 17.4165 24.6074V24.2019H18.7458C19.1809 24.2019 19.5349 23.8479 19.5349 23.4128V22.3151C19.5349 21.88 19.1809 21.526 18.7458 21.526H17.4165V16.0861C19.5652 15.4695 21.1421 13.4866 21.1421 11.1423ZM15.9998 14.0367C14.4012 14.0367 13.1053 12.7408 13.1053 11.1423C13.1053 9.54376 14.4012 8.24786 15.9998 8.24786C17.5983 8.24786 18.8942 9.54376 18.8942 11.1423C18.8942 12.7408 17.5983 14.0367 15.9998 14.0367Z" fill="#FC804A"/>
</svg>
