<svg width="468" height="335" viewBox="0 0 468 335" fill="none" xmlns="http://www.w3.org/2000/svg">
<path d="M19.166 293.615C19.166 293.615 25.825 314.543 43.7752 313.405C61.7255 312.268 68.3017 309.786 81.4128 314.543C93.49 318.927 100.17 328.915 120.912 325.896C141.654 322.856 145.996 326.806 167.938 331.356C189.879 335.905 259.695 335.533 277.108 332.41C294.52 329.267 324.279 330.115 345.559 322.794C363.798 316.507 363.343 315.391 370.788 312.268C380.011 308.401 384.582 309.911 394.963 305.981C405.344 302.052 418.993 293.656 418.993 293.656H19.166V293.615Z" fill="#F9BD64"/>
<path d="M76.5105 322.753C76.5105 324.8 73.9255 326.455 70.7201 326.455C67.5147 326.455 64.9297 324.8 64.9297 322.753C64.9297 320.706 67.5147 319.465 70.7201 319.465C73.9255 319.465 76.5105 320.706 76.5105 322.753Z" fill="#F9BD64"/>
<path d="M372.277 316.363C372.277 314.956 374.056 313.819 376.248 313.819C378.44 313.819 380.218 314.956 380.218 316.363C380.218 317.769 378.44 318.637 376.248 318.637C374.056 318.637 372.277 317.769 372.277 316.363Z" fill="#F9BD64"/>
<path d="M4.15039 293.615H455.967" stroke="#F8A54F" stroke-width="7.38572" stroke-miterlimit="10" stroke-linecap="round" stroke-linejoin="round"/>
<path d="M279.511 59.4549L203.077 64.3768C203.057 63.9011 203.057 63.4048 203.057 62.9292C203.057 62.5569 203.057 62.1847 203.077 61.8331C203.615 39.0438 220.552 20.7626 241.356 20.7626C258.21 20.7626 272.541 32.7777 277.649 49.4458C278.621 52.6098 279.262 55.9807 279.511 59.4549Z" fill="#0064C8"/>
<path d="M265.425 29.1587C265.425 29.1587 254.568 23.3683 274.111 6.92773C274.731 19.4391 271.071 28.0213 265.425 29.1587Z" fill="#0061CB"/>
<path d="M266.521 30.0273C266.521 30.0273 269.623 22.2309 288.256 26.6772C279.322 32.6123 269.83 33.6877 266.521 30.0273Z" fill="#0061CB"/>
<path d="M269.346 31.4552C270.383 29.9087 269.685 27.624 267.787 26.3521C265.89 25.0802 263.511 25.3028 262.475 26.8493C261.438 28.3958 262.136 30.6805 264.033 31.9524C265.931 33.2243 268.31 33.0016 269.346 31.4552Z" fill="#0061CB" stroke="#F9BD64" stroke-width="2.95429" stroke-miterlimit="10"/>
<path d="M269.346 31.4552C270.383 29.9087 269.685 27.624 267.787 26.3521C265.89 25.0802 263.511 25.3028 262.475 26.8493C261.438 28.3958 262.136 30.6805 264.033 31.9524C265.931 33.2243 268.31 33.0016 269.346 31.4552Z" fill="#0061CB" stroke="#F9BD64" stroke-width="2.95429" stroke-miterlimit="10"/>
<path d="M289.936 115.684C291.011 100.712 288.075 95.2728 276.783 90.2476C270.931 87.6419 271.386 80.0937 275.563 71.2633L278.045 72.1526L280.299 73.0004C280.299 73.0004 282.842 61.8953 277.548 50.1077C274.322 42.9317 268.263 34.5977 256.455 31.0821C230.708 23.4098 214.598 36.3761 206.533 57.9247C206.347 58.421 206.14 58.8967 205.933 59.3516C202.439 66.8171 194.518 71.3874 186.246 70.2914C186.081 70.2707 185.895 70.25 185.708 70.2086C174.396 68.4095 151.111 72.2766 152.62 93.1014C146.685 89.5238 137.462 95.1694 135.932 103.173C162.402 109.79 301.413 142.589 301.413 142.589C301.413 142.589 306.066 121.268 289.936 115.684Z" fill="#F52A21"/>
<path d="M198.241 80.2177C195.056 81.8721 191.334 83.5472 190.217 86.9801C189.183 90.1441 190.796 93.7425 189.618 96.8651C188.294 100.36 184.158 101.704 181.18 103.958C177.871 106.481 175.783 110.659 176.093 114.795C176.403 118.931 179.278 122.881 183.228 124.142C186.929 125.321 191.107 124.163 194.229 121.826C197.352 119.489 199.544 116.139 201.323 112.685C206.761 102.035 208.581 89.896 208.726 77.9429C208.747 75.5027 207.237 69.4435 204.59 73.4554C202.667 76.4333 201.653 78.4599 198.241 80.2177Z" fill="#D6261D"/>
<path d="M152.641 93.1221C152.641 93.1221 153.551 97.9406 156.715 100.712" stroke="#BF3028" stroke-width="3.69286" stroke-miterlimit="10" stroke-linecap="round" stroke-linejoin="round"/>
<path d="M289.936 115.684C289.936 115.684 287.702 114.216 282.863 113.947" stroke="#BF3028" stroke-width="3.69286" stroke-miterlimit="10" stroke-linecap="round" stroke-linejoin="round"/>
<path d="M217.41 56.7253C217.41 56.7253 218.465 60.0134 218.031 64.3769" stroke="#BF3028" stroke-width="3.69286" stroke-miterlimit="10" stroke-linecap="round" stroke-linejoin="round"/>
<path d="M229.096 53.6853L230.585 49.1357" stroke="#BF3028" stroke-width="3.69286" stroke-miterlimit="10" stroke-linecap="round" stroke-linejoin="round"/>
<path d="M397.513 168.439L378.342 222.62L377.784 224.213L368.643 250.042L368.292 251.014L356.256 285.012L356.215 285.115C355.925 286.149 355.573 287.163 355.16 288.134C351.748 296.22 344.406 301.825 336.072 303.19C335.679 303.252 335.286 303.314 334.893 303.355C331.833 303.707 328.648 303.5 325.484 302.61C320.583 301.266 315.889 299.116 311.773 296.303C307.658 293.47 304.101 289.954 301.475 285.839L346.412 159.546L397.513 168.439Z" fill="white"/>
<path d="M386.471 173.298L390.69 162.152C390.69 162.152 398.217 163.951 397.162 168.645C396.19 173.05 386.471 173.298 386.471 173.298Z" fill="#1A1B16"/>
<path d="M382.452 173.485C382.37 173.857 382.287 174.229 382.204 174.601C381.687 177.021 381.17 179.523 380.012 181.777C379.102 183.577 377.613 185.19 375.938 186.162C374.697 186.885 373.415 187.258 372.154 187.258C371.492 187.258 370.851 187.154 370.23 186.947C368.617 186.389 367.273 185.19 366.363 183.432C365.578 181.901 365.164 180.04 365.185 178.2C365.205 176.752 365.453 175.305 365.743 173.898C364.378 176.359 362.6 178.593 360.47 180.433C357.864 182.708 354.121 183.804 351.991 181.571C350.564 180.061 350.709 177.786 350.915 176.194C351.432 172.43 352.673 168.79 354.555 165.482C354.845 165.668 355.155 165.833 355.444 165.999C353.645 169.183 352.446 172.699 351.949 176.339C351.639 178.51 351.908 179.958 352.756 180.847C354.41 182.605 357.616 181.529 359.787 179.647C362.538 177.269 364.688 174.209 366.053 170.817C366.508 170.962 366.942 171.107 367.397 171.251C367.315 171.582 367.253 171.913 367.17 172.244C366.715 174.188 366.26 176.215 366.219 178.2C366.157 181.219 367.501 184.921 370.541 185.955C373.829 187.072 377.469 184.466 379.082 181.281C380.178 179.151 380.695 176.711 381.191 174.374C381.253 174.084 381.315 173.774 381.377 173.464C381.749 173.485 382.101 173.485 382.452 173.485Z" fill="#F77C2D"/>
<path d="M332.616 267C332.41 267 332.203 266.876 332.141 266.669C332.037 266.4 332.182 266.11 332.451 266.007C337.869 263.96 342.543 259.865 345.252 254.736C347.258 250.952 346.679 248.243 345.479 246.94C344.59 245.989 342.646 245.12 340.144 245.885C339.751 246.009 339.379 246.154 339.007 246.32C337.414 247.519 335.946 248.47 334.85 249.07C334.622 249.194 334.312 249.132 334.167 248.905C334.023 248.677 334.064 248.388 334.292 248.222C335.532 247.25 336.897 246.196 338.428 245.472C343.411 241.687 349.615 235.318 347.713 230.272C347.113 228.68 346.121 227.728 344.632 227.315C340.454 226.177 333.899 230.024 331.396 232.071C331.169 232.257 330.859 232.216 330.672 232.009C330.486 231.802 330.507 231.471 330.714 231.285C331.458 230.624 332.224 229.941 333.051 229.197C339.172 223.799 346.803 217.099 343.246 211.619C342.274 210.109 340.992 209.302 339.462 209.199C336.235 208.992 332.72 211.805 331.603 213.128C331.417 213.356 331.086 213.376 330.879 213.19C330.652 213.004 330.631 212.673 330.817 212.467C332.079 210.978 335.884 207.958 339.524 208.186C341.405 208.31 342.956 209.282 344.115 211.06C347.692 216.582 341.819 222.724 335.967 227.997C338.924 226.57 342.295 225.619 344.88 226.322C346.679 226.798 347.94 228.018 348.643 229.9C350.505 234.842 345.769 240.612 341.054 244.645C343.06 244.396 344.983 244.975 346.183 246.258C347.196 247.354 347.672 248.884 347.527 250.662C347.423 252.089 346.906 253.702 346.1 255.233C343.267 260.568 338.407 264.849 332.761 266.979C332.74 266.979 332.678 267 332.616 267Z" fill="#F77C2D"/>
<path d="M378.32 222.62L377.762 224.213C377.265 222.352 376.19 220.511 374.329 219.829C372.447 219.125 369.593 219.911 368.104 222.414C366.946 224.357 366.739 227.046 367.566 229.776C368.001 231.223 368.662 232.588 369.428 233.912C370.441 234.698 371.103 235.794 371.268 236.972C371.309 237.22 371.165 237.448 370.937 237.531C370.71 237.613 370.462 237.531 370.317 237.324C369.759 236.435 369.179 235.545 368.642 234.615C368.518 234.532 368.394 234.449 368.249 234.367C366.987 233.622 365.416 233.457 364.154 233.932C361.776 234.842 360.184 237.675 360.432 240.529C360.659 243.032 362.169 245.596 364.589 247.56C365.829 248.574 367.215 249.36 368.642 250.063L368.29 251.035C366.76 250.311 365.292 249.442 363.947 248.367C361.321 246.237 359.667 243.404 359.419 240.633C359.129 237.283 360.97 234.056 363.803 232.981C365.043 232.505 366.45 232.526 367.753 233.002C367.298 232.071 366.884 231.099 366.574 230.086C365.664 227.087 365.912 224.089 367.236 221.897C368.828 219.25 372.116 217.926 374.722 218.877C376.025 219.374 377.451 220.573 378.32 222.62Z" fill="#F77C2D"/>
<path d="M356.231 285.033L356.19 285.136C355.901 286.17 355.549 287.183 355.135 288.155C355.156 287.68 355.197 287.204 355.197 286.728C355.28 282.799 354.68 279.759 353.481 278.167C352.778 277.236 351.889 276.823 350.772 276.926C349.697 277.03 348.828 277.464 348.166 278.291C345.478 281.62 346.512 289.934 347.132 294.918C347.215 295.6 347.298 296.221 347.36 296.779C347.401 297.048 347.194 297.296 346.946 297.337C346.677 297.379 346.408 297.213 346.346 296.944C345.767 294.608 344.816 292.746 343.472 291.444C341.9 289.934 339.77 289.231 337.93 289.603C335.613 290.079 333.69 292.374 333.339 295.042C333.028 297.379 333.794 299.984 335.469 302.404C335.655 302.673 335.841 302.921 336.048 303.19C335.655 303.252 335.262 303.314 334.869 303.355C334.786 303.231 334.704 303.128 334.621 303.004C332.801 300.377 331.974 297.503 332.325 294.918C332.739 291.774 334.972 289.189 337.744 288.61C339.936 288.155 342.397 288.962 344.216 290.72C344.857 291.34 345.416 292.043 345.891 292.87C345.312 287.742 344.837 280.835 347.401 277.65C348.249 276.595 349.366 276.016 350.731 275.892C352.199 275.768 353.419 276.326 354.35 277.547C355.59 279.222 356.149 282.034 356.231 285.033Z" fill="#F77C2D"/>
<path d="M356.399 198.549C356.978 197.68 357.743 197.184 358.467 197.66C359.191 198.135 359.294 199.231 358.715 200.1C358.136 200.968 356.854 201.61 356.13 201.134C355.406 200.658 355.82 199.417 356.399 198.549Z" fill="#F77C2D"/>
<path d="M353.069 260.837C352.552 259.927 352.449 259.017 353.193 258.604C353.938 258.169 354.972 258.562 355.489 259.472C356.006 260.382 356.027 261.809 355.282 262.243C354.517 262.657 353.586 261.726 353.069 260.837Z" fill="#F77C2D"/>
<path d="M354.807 120.13C351.705 107.722 349.741 96.5135 353.959 95.4588C361.135 93.6597 369.263 120.544 369.263 120.544L384.421 99.4501C384.421 99.4501 387.875 72.2972 395.588 73.1244C403.302 73.9516 395.588 102.759 395.588 102.759C395.588 102.759 402.888 101.373 404.005 109.645C408.555 108.818 414.552 115.849 410.892 121.909C397.036 144.905 386.779 172.947 386.779 172.947C372.613 175.635 359.44 167.922 347.776 160.994L346.391 159.546C346.391 159.567 357.909 132.538 354.807 120.13Z" fill="#F8934F"/>
<path d="M395.609 102.78C395.609 102.78 395.733 102.759 395.961 102.738C394.637 103.048 393.355 103.483 392.114 104.041C391.349 104.393 389.198 106.068 388.557 105.613C386.655 104.289 389.653 98.7676 390.439 97.5268C392.093 94.9418 394.182 92.5636 395.03 89.6064C396.312 85.1188 394.451 80.1349 395.878 75.6681C396.105 74.9443 396.478 74.1998 397.077 73.7655C402.227 78.0669 395.609 102.78 395.609 102.78Z" fill="#F77C2D"/>
<path d="M404.085 109.645C403.733 109.811 403.485 109.914 403.485 109.914C403.485 109.914 394.531 111.176 388.802 116.614C383.074 122.053 382.123 129.023 383.177 130.842C381.006 131.463 379.145 131.525 378.255 130.057C377.366 128.568 379.207 119.944 385.969 114.609C389.754 111.631 397.695 106.192 402.43 105.323C403.175 106.337 403.754 107.743 404.023 109.645C404.043 109.666 404.064 109.645 404.085 109.645Z" fill="#F77C2D"/>
<path d="M410.912 121.929C397.056 144.925 386.799 172.968 386.799 172.968C384.648 173.381 382.518 173.547 380.409 173.505C380.264 173.092 380.161 172.657 380.078 172.223C379.623 169.741 380.099 167.156 381.195 164.882C383.49 160.146 388.453 156.775 389.611 151.646C390.025 149.827 389.901 147.924 390.149 146.063C390.521 143.312 391.7 140.665 393.499 138.556C395.464 136.281 398.07 134.668 400.448 132.807C402.826 130.946 405.059 128.671 405.804 125.734C406.156 124.349 406.052 122.694 404.997 121.764C403.798 120.688 401.937 120.957 400.406 121.495C398.194 122.281 397.098 124.204 395.03 125.3C390.79 127.596 389.136 135.392 385.331 132.207C383.78 130.925 386.882 125.755 387.936 124.142C389.301 122.053 391.018 120.171 392.962 118.6C397.118 115.27 402.433 113.388 407.769 113.368C408.782 113.368 409.857 113.45 410.85 113.678C412.215 116.097 412.608 119.117 410.912 121.929Z" fill="#F77C2D"/>
<path d="M362.748 141.1C362.396 147.283 356.047 151.378 354.041 157.23C353.318 159.381 353.194 161.697 352.677 163.889C351.001 162.938 349.368 161.966 347.755 161.014L346.369 159.546C346.369 159.546 357.888 132.517 354.786 120.109C351.684 107.701 349.719 96.5135 353.938 95.4382C354.517 95.2934 355.096 95.3348 355.696 95.5416C355.013 97.8991 354.393 99.264 354.848 102.118C355.82 108.115 358.984 113.595 359.439 119.696C359.687 122.943 359.129 126.231 359.729 129.415C360.494 133.407 362.975 137.088 362.748 141.1Z" fill="#F9AF79"/>
<path d="M369.262 120.564C369.262 120.564 372.715 128.423 372.715 134.772" stroke="#BF3028" stroke-width="3.69286" stroke-miterlimit="10" stroke-linecap="round" stroke-linejoin="round"/>
<path d="M382.497 131.173C382.497 131.173 374.225 133.096 376.851 121.392C379.477 109.666 395.608 102.78 395.608 102.78" stroke="#BF3028" stroke-width="3.69286" stroke-miterlimit="10" stroke-linecap="round" stroke-linejoin="round"/>
<path d="M404.005 109.666C404.005 109.666 389.633 110.907 383.863 124.204C382.891 126.417 381.63 130.119 383.842 132.062C385.455 133.489 387.73 133.034 389.157 131.607C390.77 129.994 392.011 128.071 393.707 126.5C395.816 124.556 398.236 122.798 400.862 121.598C400.965 121.557 401.089 121.495 401.193 121.454" stroke="#BF3028" stroke-width="3.25658" stroke-miterlimit="10" stroke-linecap="round" stroke-linejoin="round"/>
<path d="M346.391 159.567C349.12 161.862 351.85 163.806 354.601 165.461C354.89 165.647 355.2 165.812 355.49 165.978C359.088 168.066 362.645 169.638 366.099 170.796C366.554 170.941 366.988 171.086 367.443 171.23C372.489 172.781 377.245 173.443 381.423 173.464C381.774 173.464 382.126 173.464 382.477 173.464C390.997 173.319 396.829 170.569 397.139 167.839C397.656 163.475 391.494 162.379 391.494 162.379" stroke="#1A1B16" stroke-width="3.69286" stroke-miterlimit="10" stroke-linecap="round" stroke-linejoin="round"/>
<path d="M155.991 208.02L167.924 186.347C157.915 191.414 132.147 184.424 122.717 166.908L89.898 216.582L64.0273 246.154L85.3484 171.995L85.6586 170.899C86.4651 168.087 87.2717 165.274 88.0782 162.462C89.7739 156.548 91.4904 150.612 93.1861 144.698C94.6958 139.424 96.2261 134.151 97.7357 128.857C99.0799 124.183 100.486 119.654 103.216 115.58C105.511 112.148 108.469 109.17 111.86 106.812C118.747 102.035 127.308 100.029 135.58 101.228C136.304 101.332 137.048 101.477 137.772 101.621L189.927 112.83L188.976 115.105C189.886 118.496 193.939 129.229 209.346 132.186C227.751 135.702 235.506 128.361 235.506 128.361L237.863 123.149C237.863 123.149 283.98 133.055 284.001 133.055C287.309 133.758 290.515 134.834 293.596 136.24C296.615 137.625 299.49 139.342 302.137 141.348C304.763 143.333 307.183 145.587 309.334 148.089C311.815 150.985 313.945 154.19 315.662 157.602C317.316 160.911 318.578 164.447 319.384 168.066C319.736 169.597 320.004 171.148 320.191 172.719L324.285 206.8L155.991 208.02Z" fill="white"/>
<path d="M100.175 121.267C101.664 120.42 103.111 120.006 104.456 120.006C106.503 120.027 108.364 121.164 108.985 122.798C109.44 123.997 109.315 125.528 108.571 127.306C107.082 130.904 104.311 133.758 101.374 136.24C99.7819 136.777 98.4998 137.811 97.7346 139.197C97.6106 139.404 97.6519 139.673 97.8587 139.838C98.0448 140.004 98.3137 140.004 98.5205 139.859C99.5958 139.032 100.754 138.142 101.891 137.17C102.305 137.046 102.739 136.943 103.215 136.902C105.448 136.653 107.661 137.398 109.005 138.887C111.673 141.803 111.383 147.014 108.385 150.013C105.593 152.846 100.919 153.714 96.7627 152.184C96.5145 152.101 96.225 152.205 96.1216 152.453C96.0182 152.701 96.1009 152.991 96.3491 153.115C98.6652 154.397 100.444 156.754 101.209 159.567C101.974 162.4 101.622 165.316 100.258 167.591C98.8927 169.865 96.4732 171.541 93.64 172.202C92.027 172.575 90.3105 172.616 88.6768 172.223C87.6014 171.975 86.5468 171.603 85.6989 170.899L85.3887 171.996C85.4094 172.016 85.43 172.037 85.4714 172.058C86.1538 172.513 86.919 172.802 87.6841 173.03C88.7802 173.36 89.9176 173.526 91.0757 173.526C92.0063 173.526 92.9369 173.422 93.8675 173.195C96.9902 172.471 99.6372 170.61 101.147 168.108C102.656 165.605 103.029 162.379 102.202 159.298C101.622 157.147 100.506 155.245 99.0168 153.797C102.801 154.355 106.648 153.239 109.15 150.716C112.5 147.324 112.81 141.451 109.791 138.163C108.302 136.509 105.883 135.64 103.442 135.826C105.924 133.551 108.24 130.904 109.543 127.72C110.391 125.672 110.536 123.894 109.957 122.446C109.191 120.44 106.937 119.013 104.476 118.993H104.414C103.256 118.993 102.077 119.261 100.857 119.799L100.175 121.267Z" fill="#F77C2D"/>
<path d="M229.383 179.192C229.28 179.192 229.176 179.151 229.073 179.089C228.845 178.923 228.783 178.592 228.949 178.365C230.189 176.648 231.782 175.242 233.312 173.898C234.181 173.133 235.07 172.368 235.877 171.54C237.428 169.969 239.909 166.825 239.247 163.413C238.668 160.456 235.546 158.098 232.154 158.057C229.197 158.016 226.012 159.505 223.448 162.172C223.055 162.586 222.662 163.02 222.31 163.455C221.194 166.102 219.663 168.563 217.781 170.734C217.616 170.941 217.306 170.961 217.099 170.817C216.892 170.672 216.809 170.382 216.934 170.155C218.257 167.694 219.622 165.171 221.421 162.938C221.959 161.635 222.393 160.291 222.703 158.926C223.241 156.61 223.096 154.955 222.269 153.818C221.566 152.866 220.532 152.556 219.787 152.474C218.319 152.308 216.727 152.804 215.589 153.756C213.521 155.513 212.57 158.429 211.805 160.766C211.722 161.035 211.433 161.18 211.143 161.097C210.874 161.014 210.73 160.725 210.812 160.435C211.619 157.974 212.611 154.914 214.907 152.97C216.251 151.832 218.154 151.233 219.891 151.44C221.256 151.605 222.352 152.205 223.096 153.218C224.11 154.604 224.316 156.547 223.696 159.174C223.551 159.774 223.386 160.373 223.22 160.952C225.888 158.409 229.114 157.002 232.154 157.044C236.042 157.106 239.599 159.815 240.261 163.248C241.005 167.136 238.296 170.589 236.6 172.306C235.773 173.154 234.863 173.939 233.995 174.705C232.485 176.028 230.934 177.372 229.776 179.006C229.714 179.109 229.548 179.192 229.383 179.192Z" fill="#F77C2D"/>
<path d="M312.559 152.35C310.904 154.666 308.113 156.444 305.279 156.444C304.411 156.444 303.542 156.279 302.715 155.907C299.386 154.459 298.186 150.819 297.731 147.283C297.318 148.793 296.78 150.302 295.953 151.667C294.65 153.818 292.148 156.093 289.004 156.093H288.963C286.936 156.072 285.013 155.079 283.545 153.26C282.221 151.605 281.415 149.434 281.332 147.324C281.291 146.042 281.456 144.76 281.746 143.519C280.215 145.277 278.416 146.787 276.389 147.965C272.564 150.199 267.29 150.447 265.14 147.014C263.94 145.112 263.981 142.547 265.243 139.363C266.566 136.012 268.572 132.91 271.054 130.305L272.253 130.553C269.648 133.159 267.559 136.302 266.194 139.735C265.057 142.589 264.995 144.863 266.008 146.456C267.208 148.379 271.075 149.847 275.852 147.056C278.602 145.463 280.96 143.168 282.697 140.5C283.379 138.784 284.227 137.171 284.972 135.702C285.096 135.454 285.385 135.351 285.633 135.454C285.882 135.557 286.006 135.826 285.923 136.095C285.365 137.812 284.579 139.466 283.607 140.996C282.821 143.002 282.263 145.112 282.345 147.283C282.469 150.943 285.199 155.017 288.942 155.059H288.984C291.693 155.059 293.905 153.032 295.043 151.13C296.408 148.855 296.945 146.187 297.483 143.602C297.524 143.354 297.773 143.168 298.041 143.188C298.31 143.209 298.496 143.437 298.517 143.685C298.683 152.081 301.226 154.149 303.108 154.976C305.652 156.072 309.622 155.017 311.897 151.44C312.145 151.729 312.352 152.039 312.559 152.35Z" fill="#F77C2D"/>
<path d="M272.459 185.148C272.252 185.148 272.066 185.024 271.983 184.817C270.908 182.087 269.853 176.38 271.653 172.719C272.418 171.148 273.638 170.114 275.251 169.659C276.554 169.286 277.856 169.576 279.097 170.506C280.793 171.789 282.179 174.208 283.109 176.628C283.171 176.173 283.275 175.697 283.399 175.242C284.102 172.678 285.839 170.631 287.969 169.907C291.423 168.728 295.083 171.065 296.758 173.857C298.536 176.793 298.847 180.329 299.136 183.431C299.157 183.721 298.95 183.969 298.661 183.99C298.371 184.011 298.123 183.804 298.102 183.514C297.833 180.516 297.523 177.103 295.869 174.374C293.883 171.086 290.492 170.114 288.279 170.879C286.48 171.499 284.97 173.278 284.371 175.511C283.978 176.959 283.936 178.489 284.06 179.978C284.226 180.784 284.309 181.529 284.288 182.149C284.288 182.418 284.081 182.646 283.812 182.666C283.543 182.687 283.295 182.48 283.275 182.211C283.171 181.508 283.089 180.805 283.026 180.081C282.427 177.041 280.69 173.009 278.477 171.334C277.505 170.61 276.512 170.382 275.54 170.651C274.217 171.023 273.224 171.871 272.604 173.174C271.032 176.359 271.859 181.674 272.955 184.445C273.059 184.714 272.935 185.003 272.666 185.107C272.583 185.127 272.521 185.148 272.459 185.148Z" fill="#F77C2D"/>
<path d="M248.45 143.623C249.174 144.367 249.525 145.215 248.905 145.815C248.285 146.414 247.209 146.311 246.465 145.567C245.741 144.822 245.348 143.436 245.948 142.837C246.548 142.237 247.706 142.878 248.45 143.623Z" fill="#F77C2D"/>
<path d="M88.0364 192.82C88.1398 191.972 88.4914 191.311 89.1945 191.393C89.8976 191.476 90.3939 192.221 90.2905 193.068C90.1871 193.916 89.5047 194.868 88.8016 194.806C88.1191 194.723 87.933 193.668 88.0364 192.82Z" fill="#F77C2D"/>
<path d="M129.211 140.376C128.797 139.631 128.735 138.887 129.355 138.535C129.976 138.204 130.803 138.535 131.216 139.28C131.63 140.024 131.609 141.203 130.989 141.555C130.369 141.885 129.603 141.12 129.211 140.376Z" fill="#F77C2D"/>
<path d="M171.935 114.857C171.418 117.276 170.57 118.91 169.288 119.985C168.874 120.337 168.419 120.606 167.923 120.812C165.028 122.053 161.223 120.709 159.155 118.31C157.314 116.201 156.404 113.45 155.805 110.865C155.329 113.14 154.605 115.456 153.096 117.359C151.069 119.944 147.057 121.536 144.079 119.613C141.535 117.979 141.039 114.629 140.977 112.768C140.853 109.335 141.68 105.861 143.293 102.821L144.348 103.048C142.735 105.985 141.887 109.397 142.011 112.727C142.073 114.381 142.507 117.359 144.658 118.744C147.057 120.295 150.552 118.951 152.31 116.718C154.212 114.278 154.791 111.01 155.288 108.136C155.329 107.887 155.536 107.722 155.784 107.701C156.032 107.701 156.239 107.867 156.301 108.115C156.942 111.341 157.666 115.001 159.961 117.628C162.05 120.047 166.145 121.267 168.647 119.179C169.743 118.269 170.467 116.821 170.942 114.629C171.356 112.727 171.521 110.803 171.418 108.88L172.452 109.108C172.514 111.01 172.349 112.954 171.935 114.857Z" fill="#F77C2D"/>
<path d="M336.174 206.862H163.806L131.008 182.17H303.396L336.174 206.862Z" fill="#C9CDF0"/>
<path d="M261.88 172.023L209.535 181.222L220.614 244.261L272.959 235.061L261.88 172.023Z" fill="#5FAEF2"/>
<path d="M234.516 165.287L162.811 147.896L141.861 234.272L213.566 251.663L234.516 165.287Z" fill="#0064C8"/>
<path d="M150.474 206.862V321.016L97.2441 307.429V295.889C104.048 293.491 123.466 276.202 150.474 206.862Z" fill="#C9CEEF"/>
<path d="M336.181 206.862H150.475V321.016H336.181V206.862Z" fill="#EDE3EB"/>
<path d="M294.533 282.075C294.533 282.82 294.491 283.564 294.429 284.288H185.156C185.094 283.564 185.053 282.82 185.053 282.075C185.053 269.543 195.207 259.389 207.739 259.389C210.82 259.389 213.757 259.989 216.424 261.106C219.113 248.429 230.363 238.916 243.846 238.916C256.709 238.916 267.566 247.581 270.854 259.41C271.206 259.389 271.537 259.389 271.888 259.389C284.379 259.389 294.533 269.543 294.533 282.075Z" fill="#C9CEEF"/>
<path d="M294.428 284.288C294.49 283.564 294.531 282.82 294.531 282.075C294.531 269.543 284.377 259.389 271.845 259.389C271.494 259.389 271.163 259.389 270.811 259.41C267.523 247.581 256.666 238.916 243.803 238.916C230.32 238.916 219.07 248.429 216.381 261.106C213.714 259.989 210.777 259.389 207.696 259.389C195.164 259.389 185.01 269.543 185.01 282.075C185.01 282.82 185.051 283.564 185.113 284.288" stroke="#F3EDF3" stroke-width="4.43143" stroke-miterlimit="10" stroke-linecap="round" stroke-linejoin="round"/>
<path d="M256.915 271.735H247.836V284.288H234.932V271.735H225.854L233.609 264.166L241.384 256.618L249.16 264.166L256.915 271.735Z" fill="#EDE3EB"/>
<path d="M150.475 320.188V206.862" stroke="#F3EDF3" stroke-width="5.90857" stroke-miterlimit="10" stroke-linecap="round" stroke-linejoin="round"/>
<path d="M161.531 179.978L157.912 188.25C157.912 188.25 166.536 190.525 167.921 186.347C169.017 183.039 161.531 179.978 161.531 179.978Z" fill="#1A1B16"/>
<path d="M122.716 166.929L89.8971 216.602L77.4064 199.583L64.0264 246.154C64.0264 246.154 51.06 285.446 81.8319 295.703C102.677 302.652 118.663 278.58 128.01 258.562L155.97 208.041L168.005 187.547C158.038 192.572 132.146 184.424 122.716 166.929Z" fill="white"/>
<path d="M167.882 186.451L167.221 187.671C167.531 187.381 167.758 187.03 167.862 186.596C167.862 186.534 167.862 186.492 167.882 186.451Z" fill="white"/>
<path d="M85.3848 245.306C85.9638 244.438 86.729 243.941 87.4528 244.417C88.1765 244.893 88.28 245.989 87.7009 246.857C87.1219 247.726 85.8397 248.367 85.1159 247.891C84.3922 247.415 84.7851 246.175 85.3848 245.306Z" fill="#F77C2D"/>
<path d="M111.859 215.424C111.962 214.576 112.314 213.914 113.017 213.997C113.72 214.079 114.216 214.824 114.113 215.672C114.009 216.52 113.327 217.471 112.624 217.409C111.941 217.326 111.755 216.271 111.859 215.424Z" fill="#F77C2D"/>
<path d="M150.507 187.113C149.866 190.091 148.626 192.944 146.868 195.447C145.586 197.267 144.345 198.321 142.98 198.735C139.857 199.686 136.59 196.956 135.597 193.916C134.522 190.608 135.287 186.947 135.949 183.742C135.99 183.494 135.866 183.245 135.639 183.163C135.411 183.059 135.142 183.142 135.018 183.349C133.426 185.81 131.627 188.602 128.918 190.091C126.436 191.455 122.693 191.331 121.101 188.974C119.674 186.864 120.439 183.949 121.018 182.418C122.3 179.047 124.637 176.07 127.573 173.939C127.346 173.691 127.118 173.422 126.891 173.154C123.83 175.387 121.39 178.51 120.046 182.046C119.384 183.783 118.536 187.051 120.232 189.553C122.217 192.489 126.539 192.593 129.414 191C131.544 189.822 133.116 187.981 134.439 186.079C133.984 188.684 133.757 191.559 134.605 194.227C135.577 197.225 138.534 199.955 141.698 199.955C142.215 199.955 142.752 199.872 143.269 199.727C144.862 199.231 146.268 198.073 147.695 196.046C149.536 193.42 150.838 190.463 151.5 187.361L150.507 187.113Z" fill="#F77C2D"/>
<path d="M141.555 234.098L140.956 235.173C138.826 231.037 135.744 227.397 131.981 224.667C129.23 222.682 126.852 222 124.867 222.641C122.488 223.406 119.862 227.108 121.516 232.96C122.468 236.331 124.246 239.454 126.624 242.018C128.258 243.217 129.747 244.541 131.091 245.74C131.298 245.927 131.319 246.216 131.153 246.444C130.988 246.65 130.698 246.712 130.471 246.568C128.796 245.513 127.265 244.231 125.921 242.783C123.998 241.398 121.909 240.24 119.593 239.723C115.664 238.854 110.577 240.653 109.522 244.624C108.757 247.54 110.329 250.455 112.045 252.213C114.092 254.281 116.781 255.584 119.366 256.846C119.614 256.97 119.717 257.239 119.635 257.487C119.552 257.735 119.283 257.88 119.035 257.818C110.08 255.729 107.185 257.859 105.779 259.637C103.835 262.14 103.959 266.958 107.557 270.391C110.577 273.266 114.837 274.465 118.642 275.52C118.435 275.83 118.249 276.119 118.042 276.43C114.216 275.375 109.977 274.113 106.854 271.156C103.711 268.178 102.098 262.677 104.972 258.996C107.454 255.812 111.756 255.584 115.664 256.122C114.113 255.253 112.583 254.24 111.301 252.937C109.377 250.972 107.64 247.705 108.509 244.376C109.067 242.246 110.639 240.488 112.955 239.454C115.064 238.482 117.567 238.234 119.821 238.73C121.268 239.04 122.613 239.598 123.895 240.302C122.385 238.172 121.227 235.773 120.524 233.27C119.221 228.617 120.358 223.013 124.556 221.669C126.873 220.924 129.582 221.669 132.601 223.84C136.303 226.529 139.363 230.065 141.555 234.098Z" fill="#F77C2D"/>
<path d="M82.0364 225.453C80.899 226.136 79.5135 226.363 78.1279 226.136C78.7483 226.963 79.3274 227.852 79.803 228.783C81.2299 231.575 81.5401 234.553 80.6509 236.951C79.6789 239.557 77.1766 241.336 74.695 241.336C74.4055 241.336 74.116 241.315 73.8472 241.274C71.7585 240.901 69.1528 238.999 68.1395 234.759C67.9947 234.201 67.8913 233.622 67.8086 233.064L68.5324 230.541C68.5324 230.623 68.5531 230.685 68.5531 230.768C68.6978 232.009 68.8426 233.312 69.1321 234.532C69.6905 236.889 71.3242 239.805 74.0126 240.26C75.9979 240.612 78.6656 239.33 79.6789 236.6C80.4855 234.47 80.1959 231.802 78.8931 229.258C78.2106 227.914 77.3007 226.694 76.3288 225.536C75.1914 224.936 74.3642 223.985 73.9712 222.868C73.8885 222.641 73.9919 222.393 74.1987 222.269C74.4055 222.145 74.6744 222.186 74.8398 222.351C75.5636 223.117 76.2874 223.902 76.9905 224.709C77.1146 224.771 77.2594 224.833 77.4041 224.874C78.7897 225.391 80.3614 225.267 81.4988 224.564C83.6702 223.241 84.7248 220.18 83.9597 217.409C83.2772 214.969 81.3333 212.735 78.6036 211.246C77.3214 210.543 75.9358 210.026 74.5296 209.612L74.8191 208.62C76.2874 209.054 77.735 209.592 79.0999 210.336C82.0778 211.949 84.2079 214.431 84.9523 217.14C85.8623 220.387 84.6215 223.882 82.0364 225.453Z" fill="#F77C2D"/>
<path d="M101.932 281.827C100.36 287.762 96.7618 293.056 91.9019 296.737L89.8753 296.903C95.2728 293.346 99.264 287.824 100.918 281.558C101.394 279.8 101.642 277.422 100.215 276.161C98.8504 274.961 96.617 275.416 94.9626 276.223C92.3362 277.505 90.1855 279.614 88.7793 282.158C88.407 282.861 88.0761 283.564 87.828 284.288C87.6625 284.764 87.5178 285.239 87.3937 285.736C87.3317 286.004 87.0628 286.191 86.7733 286.129C86.5045 286.066 86.3183 285.798 86.3804 285.508C86.4838 284.991 86.6492 284.495 86.8147 284.019C87.1042 283.213 87.4351 282.427 87.8487 281.703C88.0141 281.372 88.2002 281.041 88.3657 280.69C88.9447 279.594 89.5237 278.477 89.9373 277.319C90.8679 274.672 90.3923 271.198 87.9934 270.226C86.0081 269.419 83.7127 270.701 82.2237 272.19C80.6727 273.741 79.5146 275.685 78.8115 277.774C78.7081 279.614 78.4806 281.455 78.129 283.295C78.0877 283.544 77.8602 283.73 77.5914 283.709C77.3432 283.688 77.1364 283.481 77.1157 283.233C76.971 281.331 77.2191 279.408 77.7982 277.588C77.9429 274.692 77.7568 271.777 77.2398 268.902C76.9916 267.558 76.5574 265.924 75.3372 265.262C73.6828 264.352 71.5321 265.676 70.1259 267.392C67.9545 270.039 66.5689 273.307 66.1346 276.864C65.8038 279.614 66.0312 282.323 66.8377 284.846C66.1967 283.916 65.6383 282.964 65.142 281.993C64.3975 276.616 65.8658 270.97 69.34 266.731C70.1879 265.697 71.2219 264.869 72.2559 264.394C73.5588 263.794 74.7996 263.773 75.8542 264.352C77.4466 265.221 77.9843 267.144 78.2738 268.716C78.646 270.805 78.8528 272.914 78.8942 275.023C79.5973 273.721 80.4659 272.5 81.5206 271.446C83.237 269.729 85.9461 268.261 88.407 269.254C89.8133 269.833 90.8266 271.115 91.2402 272.852C91.5917 274.362 91.4883 276.099 90.9507 277.65C90.93 277.712 90.9093 277.774 90.8886 277.815C91.964 276.802 93.1841 275.954 94.5283 275.292C97.0513 274.051 99.4502 274.072 100.939 275.375C102.738 276.988 102.49 279.78 101.932 281.827Z" fill="#F77C2D"/>
<path d="M171.148 139.238C171.148 139.238 187.031 141.472 192.862 140.893C199.087 140.293 206.553 136.902 208.166 140.148C210.647 145.132 194.103 153.094 186.038 153.094C177.973 153.094 171.148 139.238 171.148 139.238Z" fill="#F77C2D"/>
<path d="M122.717 166.929L136.903 146.042C145.361 133.593 162.216 130.201 174.851 138.37C183.02 143.643 191.623 149.496 197.537 154.273C212.116 166.06 227.006 176.917 224.214 181.26C221.422 185.603 205.602 174.746 205.602 174.746C205.602 174.746 210.876 196.77 205.292 197.701C199.708 198.631 197.227 180.33 197.227 180.33L190.092 172.885C190.092 172.885 189.472 198.631 182.958 198.631C176.443 198.631 182.627 175.366 175.347 172.264C169.35 169.659 166.6 168.149 166.6 168.149L158.7 186.637L157.914 188.271C132.767 186.596 122.717 166.929 122.717 166.929Z" fill="#F8934F"/>
<path d="M161.038 181.136L158.701 186.616L157.915 188.25C137.959 186.926 127.515 174.291 124.041 169.121C124.682 168.873 125.323 168.687 125.985 168.521C134.174 166.66 136.614 171.582 143.501 174.622C146.582 175.987 149.974 175.449 153.241 175.759C156.447 176.069 160.045 177.724 161.038 181.136Z" fill="#F77C2D"/>
<path d="M184.198 189.656C184.074 192.241 183.743 194.826 182.957 197.308C182.833 197.722 182.647 198.156 182.44 198.569C176.774 197.329 182.44 175.263 175.347 172.264C169.35 169.659 166.599 168.149 166.599 168.149L166.351 168.707C165.669 167.942 164.945 167.219 164.2 166.536C163.001 165.419 158.286 162.545 158.989 160.456C159.568 158.781 164.262 160.725 165.483 161.325C167.489 162.317 168.936 164.158 170.653 165.605C172.845 167.467 175.512 168.707 177.684 170.61C182.957 175.139 184.529 182.708 184.198 189.656Z" fill="#F77C2D"/>
<path d="M222.913 182.129C218.384 183.307 206.514 175.325 205.666 174.746C205.066 173.877 203.474 168.004 202.15 166.826C202.15 166.122 203.536 166.247 204.467 166.908C205.997 168.004 207.879 168.542 209.285 169.762C210.588 170.879 211.25 172.678 212.387 173.981C214.972 176.917 219.522 176.876 222.127 179.813C222.52 180.247 222.851 180.764 222.934 181.343C222.975 181.612 222.954 181.881 222.913 182.129Z" fill="#F77C2D"/>
<path d="M221.938 175.097C221.69 175.263 221.339 175.18 221.028 175.077C216.541 173.464 213.398 169.431 209.344 166.929C207.855 166.019 206.242 165.316 204.836 164.261C202.603 162.607 200.948 160.146 198.425 158.926C196.543 158.016 194.31 157.892 192.635 156.63C191.353 155.679 190.587 154.211 189.553 153.032C187.858 151.088 185.459 149.888 183.536 148.172C182.522 147.283 178.366 142.609 177.621 140.128C184.921 144.905 192.304 149.992 197.536 154.231C207.359 162.193 217.327 169.721 221.938 175.097Z" fill="#F9AF79"/>
<path d="M155.992 157.499C155.992 157.499 158.887 162.193 166.601 168.108" stroke="#BF3028" stroke-width="3.69286" stroke-miterlimit="10" stroke-linecap="round" stroke-linejoin="round"/>
<path d="M201.137 165.295C201.137 165.295 203.453 168.232 205.604 174.725" stroke="#BF3028" stroke-width="3.69286" stroke-miterlimit="10" stroke-linecap="round" stroke-linejoin="round"/>
<path d="M204.898 196.667C204.836 197.018 204.732 197.37 204.588 197.68C204.546 197.68 204.505 197.68 204.463 197.659C204.422 197.659 204.401 197.639 204.36 197.639C204.319 197.618 204.277 197.618 204.236 197.597C204.195 197.577 204.153 197.577 204.112 197.556C204.091 197.556 204.071 197.535 204.029 197.535C203.988 197.515 203.967 197.515 203.926 197.494C203.905 197.494 203.884 197.473 203.884 197.473C203.843 197.453 203.802 197.432 203.76 197.432C203.512 197.308 203.264 197.142 203.016 196.956C202.995 196.936 202.954 196.915 202.912 196.874C202.458 196.46 202.023 195.922 201.61 195.281C201.548 195.178 201.486 195.095 201.444 194.992C201.093 194.392 200.762 193.73 200.452 193.006C200.431 192.944 200.41 192.882 200.369 192.82C200.286 192.634 200.224 192.448 200.141 192.262C200.121 192.2 200.1 192.138 200.059 192.076C199.935 191.766 199.831 191.435 199.707 191.124C199.686 191.062 199.666 191 199.645 190.938C199.583 190.773 199.542 190.607 199.48 190.421C199.459 190.359 199.438 190.277 199.418 190.215C199.376 190.049 199.314 189.904 199.273 189.739C199.252 189.677 199.231 189.615 199.211 189.532C199.149 189.346 199.107 189.16 199.045 188.994C199.025 188.932 199.004 188.85 198.983 188.788C198.88 188.436 198.797 188.085 198.694 187.733C198.652 187.609 198.632 187.485 198.59 187.361C198.57 187.278 198.549 187.216 198.528 187.133C198.487 187.009 198.466 186.885 198.425 186.761C198.342 186.43 198.259 186.099 198.197 185.789C198.177 185.665 198.135 185.541 198.115 185.417C198.053 185.169 198.011 184.92 197.949 184.672C197.929 184.61 197.929 184.548 197.908 184.486C197.887 184.424 197.887 184.362 197.867 184.321C197.846 184.259 197.846 184.197 197.825 184.155C197.784 183.928 197.742 183.7 197.701 183.494C197.68 183.411 197.66 183.328 197.66 183.245C197.577 182.832 197.515 182.439 197.453 182.108C197.453 182.067 197.432 182.025 197.432 181.984C197.412 181.901 197.412 181.819 197.391 181.736C197.37 181.653 197.37 181.591 197.35 181.508C197.308 181.322 197.287 181.177 197.267 181.033C197.267 180.991 197.246 180.929 197.246 180.888C197.225 180.681 197.205 180.536 197.184 180.433C197.184 180.412 197.184 180.392 197.184 180.392C197.184 180.33 197.163 180.309 197.163 180.309L191.89 174.787C191.807 174.663 191.663 174.539 191.518 174.394L190.029 172.843C189.657 172.037 188.436 168.501 189.078 167.86C190.029 166.908 192.159 169.493 192.738 170.052C195.24 172.471 197.453 175.201 199.314 178.137C201.444 181.508 203.099 185.189 204.195 189.036C204.96 191.538 205.435 194.164 204.898 196.667Z" fill="#F77C2D"/>
<path d="M188.934 166.246C188.934 166.246 189.389 167.074 190.092 172.843" stroke="#BF3028" stroke-width="3.69286" stroke-miterlimit="10" stroke-linecap="round" stroke-linejoin="round"/>
<path d="M177.438 140.024L194.106 151.667" stroke="#BF3028" stroke-width="3.69286" stroke-miterlimit="10" stroke-linecap="round" stroke-linejoin="round"/>
<path d="M89.8984 216.602L122.718 166.929C123.834 169.183 125.241 171.272 126.874 173.174C127.102 173.443 127.329 173.691 127.557 173.96C133.451 180.474 142.033 184.962 150.512 187.113C150.842 187.195 151.173 187.278 151.504 187.361C153.221 187.754 154.937 188.064 156.612 188.271C158.804 188.54 167.056 189.946 167.841 186.596C168.813 182.46 161.968 180.061 161.968 180.061" stroke="#1A1B16" stroke-width="3.69286" stroke-miterlimit="10" stroke-linecap="round" stroke-linejoin="round"/>
<path d="M347.105 61.0682L349.546 43.056L367.144 50.5008" stroke="#F52A21" stroke-width="3.98098" stroke-miterlimit="10" stroke-linecap="round" stroke-linejoin="round"/>
<path d="M349.586 44.8965C350.671 44.8965 351.55 44.0169 351.55 42.9319C351.55 41.8469 350.671 40.9673 349.586 40.9673C348.501 40.9673 347.621 41.8469 347.621 42.9319C347.621 44.0169 348.501 44.8965 349.586 44.8965Z" fill="#4598E0"/>
<path d="M393.532 75.1099L392.974 75.4201L392.87 75.4822L354.984 96.0588L354.86 96.1208L354.323 96.431L353.971 95.7899L353.95 95.7486L337.965 66.3209L337.944 66.3002L337.613 65.6798L338.172 65.3696L338.275 65.3076L376.161 44.731L376.244 44.669L376.823 44.3588L377.153 44.9998L377.174 45.0205L393.16 74.4482L393.18 74.4895L393.532 75.1099Z" fill="#0064C8"/>
<path d="M377.158 44.9999L373.746 55.6088C373.684 55.8156 373.498 55.9603 373.291 55.9603C373.229 55.9603 373.167 55.9603 373.085 55.9397C372.816 55.8569 372.671 55.5674 372.754 55.2986L376.166 44.7311L376.249 44.6897L376.807 44.3795L377.158 44.9999Z" fill="#FBD488"/>
<path d="M393.54 75.11L393.002 75.3996L392.899 75.4616L381.856 72.4837C381.587 72.401 381.422 72.1321 381.484 71.8426C381.566 71.5738 381.835 71.4083 382.125 71.4704L393.23 74.469L393.54 75.11Z" fill="#FBD488"/>
<path d="M358.277 85.8636L354.989 96.0588L354.885 96.1209L354.348 96.4104L353.996 95.79L357.305 85.5534C357.388 85.2846 357.677 85.1398 357.946 85.2225C358.215 85.3052 358.36 85.5948 358.277 85.8636Z" fill="#FBD488"/>
<path d="M348.346 68.575C348.284 68.8025 348.098 68.9473 347.891 68.9473C347.829 68.9473 347.767 68.9473 347.726 68.9266L337.965 66.3002L337.613 65.6798L338.172 65.3696L338.254 65.3282L347.953 67.9546C348.243 68.0167 348.408 68.2855 348.346 68.575Z" fill="#FBD488"/>
<path d="M374.427 51.7409L345.102 67.6786L356.694 89.0096L386.02 73.0718L374.427 51.7409Z" fill="#EDE3EB"/>
<path d="M361.605 63.4671L361.398 78.5222C361.398 78.8324 361.729 79.0392 361.998 78.8737L375.13 71.5116C375.399 71.3669 375.419 70.9739 375.13 70.8085L362.184 63.1155C361.957 62.9708 361.605 63.1569 361.605 63.4671L361.398 78.5222C361.398 78.8324 361.729 79.0392 361.998 78.8737L375.13 71.5116C375.399 71.3669 375.419 70.9739 375.13 70.8085L362.184 63.1155C361.957 62.9708 361.605 63.1569 361.605 63.4671Z" fill="#F52A21"/>
<path d="M272.83 70.25C272.706 70.5809 272.582 70.8911 272.457 71.2427C272.003 72.4421 271.548 73.7036 271.051 75.0064C268.425 82.0376 265.674 90.5578 262.531 97.2581C255.479 112.251 242.678 112.603 242.678 112.603L239.7 119.179L235.544 128.361C235.544 128.361 227.789 135.702 209.383 132.187C193.956 129.25 189.903 118.517 189.014 115.105L205.02 77.1985L205.661 75.7509C204.503 74.2206 203.8 72.2973 203.8 70.2087C203.8 68.3061 204.379 66.5483 205.372 65.08C205.475 64.9559 205.578 64.8112 205.702 64.6871C207.502 62.5571 211.41 58.9381 216.621 61.7712C220.82 64.046 214.202 75.0478 218.069 76.5574C221.461 77.8809 227.375 59.2896 228.781 54.6986C228.988 54.0576 229.092 53.6853 229.092 53.6853L241.954 58.5658L247.559 51.4105L249.565 61.4403L272.83 70.25Z" fill="#F8934F"/>
<path d="M213.683 73.7035C213.683 73.7035 209.919 73.6828 209.568 70.4361C209.216 67.1893 212.194 65.8038 212.194 65.8038C212.732 66.7137 213.208 67.665 213.538 68.6783C214.097 70.312 214.242 72.0905 213.683 73.7035Z" fill="#F77C2D"/>
<path d="M212.214 65.8038C212.214 65.8038 209.236 67.2101 209.587 70.4362C209.939 73.6829 213.703 73.7036 213.703 73.7036C214.261 72.0906 214.116 70.2914 213.579 68.6783C213.041 67.0653 212.152 65.5763 211.2 64.1701" stroke="#BF3028" stroke-width="3.69286" stroke-miterlimit="10" stroke-linecap="round" stroke-linejoin="round"/>
<path d="M202.579 108.136C202.351 110.142 201.235 112.003 199.642 113.223C198.794 113.864 197.843 114.319 197.119 115.084C195.858 116.428 195.589 118.393 195.031 120.151C194.658 121.309 194.121 122.446 193.314 123.336C190.564 120.027 189.426 116.759 188.992 115.126L204.998 77.2192L205.453 76.1852C206.115 76.9297 206.942 77.8809 206.922 78.5427C206.839 80.1764 205.536 81.3552 205.764 83.1957C205.97 84.8708 206.88 86.4011 206.963 88.0969C207.17 92.1915 202.62 95.0454 201.834 99.0573C201.276 102.056 202.91 105.096 202.579 108.136Z" fill="#F77C2D"/>
<path d="M272.826 70.25C272.702 70.5809 272.578 70.8911 272.453 71.2427C270.137 71.6149 267.676 71.2427 265.422 70.5189C262.486 69.5883 259.756 68.1613 256.881 67.086C253.262 65.7418 249.416 64.9766 246.004 63.1981C244.225 62.2675 242.571 61.0681 240.73 60.2202C239.014 59.4344 237.153 58.9587 235.374 58.297C234.03 57.8006 230.37 56.3531 228.777 54.6986C228.984 54.0576 229.088 53.6853 229.088 53.6853L241.95 58.5658L247.555 51.4105L249.561 61.4403L272.826 70.25Z" fill="#F77C2D"/>
<path d="M271.274 74.5721C271.212 74.7168 267.469 85.0775 265.525 90.1235C264.698 92.2535 263.85 94.3215 262.982 96.2448C262.816 96.5963 262.671 96.9272 262.527 97.2374C255.475 112.23 242.674 112.582 242.674 112.582L241.35 115.498L241.288 115.622C240.399 115.498 239.531 115.291 238.683 115.022C235.539 114.009 232.665 111.879 231.176 108.942C235.643 110.576 240.523 111.238 245.197 110.307C249.871 109.397 254.275 106.812 256.964 102.904C258.37 100.877 266.58 84.0022 267.697 81.4792C268.255 80.2384 268.669 78.9356 269.227 77.6948C269.599 76.8676 270.282 75.2338 271.274 74.5721Z" fill="#F9AF79"/>
<path d="M242.679 112.603L239.701 119.179C237.199 118.372 227.955 114.753 227.19 105.509C227.169 105.53 232.401 112.458 242.679 112.603Z" fill="#BF3028"/>
<path d="M205.803 76.2679C205.803 76.2679 207.25 78.3152 209.753 78.8322" stroke="#BF3028" stroke-width="3.69286" stroke-miterlimit="10" stroke-linecap="round" stroke-linejoin="round"/>
<path d="M246.09 88.6967C247.227 90.0616 252.376 87.9316 251.652 85.512C251.28 84.2298 243.339 85.4086 246.09 88.6967Z" fill="#F77C2D"/>
<path d="M241.869 101.663C241.517 102.387 240.504 101.808 239.242 101.167C237.981 100.526 236.906 100.091 237.278 99.3676C237.65 98.6438 239.16 98.3749 240.442 98.9953C241.703 99.6364 242.241 100.939 241.869 101.663Z" fill="#F77C2D"/>
<path d="M241.747 78.5635C241.271 79.4941 240.61 80.0111 239.927 79.6595C239.224 79.3079 239.038 78.2739 239.514 77.3433C239.989 76.4127 240.94 75.9578 241.623 76.3093C242.305 76.6402 242.223 77.6329 241.747 78.5635Z" fill="#1A1B16"/>
<path d="M259.529 85.0777C259.074 85.9669 258.454 86.4426 257.813 86.1324C257.171 85.8015 257.006 84.8295 257.461 83.9403C257.916 83.0511 258.805 82.5961 259.446 82.927C260.087 83.2579 259.984 84.1885 259.529 85.0777Z" fill="#1A1B16"/>
<path d="M235.83 68.058C239.284 67.8512 242.799 68.7612 245.736 70.6224" stroke="#BF3028" stroke-width="3.69286" stroke-miterlimit="10" stroke-linecap="round" stroke-linejoin="round"/>
<path d="M259.881 75.5648C262.507 76.3713 264.947 77.819 266.891 79.7836" stroke="#BF3028" stroke-width="3.69286" stroke-miterlimit="10" stroke-linecap="round" stroke-linejoin="round"/>
<path d="M247.432 88.9656C248.259 88.8001 249.086 88.6554 249.851 88.3038C250.616 87.9522 251.299 87.3939 251.65 86.6287C252.064 85.6774 251.878 84.5607 251.816 83.5267C251.671 81.3553 252.105 79.1632 253.036 77.2193" stroke="#BF3028" stroke-width="3.69286" stroke-miterlimit="10" stroke-linecap="round" stroke-linejoin="round"/>
<path d="M237.071 87.642C237.071 87.642 236.885 95.5418 243.378 97.0514C247.266 97.9613 249.582 94.3217 249.582 94.3217C249.582 94.3217 248.011 92.9568 244.64 93.7013C242.903 91.1576 237.319 85.967 237.071 87.642Z" fill="#F52A21"/>
<path d="M236.842 87.2698C236.842 87.2698 239.675 92.9154 243.79 94.818C246.375 96.0174 249.56 94.301 249.56 94.301" stroke="#BF3028" stroke-width="3.69286" stroke-miterlimit="10" stroke-linecap="round" stroke-linejoin="round"/>
<path d="M1.09604 201.072C1.70136 201.072 2.19208 200.581 2.19208 199.976C2.19208 199.37 1.70136 198.88 1.09604 198.88C0.49071 198.88 0 199.37 0 199.976C0 200.581 0.49071 201.072 1.09604 201.072Z" fill="#F7F1F7"/>
<path d="M10.3812 65.5349C10.9865 65.5349 11.4772 65.0442 11.4772 64.4389C11.4772 63.8335 10.9865 63.3428 10.3812 63.3428C9.77587 63.3428 9.28516 63.8335 9.28516 64.4389C9.28516 65.0442 9.77587 65.5349 10.3812 65.5349Z" fill="#F7F1F7"/>
<path d="M114.135 2.19207C114.74 2.19207 115.231 1.70136 115.231 1.09604C115.231 0.49071 114.74 0 114.135 0C113.53 0 113.039 0.49071 113.039 1.09604C113.039 1.70136 113.53 2.19207 114.135 2.19207Z" fill="#F7F1F7"/>
<path d="M462.59 250.849C463.196 250.849 463.686 250.358 463.686 249.752C463.686 249.147 463.196 248.656 462.59 248.656C461.985 248.656 461.494 249.147 461.494 249.752C461.494 250.358 461.985 250.849 462.59 250.849Z" fill="#F7F1F7"/>
<path d="M397.057 53.2924C397.662 53.2924 398.153 52.8016 398.153 52.1963C398.153 51.591 397.662 51.1003 397.057 51.1003C396.452 51.1003 395.961 51.591 395.961 52.1963C395.961 52.8016 396.452 53.2924 397.057 53.2924Z" fill="#F7F1F7"/>
<path d="M466.666 146.642C467.272 146.642 467.762 146.151 467.762 145.546C467.762 144.941 467.272 144.45 466.666 144.45C466.061 144.45 465.57 144.941 465.57 145.546C465.57 146.151 466.061 146.642 466.666 146.642Z" fill="#F7F1F7"/>
<path d="M329.701 134.999C330.307 134.999 330.797 134.508 330.797 133.903C330.797 133.298 330.307 132.807 329.701 132.807C329.096 132.807 328.605 133.298 328.605 133.903C328.605 134.508 329.096 134.999 329.701 134.999Z" fill="#F7F1F7"/>
</svg>
