<svg width="49" height="48" viewBox="0 0 49 48" fill="none" xmlns="http://www.w3.org/2000/svg">
<path d="M24.5235 29.6602C21.3145 29.6602 18.7188 27.1602 18.7188 24.0202C18.7188 20.8802 21.3145 18.3602 24.5235 18.3602C27.7324 18.3602 30.2669 20.8802 30.2669 24.0202C30.2669 27.1602 27.7324 29.6602 24.5235 29.6602Z" fill="#FC804A"/>
<path opacity="0.4" d="M42.9603 28.7402C42.5719 28.1402 42.0201 27.5402 41.3047 27.1602C40.7324 26.8802 40.3645 26.4202 40.0375 25.8802C38.9951 24.1602 39.6082 21.9002 41.3456 20.8802C43.3895 19.7402 44.0435 17.2002 42.8581 15.2202L41.4886 12.8602C40.3236 10.8802 37.7687 10.1802 35.7452 11.3402C33.9466 12.3002 31.637 11.6602 30.5946 9.96018C30.2676 9.40018 30.0836 8.80018 30.1245 8.20018C30.1858 7.42018 29.9405 6.68018 29.5726 6.08018C28.8164 4.84018 27.4469 4.00018 25.9345 4.00018H23.0525C21.5605 4.04018 20.1911 4.84018 19.4348 6.08018C19.0465 6.68018 18.8216 7.42018 18.8625 8.20018C18.9034 8.80018 18.7194 9.40018 18.3924 9.96018C17.35 11.6602 15.0404 12.3002 13.2622 11.3402C11.2183 10.1802 8.68381 10.8802 7.49834 12.8602L6.12892 15.2202C4.96389 17.2002 5.61794 19.7402 7.64141 20.8802C9.37874 21.9002 9.99192 24.1602 8.96996 25.8802C8.62249 26.4202 8.25459 26.8802 7.68229 27.1602C6.98736 27.5402 6.37419 28.1402 6.04716 28.7402C5.29091 29.9802 5.33179 31.5402 6.08804 32.8402L7.49834 35.2402C8.25459 36.5202 9.66489 37.3202 11.1365 37.3202C11.8314 37.3202 12.649 37.1202 13.3031 36.7202C13.814 36.3802 14.4272 36.2602 15.1017 36.2602C17.1252 36.2602 18.8216 37.9202 18.8625 39.9002C18.8625 42.2002 20.7429 44.0002 23.1138 44.0002H25.8936C28.2441 44.0002 30.1245 42.2002 30.1245 39.9002C30.1858 37.9202 31.8822 36.2602 33.9057 36.2602C34.5598 36.2602 35.1729 36.3802 35.7044 36.7202C36.3584 37.1202 37.1555 37.3202 37.8709 37.3202C39.3221 37.3202 40.7324 36.5202 41.4886 35.2402L42.9194 32.8402C43.6552 31.5002 43.7165 29.9802 42.9603 28.7402Z" fill="#FC804A"/>
</svg>
