<svg width="351" height="188" viewBox="0 0 351 188" fill="none" xmlns="http://www.w3.org/2000/svg">
<mask id="mask0_305_699" style="mask-type:alpha" maskUnits="userSpaceOnUse" x="0" y="0" width="351" height="188">
<path d="M0 10C0 4.47715 4.47715 0 10 0H341C346.523 0 351 4.47715 351 10V188H0V10Z" fill="#011416"/>
</mask>
<g mask="url(#mask0_305_699)">
<path d="M0 10C0 4.47715 4.47715 0 10 0H341C346.523 0 351 4.47715 351 10V188H0V10Z" fill="#FFF0EA"/>
<path d="M382.323 119.101H287.89L284.834 190.509L326.433 189.266L363.429 188.16L382.323 187.595V119.101Z" fill="#B1E9EA"/>
<path d="M183.56 147.876C182.122 140.554 175.525 127.013 173.538 131.221C171.054 136.48 172.013 151.537 175.368 152.414C178.723 153.29 173.843 131.324 169.66 132.871C166.313 134.108 168.265 140.536 169.66 143.595C169.166 139.471 168.531 133.695 161.686 129.828" stroke="black" stroke-width="1.262" stroke-linecap="round"/>
<path d="M148.014 90.1279V8.62378H256.756V27.2909H298.928V86.9204" stroke="#FC804A" stroke-width="1.262"/>
<path d="M208.902 193.435H225.226L254.965 192.376V63.8359H106.327L101.516 197.845L152.06 196.043" stroke="black" stroke-width="1.262"/>
<path d="M106.326 63.8359H254.965V90.4464H105.365L106.326 63.8359Z" fill="black"/>
<path d="M118.023 83.9393C121.516 83.9393 124.348 80.8959 124.348 77.1416C124.348 73.3874 121.516 70.344 118.023 70.344C114.529 70.344 111.697 73.3874 111.697 77.1416C111.697 80.8959 114.529 83.9393 118.023 83.9393Z" fill="white"/>
<path d="M134.47 83.9393C137.963 83.9393 140.795 80.8959 140.795 77.1416C140.795 73.3874 137.963 70.344 134.47 70.344C130.976 70.344 128.145 73.3874 128.145 77.1416C128.145 80.8959 130.976 83.9393 134.47 83.9393Z" fill="white"/>
<path d="M150.915 83.9393C154.409 83.9393 157.241 80.8959 157.241 77.1416C157.241 73.3874 154.409 70.344 150.915 70.344C147.422 70.344 144.59 73.3874 144.59 77.1416C144.59 80.8959 147.422 83.9393 150.915 83.9393Z" fill="white"/>
<path d="M253.305 133.971L196.18 135.638L200.377 39.9104H330.057V131.731L304.111 132.489" stroke="black" stroke-width="1.262"/>
<path d="M248.807 177.262H291.118H248.807ZM248.807 172.625H275.404H248.807Z" stroke="black" stroke-width="1.262" stroke-linecap="round"/>
<path d="M349.184 50.7937C349.184 52.8256 348.725 56.7901 346.693 56.7901C344.66 56.7901 341.822 52.8256 341.822 50.7937C341.822 48.7619 343.47 47.1147 345.503 47.1147C347.536 47.1147 349.184 48.7619 349.184 50.7937Z" fill="black"/>
<path d="M188.171 47.1147L195.948 67.8682L209.407 57.5086L199.545 74.1592L228.347 82.1939L196.804 79.3038L207.319 103.905L193.243 83.7667L179.989 102.537L183.825 82.1939L161.461 85.7497L184.441 75.014L167.386 49.2345L187.181 66.7399L188.171 47.1147Z" fill="#FC804A"/>
<path d="M240.287 31.9419C243.323 35.7264 246.544 43.668 251.855 39.8294L241.192 53.4485C223.787 28.1559 236.492 27.2113 240.287 31.9419Z" fill="#B8A5A5"/>
<path d="M280.936 9.21063C281.293 9.94144 279.703 11.4503 277.386 12.5807C275.069 13.711 194.014 52.5201 194.014 52.5201C194.014 52.5201 273.778 11.0645 276.095 9.9341C278.412 8.80371 280.58 8.4798 280.936 9.21063Z" fill="black"/>
<path d="M276.551 11.7162C277.713 11.186 278.577 10.5847 278.482 10.3733C278.385 10.1619 277.364 10.4205 276.202 10.9508C275.04 11.4811 274.175 12.0823 274.271 12.2937C274.368 12.5051 275.389 12.2466 276.551 11.7162Z" fill="white"/>
<path d="M274.83 15.0542C283.496 17.6202 285.662 29.3394 285.662 34.8781L268.888 61.8008C265.12 62.1864 254.975 61.5694 244.542 56.0166C234.11 50.4638 243.106 43.4317 248.907 40.6097C250.607 39.3652 253.292 34.6152 250.432 25.5708C247.571 16.5265 239.215 15.9131 235.393 16.7368C233.01 17.0699 229.125 16.5581 232.658 11.8466C239.81 2.80228 255.059 6.60581 261.79 9.63812C265.323 8.29198 270.273 12.6879 272.306 15.0542H274.83Z" fill="#B8A5A5"/>
<path d="M165.983 105.482C161.777 109.426 150.483 128.409 151.418 140.555C153.784 171.317 181.758 168.109 181.758 195.61C181.758 225.425 137.693 223.111 137.693 255.45C137.693 284.581 179.182 295.238 181.758 298.516" stroke="black" stroke-width="1.262" stroke-linecap="round"/>
<path d="M165.773 105.745L161.461 103.326L169.348 101.802L168.261 93.9302C168.251 93.8849 168.245 93.8442 168.244 93.8088L168.261 93.9302C168.451 94.7825 170.19 97.2793 170.19 97.2793C170.19 97.2793 174.221 96.6132 175.29 95.5967L172.977 100.855L179.129 101.802H169.348L170.19 108.637L165.773 105.745Z" fill="#FC804A"/>
<path d="M288.293 35.1413C266.587 34.3841 266.313 57.4366 268.89 69.0575C270.16 74.7891 322.683 101.975 323.208 105.393C323.629 108.127 316.898 122.026 313.481 128.635C307.188 132.193 288.104 145.03 262.107 167.915C236.109 190.799 233.799 222.294 236.078 233.6C235.429 231.163 228.705 226.124 226.403 221.716C224.101 217.307 216.569 217.343 204.475 226.545C194.8 233.907 196.903 236.702 197.534 240.909C207.627 259.024 222.784 295.203 241.757 302.633C250.486 306.051 264.052 303.58 268.89 299.215C272.76 295.724 280.984 264.352 282.772 255.15L296.706 287.182C324.628 295.739 377.794 277.627 385.73 248.367C382.488 236.255 369.429 195.224 364.381 184.75C358.071 171.656 385.73 113.461 367.747 87.4617C364.255 82.4137 347.888 67.9007 340.14 61.2752C333.883 56.9107 320.464 54.229 313.481 49.181C304.752 42.871 297.968 38.0333 288.293 35.1413Z" fill="#FF986B"/>
<path d="M289.503 191.403C292.669 191.403 295.235 188.837 295.235 185.672C295.235 182.506 292.669 179.94 289.503 179.94C286.338 179.94 283.771 182.506 283.771 185.672C283.771 188.837 286.338 191.403 289.503 191.403Z" fill="#FC804A"/>
<path d="M317.054 161.641C320.219 161.641 322.785 159.075 322.785 155.91C322.785 152.744 320.219 150.178 317.054 150.178C313.888 150.178 311.322 152.744 311.322 155.91C311.322 159.075 313.888 161.641 317.054 161.641Z" fill="#FC804A"/>
<path d="M353.655 187.302C356.821 187.302 359.387 184.735 359.387 181.57C359.387 178.404 356.821 175.838 353.655 175.838C350.49 175.838 347.924 178.404 347.924 181.57C347.924 184.735 350.49 187.302 353.655 187.302Z" fill="#FC804A"/>
<path d="M339.773 127.042C342.938 127.042 345.504 124.475 345.504 121.31C345.504 118.144 342.938 115.578 339.773 115.578C336.607 115.578 334.041 118.144 334.041 121.31C334.041 124.475 336.607 127.042 339.773 127.042Z" fill="#FC804A"/>
<path d="M318.527 90.4431C321.692 90.4431 324.258 87.8771 324.258 84.7116C324.258 81.546 321.692 78.98 318.527 78.98C315.361 78.98 312.795 81.546 312.795 84.7116C312.795 87.8771 315.361 90.4431 318.527 90.4431Z" fill="#FC804A"/>
<path d="M297.179 57.2107C300.344 57.2107 302.91 54.6447 302.91 51.4791C302.91 48.3136 300.344 45.7476 297.179 45.7476C294.013 45.7476 291.447 48.3136 291.447 51.4791C291.447 54.6447 294.013 57.2107 297.179 57.2107Z" fill="#FC804A"/>
<path d="M327.205 102.588C328.835 97.5579 336.06 91.1042 339.72 90.8098C344.295 90.4417 356.704 87.1815 359.386 88.7064" stroke="black" stroke-width="1.262" stroke-linecap="round"/>
<path d="M329.412 104.774C332.202 103.072 338.169 102.948 339.992 104.278C342.269 105.941 349.36 109.392 349.992 111.182" stroke="black" stroke-width="1.262" stroke-linecap="round"/>
<path d="M234.762 130.79C234.762 133.327 234.083 135.594 233.019 137.21C231.95 138.829 230.546 139.729 229.083 139.729C227.62 139.729 226.216 138.829 225.148 137.21C224.084 135.594 223.404 133.327 223.404 130.79C223.404 128.253 224.084 125.985 225.148 124.37C226.216 122.75 227.62 121.851 229.083 121.851C230.546 121.851 231.95 122.75 233.019 124.37C234.083 125.985 234.762 128.253 234.762 130.79Z" stroke="black" stroke-width="1.262"/>
<path d="M250.643 154.137C262.55 154.137 272.202 144.485 272.202 132.578C272.202 120.671 262.55 111.019 250.643 111.019C238.736 111.019 229.084 120.671 229.084 132.578C229.084 144.485 238.736 154.137 250.643 154.137Z" fill="#B8A5A5"/>
<path d="M250.013 132.587C241.179 128.548 231.801 125.025 230.189 120.573C226.204 98.2988 263.522 87.0591 274.201 102.929C275.48 104.83 277.44 109.997 285.98 111.133C296.654 112.552 295.024 115.339 299.967 124.121C303.921 131.146 320.054 133.305 324.208 132.587L271.467 168.663L266.524 166.45L264.631 173.339L250.013 183.592C249.137 179.263 247.91 169.773 250.013 166.45C252.642 162.296 250.013 160.403 250.013 152.463C250.013 146.111 254.114 142.91 256.165 142.104C262.317 138.634 264.263 132.587 260.056 129.169C256.691 126.434 251.959 130.308 250.013 132.587Z" fill="black" stroke="black" stroke-width="0.105167"/>
<path d="M257.214 142.464C261.425 142.464 264.839 139.05 264.839 134.839C264.839 130.629 261.425 127.215 257.214 127.215C253.004 127.215 249.59 130.629 249.59 134.839C249.59 139.05 253.004 142.464 257.214 142.464Z" fill="#918181"/>
<path d="M233.554 138.783C234.745 138.783 235.71 137.7 235.71 136.364C235.71 135.029 234.745 133.945 233.554 133.945C232.364 133.945 231.398 135.029 231.398 136.364C231.398 137.7 232.364 138.783 233.554 138.783Z" fill="#918181"/>
<path d="M252.01 133.945C253.219 132.736 255.901 131.526 257.741 131.526" stroke="black" stroke-width="1.262" stroke-linecap="round"/>
<path d="M255.586 131.931C255.985 132.546 256.824 134.566 256.953 135.944" stroke="black" stroke-width="1.262" stroke-linecap="round"/>
<path d="M223.404 130.58L251.221 127.898" stroke="black" stroke-width="1.262"/>
<path d="M170.685 221.787L170.93 224.3C174.66 233.503 189.514 231.765 197.532 236.176C200.968 230.987 215.484 219.959 223.561 219.665C219.82 208.757 215.261 199.967 208.762 190.181C202.224 180.337 196.097 189.972 193.851 196.02C192.777 197.832 188.31 200.966 179.031 198.996C169.752 197.027 168.331 188.768 168.78 184.885C168.88 182.48 167.994 178.664 163.648 182.638C155.34 190.633 160.604 205.441 164.275 211.846C163.278 215.493 168.133 219.993 170.685 221.787Z" fill="#B8A5A5"/>
<path d="M184.39 188.278C188.451 190.932 196.667 193.368 193.362 199.026L205.579 186.8C178.718 171.93 179.313 184.96 184.39 188.278Z" fill="#B8A5A5"/>
<path d="M144.32 172.406C144.32 174.46 144.778 178.468 146.811 178.468C148.844 178.468 151.682 174.46 151.682 172.406C151.682 170.352 150.034 168.687 148.001 168.687C145.968 168.687 144.32 170.352 144.32 172.406Z" fill="black"/>
<path d="M134.012 172.406C134.012 174.46 134.47 178.468 136.503 178.468C138.536 178.468 141.373 174.46 141.373 172.406C141.373 170.352 139.725 168.687 137.693 168.687C135.66 168.687 134.012 170.352 134.012 172.406Z" fill="black"/>
<path d="M123.811 172.406C123.811 174.46 124.269 178.468 126.302 178.468C128.334 178.468 131.172 174.46 131.172 172.406C131.172 170.352 129.524 168.687 127.491 168.687C125.459 168.687 123.811 170.352 123.811 172.406Z" fill="black"/>
</g>
</svg>
