<svg width="32" height="32" viewBox="0 0 32 32" fill="none" xmlns="http://www.w3.org/2000/svg">
<circle cx="16" cy="16" r="16" fill="#FFF0EA"/>
<g clip-path="url(#clip0_1185_1285)">
<path d="M20.7471 15.521C20.7093 15.5593 20.674 15.5998 20.6361 15.6372C20.1518 16.121 19.6489 16.5032 19.1531 16.8112C19.8374 17.8197 20.3497 18.8559 20.6361 19.8592C21.0701 21.3745 20.9276 22.6341 20.2459 23.3162C19.8221 23.7396 19.2012 23.9553 18.4004 23.9553C16.3655 23.9553 13.7486 22.6022 11.5725 20.4252C8.16444 17.0172 7.31297 13.1185 8.68017 11.7505C9.10399 11.3267 9.72483 11.1122 10.5257 11.1122C11.9163 11.1122 13.5788 11.7441 15.1868 12.8394C15.4958 12.3454 15.8766 11.8428 16.3592 11.3603C16.3979 11.3211 16.4392 11.285 16.4779 11.2467C14.4835 9.85691 12.3784 9.06714 10.5257 9.06714C9.18229 9.06714 8.04444 9.49521 7.23467 10.305C4.80281 12.7368 6.07342 17.8167 10.1269 21.8707C12.7116 24.4566 15.8051 26 18.4004 26C19.7433 26 20.8816 25.5715 21.691 24.7621C22.9309 23.5222 23.2548 21.5813 22.6016 19.2971C22.2441 18.0423 21.6046 16.7542 20.7471 15.521Z" fill="#FC804A"/>
<path d="M12.2505 12.6581C11.5365 12.6581 11.0944 12.9508 10.8489 13.1959C10.4684 13.5764 9.9425 14.4691 10.6944 16.178C11.1199 17.1448 11.8808 18.2026 12.8369 19.1592C14.3943 20.7175 16.1428 21.6855 17.3989 21.6855C18.113 21.6855 18.5551 21.3928 18.8002 21.1481C19.1806 20.7673 19.7074 19.8745 18.9555 18.1656C18.8185 17.8554 18.644 17.5354 18.4427 17.2116C16.916 17.9699 15.6296 18.0388 15.5517 18.0431C15.1228 18.0609 14.7041 17.8971 14.4011 17.5946C14.0986 17.292 13.9352 16.8729 13.9539 16.4452C13.9573 16.3665 14.025 15.0823 14.7815 13.5576C13.8624 12.9879 12.9748 12.6581 12.2505 12.6581Z" fill="#FC804A"/>
<path d="M25.9821 9.27989C25.9382 9.10713 25.8093 8.96799 25.6374 8.91522L23.6919 8.3046L23.0813 6.35783C23.0276 6.18762 22.8885 6.05741 22.7157 6.01443C22.5421 5.97188 22.3583 6.02337 22.2315 6.14932L20.4575 7.92375C20.3375 8.04418 20.2843 8.21651 20.3175 8.38374L20.5366 9.49563C19.5009 9.9969 18.1929 10.9713 17.0818 12.082C15.101 14.0632 14.9793 16.3895 14.9751 16.4878C14.9691 16.6308 15.0231 16.7695 15.1244 16.8708C15.2261 16.9712 15.3644 17.0261 15.5078 17.0202C15.6061 17.0159 17.9324 16.8942 19.9137 14.9134C21.0234 13.8019 21.9983 12.493 22.4992 11.4586L23.6119 11.6773C23.7795 11.7105 23.951 11.6577 24.0715 11.5373L25.8459 9.76286C25.9723 9.63733 26.0246 9.45436 25.9821 9.27989Z" fill="#FC804A"/>
</g>
<defs>
<clipPath id="clip0_1185_1285">
<rect width="20" height="20" fill="white" transform="translate(6 6)"/>
</clipPath>
</defs>
</svg>
