<svg width="364" height="374" viewBox="0 0 364 374" fill="none" xmlns="http://www.w3.org/2000/svg">
<path d="M236.141 206.998L296.316 186.919L246.527 67.01L111.718 117.395L155.29 233.974L182.622 224.855" stroke="#FF986B" stroke-width="0.565299"/>
<path d="M119.958 188.784L180.825 165.699L154.374 99.4994L136.627 90.3075L93.6398 106.612L119.958 188.784Z" fill="#FFF0EA"/>
<path d="M130.376 129.668C125.625 122.512 111.853 111.143 111.02 116.587C109.978 123.392 117.215 139.053 121.815 138.403C126.415 137.753 111.447 116.553 106.768 120.189C103.025 123.097 108.069 129.053 111.059 131.668C108.784 127.486 105.67 121.605 95.4519 120.707" stroke="#011416" stroke-width="0.565299" stroke-linecap="round"/>
<path d="M312.781 210.776C311.415 200.329 314.988 178.727 320.131 183.102C326.561 188.572 332.465 208.898 327.698 211.992C322.93 215.085 319.71 183.415 326.949 183.024C332.741 182.712 332.872 192.284 332.213 197.108C330.954 191.406 329.102 183.454 337.809 174.412" stroke="#011416" stroke-width="0.565299" stroke-linecap="round"/>
<path d="M136.556 90.2598L154.332 99.4572L138.503 104.751L136.556 90.2598Z" fill="#011416"/>
<path d="M235.878 141.683L296.054 121.603L246.266 1.69448L111.457 52.0794L155.029 168.659L182.359 159.539" stroke="#011416" stroke-width="0.565299"/>
<path d="M261.458 97.0287L235.749 77.5273L224.719 104.303L191.536 78.3555L185.847 109.592L146.615 74.1611" stroke="#011416" stroke-width="0.565299" stroke-linecap="round"/>
<path d="M281.946 115.663L237.961 132.103L281.946 115.663ZM278.996 107.771L251.347 118.105L278.996 107.771Z" stroke="#011416" stroke-width="0.565299" stroke-linecap="round"/>
<path d="M111.465 52.0772L246.273 1.69226L255.294 25.8268L120.485 76.2117L111.465 52.0772Z" fill="#011416"/>
<path d="M242.477 23.8901C239.309 25.0743 235.709 23.274 234.436 19.8691C233.164 16.4642 234.7 12.744 237.869 11.5598C241.037 10.3756 244.637 12.1759 245.91 15.5808C247.182 18.9857 245.645 22.7059 242.477 23.8901Z" fill="white"/>
<path d="M227.559 29.4655C224.391 30.6497 220.791 28.8493 219.518 25.4445C218.246 22.0396 219.782 18.3193 222.951 17.1352C226.119 15.951 229.719 17.7513 230.992 21.1562C232.264 24.5611 230.728 28.2813 227.559 29.4655Z" fill="white"/>
<path d="M212.645 35.0401C209.477 36.2243 205.877 34.424 204.604 31.0191C203.332 27.6142 204.868 23.894 208.037 22.7098C211.205 21.5256 214.805 23.326 216.078 26.7308C217.35 30.1357 215.813 33.856 212.645 35.0401Z" fill="white"/>
<path d="M237.273 43.3255L231.369 39.7097L208.843 80.9097L211.826 82.737L237.273 43.3255Z" fill="#011416"/>
<path d="M248.683 56.4478L244.254 51.1261L209.68 82.8985L211.918 85.5879L248.683 56.4478Z" fill="#011416"/>
<path d="M244.11 48.7175L238.822 44.2487L210.251 81.6306L212.923 83.8891L244.11 48.7175Z" fill="#011416"/>
<path d="M226.739 99.8677C225.793 114.477 214.077 126.214 200.527 125.337C176.219 125.428 176.726 111.302 177.673 96.6924C178.618 82.0831 190.368 70.9509 203.917 71.8276C217.467 72.7045 227.684 85.2586 226.739 99.8677Z" fill="#B8A5A5"/>
<path d="M189.849 118.684L196.878 117.567C196.514 118.543 195.285 120.236 194.023 120.664C191.937 121.372 190.698 119.84 189.849 118.684Z" stroke="#011416" stroke-width="0.565299"/>
<path d="M186.275 114.049L188.194 106.316L191.903 113.02L186.275 114.049Z" fill="#F7E3D4"/>
<path d="M188.117 106.609L186.119 114.13L191.687 112.981" stroke="#011416" stroke-width="0.565299" stroke-linecap="round"/>
<path d="M182.571 108.319C183.558 108.383 184.41 107.618 184.476 106.609C184.541 105.601 183.794 104.731 182.807 104.668C181.821 104.604 180.968 105.369 180.902 106.378C180.838 107.385 181.584 108.255 182.571 108.319Z" fill="#011416"/>
<path d="M196.653 108.894C197.64 108.958 198.492 108.193 198.558 107.184C198.623 106.177 197.876 105.307 196.889 105.243C195.903 105.179 195.05 105.944 194.984 106.953C194.92 107.961 195.666 108.83 196.653 108.894Z" fill="#011416"/>
<path d="M196.504 99.2903C198.135 99.2208 200.239 99.8212 201.339 100.971" stroke="#011416" stroke-width="0.565299" stroke-linecap="round"/>
<path d="M183.405 100.086C181.772 100.076 179.686 100.753 178.621 101.942" stroke="#011416" stroke-width="0.565299" stroke-linecap="round"/>
<path d="M217.747 109.54C220.378 110.937 224.039 109.08 225.923 105.39C227.808 101.701 227.203 97.5767 224.572 96.1788C221.942 94.7819 218.281 96.6395 216.396 100.329C214.511 104.019 215.116 108.143 217.747 109.54Z" fill="#B8A5A5"/>
<path d="M217.752 103.122C218.584 101.629 220.888 99.3385 222.482 98.8324" stroke="#011416" stroke-width="0.565299" stroke-linecap="round"/>
<path d="M221.185 99.7583C221.806 100.438 222.587 102.027 222.583 102.952" stroke="#011416" stroke-width="0.565299" stroke-linecap="round"/>
<path d="M198.08 113.946C199.095 114.011 199.973 113.224 200.041 112.185C200.108 111.147 199.338 110.252 198.322 110.187C197.307 110.121 196.429 110.908 196.362 111.947C196.294 112.985 197.063 113.881 198.08 113.946Z" fill="#F7E3D4"/>
<path d="M182.708 114.355C183.724 114.421 184.602 113.633 184.669 112.594C184.737 111.556 183.967 110.662 182.951 110.596C181.936 110.53 181.057 111.318 180.99 112.357C180.923 113.395 181.692 114.29 182.708 114.355Z" fill="#F7E3D4"/>
<path d="M206.413 95.2401C192.485 99.9389 181.084 94.9713 179.233 88.6062C178.839 87.2486 183.644 78.2077 188.314 76.0822C200.765 66.6737 217.584 72.1202 224.101 81.4072C234.715 98.057 224.948 112.934 218.525 118.143C218.525 118.143 216.426 114.913 217.206 109.596C217.753 108.812 218.047 110.141 220.117 109.051C226.549 105.662 226.72 98.3922 223.474 97.1888C218.422 95.3147 215.605 101.059 215.302 105.733C213.925 105.407 213.464 102.187 213.992 100.31C214.936 96.9546 217.447 93.0161 216.813 91.6706C215.631 90.5412 213.158 92.9644 206.413 95.2401Z" fill="#011416"/>
<path d="M179.306 166.667C180.5 169.861 182.403 172.582 184.769 174.719C190.287 179.702 198.323 181.51 205.766 178.729C216.404 174.753 221.803 162.906 217.828 152.269C215.379 145.719 209.947 141.152 203.646 139.541C199.718 138.536 195.456 138.68 191.368 140.208C189.672 140.842 188.108 141.676 186.696 142.673C179.246 147.931 175.965 157.726 179.306 166.667Z" stroke="#011416" stroke-width="0.565299"/>
<path d="M237.808 155.07C244.563 152.545 248.042 145.097 245.695 138.321L225.762 131.394C221.121 134.872 218.648 141.673 220.749 147.294C221.519 149.353 222.745 151.107 224.27 152.484C227.828 155.698 233.009 156.863 237.808 155.07Z" stroke="#011416" stroke-width="0.565299" stroke-linecap="round"/>
<path d="M226.632 286.222C224.184 279.671 218.751 275.105 212.45 273.493C208.522 272.488 204.26 272.632 200.173 274.16C198.476 274.794 196.913 275.628 195.501 276.625C190.7 280.014 187.628 285.289 186.948 291.005C192.855 293.287 200.747 293.363 208.349 292.466C215.788 291.589 222.848 289.795 227.297 288.338C227.116 287.63 226.894 286.922 226.632 286.222Z" stroke="#011416" stroke-width="0.565299"/>
<path d="M142.46 234.027C144.392 239.198 147.473 243.603 151.303 247.062C160.235 255.13 173.245 258.058 185.295 253.554C202.516 247.118 211.258 227.94 204.822 210.719C200.858 200.113 192.061 192.722 181.862 190.113C175.504 188.487 168.602 188.719 161.987 191.192C159.239 192.218 156.709 193.569 154.422 195.184C142.363 203.695 137.05 219.553 142.46 234.027Z" stroke="#011416" stroke-width="0.565299"/>
<path d="M199.253 260.099C201.185 265.27 204.266 269.675 208.096 273.134C217.028 281.202 230.038 284.13 242.088 279.626C259.309 273.19 268.051 254.012 261.615 236.791C257.651 226.185 248.854 218.794 238.655 216.185C232.297 214.559 225.395 214.791 218.78 217.264C216.032 218.29 213.502 219.641 211.215 221.256C199.156 229.767 193.843 245.625 199.253 260.099Z" stroke="#011416" stroke-width="0.565299"/>
<path d="M185.916 213.31C182.975 210.815 180.641 207.605 179.222 203.808C175.248 193.177 179.711 181.32 189.324 174.785C191.149 173.545 193.159 172.497 195.331 171.685C200.564 169.729 205.981 169.428 210.938 170.516C218.886 172.26 225.648 177.577 228.56 185.368C231.011 191.925 230.253 198.948 227.056 204.902" stroke="#011416" stroke-width="0.565299"/>
<path d="M217.988 117.867C215.862 120.256 210.106 124.36 203.982 125.492C199.801 126.265 194.186 125.421 193.101 125.156" stroke="#011416" stroke-width="0.565299" stroke-linecap="round"/>
<path d="M159.567 135.74C164.423 133.925 182.968 134.626 191.632 135.203C191.362 136.667 190.396 140.647 188.698 144.854C186.575 150.113 184.32 194.229 186.072 206.657C187.824 219.085 192.533 238.081 194.584 247.944C196.225 255.834 195.819 281.761 195.41 293.739C177.617 295.81 154.345 286.8 144.933 282.037L140.645 230.177C136.576 237.128 125.538 251.786 113.939 254.813C99.4399 258.597 94.096 252.04 91.1967 248.658C88.2973 245.276 81.7342 237.477 75.1918 229.732C68.6494 221.988 59.5587 198.843 56.2172 189.903C52.8757 180.963 41.6096 148.127 40.9233 145.113C40.7192 144.216 75.6668 136.487 82.0056 134.538L89.778 165.095C98.3999 188.163 100.34 189.311 109.564 200.532C114.997 194.707 127.253 180.008 132.811 167.817C139.758 152.579 153.496 138.009 159.567 135.74Z" fill="#FF986B"/>
<path d="M40.1271 124.554C39.4026 132.544 46.6858 140.5 51.2578 142.319C62.8066 140.393 69.0562 138.434 80.6715 135.003C82.2253 132.022 85.045 123.451 83.8833 113.022C82.7205 102.594 73.9643 107.704 69.7307 111.563C68.146 112.557 63.3427 113.212 56.8146 107.882C50.2854 102.553 52.5208 95.458 54.4542 92.5768C55.5112 90.7199 56.3631 87.3481 51.3141 88.7155C41.501 91.644 39.6383 105.471 39.9331 112.019C37.6632 114.491 39.6684 120.018 40.9554 122.472L40.1271 124.554Z" fill="#B8A5A5"/>
<path d="M73.2353 99.7578C72.8703 103.409 71.2822 108.675 70.5334 110.852L83.0853 110.037C80.0893 88.5989 73.6918 95.1934 73.2353 99.7578Z" fill="#B8A5A5"/>
<path fill-rule="evenodd" clip-rule="evenodd" d="M232.709 133.059C241.128 135.615 259.533 141.047 265.798 142.329C273.63 143.93 304.332 166.168 312.799 179.734C321.266 193.3 341.091 218.912 344.81 222.805C348.53 226.698 358.62 243.431 357.124 255.752C356.029 264.771 350.298 266.793 345.94 268.333C344.344 268.897 342.932 269.394 342 270.148C338.521 272.957 334.74 275.125 331.429 276.363C328.401 277.495 311.752 280.613 302.456 282.355C301.588 282.517 300.783 282.668 300.06 282.804C293.29 284.076 286.386 287.39 283.78 288.888C281.75 286.88 276.785 282.659 273.162 281.85C270.904 281.346 263.413 283.47 255.516 285.709C247.566 287.962 239.204 290.333 235.357 290.256C234.242 279.813 231.811 257.78 231.005 253.2C228.087 236.617 225.649 201.803 229.405 171.844C229.475 171.284 229.626 170.22 229.83 168.79C231.081 159.991 234.306 137.332 232.709 133.059ZM266.996 214.15C267.046 221.574 267.266 237.019 267.755 239.403C268.243 241.786 269.391 250.511 269.903 254.575C274.979 251.945 285.805 246.468 288.504 245.611C291.202 244.753 296.795 241.653 299.253 240.209C292.951 233.948 279.434 220.873 275.79 218.662C272.146 216.452 268.409 214.732 266.996 214.15Z" fill="#FF986B"/>
<path d="M186.102 272.876C182.292 274.3 178.049 272.366 176.625 268.556C175.201 264.746 177.135 260.503 180.945 259.079C184.755 257.655 188.998 259.589 190.422 263.399C191.846 267.209 189.912 271.452 186.102 272.876Z" fill="#FFF0EA"/>
<path d="M61.4064 175.006C62.8305 178.816 60.8965 183.059 57.0863 184.483C56.211 184.81 55.3122 184.96 54.4308 184.951C53.831 183.346 51.164 175.537 49.9052 171.832C50.5 171.357 51.178 170.967 51.9296 170.686C55.7398 169.262 59.9824 171.196 61.4064 175.006Z" fill="#FFF0EA"/>
<path d="M102.325 219.025C98.5144 220.449 94.2718 218.515 92.8477 214.705C91.4237 210.895 93.3577 206.652 97.1679 205.228C100.978 203.804 105.221 205.738 106.645 209.548C108.069 213.358 106.135 217.601 102.325 219.025Z" fill="#FFF0EA"/>
<path d="M78.6449 155.669C74.8347 157.093 70.5921 155.159 69.168 151.349C67.7441 147.539 69.678 143.296 73.4882 141.872C77.2984 140.448 81.5411 142.382 82.965 146.192C84.3891 150.002 82.455 154.245 78.6449 155.669Z" fill="#FFF0EA"/>
<path d="M115.33 251.965C113.906 248.155 115.841 243.912 119.65 242.489C123.008 241.234 126.701 242.586 128.505 245.532C126.072 248.16 120.252 253.522 116.438 253.941C115.981 253.359 115.603 252.696 115.33 251.965Z" fill="#FFF0EA"/>
<path d="M174.778 225.407C170.967 226.831 166.725 224.897 165.301 221.087C163.877 217.276 165.811 213.034 169.621 211.61C173.431 210.186 177.674 212.12 179.098 215.93C180.522 219.74 178.588 223.983 174.778 225.407Z" fill="#FFF0EA"/>
<path d="M152.907 184.396C149.096 185.82 144.854 183.886 143.43 180.076C142.006 176.265 143.94 172.023 147.75 170.599C151.56 169.175 155.803 171.109 157.227 174.919C158.651 178.729 156.717 182.972 152.907 184.396Z" fill="#FFF0EA"/>
<path d="M271.004 208.563C267.194 209.986 262.951 208.053 261.527 204.242C260.103 200.432 262.038 196.189 265.848 194.766C269.658 193.342 273.9 195.276 275.324 199.086C276.748 202.896 274.814 207.139 271.004 208.563Z" fill="#FFF0EA"/>
<path d="M241.233 149.938C242.657 153.748 240.723 157.991 236.913 159.415C235.054 160.109 233.105 160.252 231.417 159.519C231.779 156.616 232.58 149.335 232.952 145.282C236.416 144.615 239.957 146.523 241.233 149.938Z" fill="#FFF0EA"/>
<path d="M236.078 221.986C237.117 225.918 234.771 229.948 230.839 230.988C230.021 231.204 229.198 231.274 228.4 231.214L227.804 216.739C231.444 216.227 235.114 218.342 236.078 221.986Z" fill="#FFF0EA"/>
<path d="M316.57 271.915C320.38 270.491 324.623 272.425 326.047 276.236C326.224 276.708 326.349 277.187 326.425 277.667L312.004 280.604C311.1 277.014 313.022 273.242 316.57 271.915Z" fill="#FFF0EA"/>
<path d="M328.243 234.469C324.433 235.893 320.19 233.959 318.766 230.149C317.342 226.339 319.276 222.096 323.086 220.672C326.896 219.248 331.139 221.182 332.563 224.992C333.987 228.803 332.052 233.045 328.243 234.469Z" fill="#FFF0EA"/>
<path d="M267.426 265.627C263.616 267.051 259.373 265.117 257.949 261.307C256.525 257.497 258.459 253.254 262.27 251.83C266.08 250.406 270.322 252.34 271.746 256.15C273.17 259.96 271.236 264.203 267.426 265.627Z" fill="#FFF0EA"/>
<path d="M246.285 288.498C242.475 289.923 238.233 287.988 236.809 284.178C235.385 280.368 237.319 276.126 241.129 274.701C244.939 273.277 249.182 275.211 250.606 279.022C252.03 282.832 250.096 287.074 246.285 288.498Z" fill="#FFF0EA"/>
<path d="M297.626 168.045C293.816 169.469 289.574 167.535 288.15 163.725C287.228 161.259 287.713 158.611 289.204 156.664C289.204 156.664 292.847 159.393 295.089 161.257C297.27 163.07 300.534 166.063 300.534 166.063C299.765 166.923 298.782 167.614 297.626 168.045Z" fill="#FFF0EA"/>
<path d="M142.391 152.034C143.024 155.479 141.119 158.987 137.723 160.257C137.327 160.405 136.929 160.516 136.527 160.593C138.14 158.04 141.108 153.823 142.391 152.034Z" fill="#FFF0EA"/>
<path d="M186.896 156.849C183.085 158.273 178.843 156.339 177.419 152.529C175.995 148.719 177.929 144.476 181.739 143.052C184.281 142.102 187.016 142.648 188.978 144.246C188.072 146.871 187.169 152.533 186.896 156.849Z" fill="#FFF0EA"/>
<path d="M152.414 280.687C156.224 279.263 160.467 281.197 161.891 285.007C162.379 286.313 162.473 287.67 162.231 288.947C158.498 287.708 150.567 284.934 148.712 283.739C149.54 282.384 150.811 281.286 152.414 280.687Z" fill="#FFF0EA"/>
<path d="M152.383 241.389C153.807 245.199 151.873 249.442 148.063 250.866C146.141 251.584 144.109 251.448 142.383 250.647L141.275 237.922C141.77 237.577 142.316 237.289 142.906 237.069C146.716 235.644 150.959 237.579 152.383 241.389Z" fill="#FFF0EA"/>
<path d="M303.233 239.699C304.514 238.716 308.896 237.497 316.177 240.48C323.458 243.463 329.954 244.835 332.291 245.149" stroke="#011416" stroke-width="0.376866" stroke-linecap="round"/>
<path d="M305.988 243.17C306.62 242.968 308.814 243.332 312.542 246.416C316.27 249.5 319.574 251.613 320.761 252.284" stroke="#011416" stroke-width="0.376866" stroke-linecap="round"/>
<path d="M262.932 262.903C262.988 262.241 264.169 260.356 268.45 258.1C272.729 255.846 275.951 253.607 277.027 252.771" stroke="#011416" stroke-width="0.376866" stroke-linecap="round"/>
<path d="M264.986 156.553C267.74 161.449 263.282 174.22 263.781 185.537C264.13 193.453 267.332 198.739 266.375 209.475" stroke="#011416" stroke-width="0.565299" stroke-linecap="round"/>
<path d="M160.328 143.319C153.2 148.461 151.241 172.828 150.898 184.393C150.555 195.959 135.684 215.615 141.369 224.562" stroke="#011416" stroke-width="0.565299" stroke-linecap="round"/>
<path d="M108.102 203.113C106.151 204.124 101.468 207.268 98.3394 211.758C94.4296 217.372 94.0442 220.925 93.0378 221.514" stroke="#011416" stroke-width="0.376866" stroke-linecap="round"/>
<path d="M263.153 268.168L282.172 287.414L269.13 294.93C259.447 299.367 238.534 308.756 232.359 310.812C226.184 312.868 225.025 310.261 225.217 308.701C224.077 309.127 221.372 309.924 219.679 309.702C216.237 309.378 216.317 306.765 216.787 305.499C216.163 305.733 213.828 306.668 211.527 304.383C209.208 302.08 213.048 299.307 215.409 298.278C214.388 297.675 212.871 296.031 214.986 294.285C217.63 292.102 231.518 285.338 231.167 284.4C230.712 281.702 233.906 279.33 235.559 278.482C241.862 274.532 252.655 271.212 263.153 268.168Z" fill="#B8A5A5"/>
<path d="M233.229 283.691C236.008 282.15 238.988 280.319 241.819 279.412" stroke="#011416" stroke-width="0.565299" stroke-linecap="round"/>
<path d="M193.444 127.418C193.715 129.037 193.979 132.955 192.884 135.679L193.444 127.418ZM220.332 119.759C221.341 122.569 223.726 128.705 225.203 130.77L220.332 119.759ZM215.86 122.94C216.808 126.15 218.936 132.785 219.862 133.647L215.86 122.94ZM210.672 125.886C211.698 129.192 213.736 136.238 213.679 137.97L210.672 125.886ZM205.373 127.866C205.988 130.068 207.159 134.797 206.937 136.087L205.373 127.866ZM199.525 129.046C199.936 131.659 200.613 137.243 200.038 138.666L199.525 129.046Z" stroke="#011416" stroke-width="0.565299" stroke-linecap="round"/>
<path d="M217.187 297.299C220.948 294.572 229.36 289.479 234.423 288.216" stroke="#011416" stroke-width="0.565299" stroke-linecap="round"/>
<path d="M219.351 303.094C222.793 300.605 230.489 295.953 235.118 294.796" stroke="#011416" stroke-width="0.565299" stroke-linecap="round"/>
<path d="M226.601 306.674C229.673 304.444 236.544 300.278 240.681 299.247" stroke="#011416" stroke-width="0.565299" stroke-linecap="round"/>
<path fill-rule="evenodd" clip-rule="evenodd" d="M83.0996 89.9445C92.9202 85.3566 97.7176 73.9121 93.8574 63.5838C89.7983 52.7235 77.7042 47.2098 66.8443 51.2687C56.203 55.2459 50.6943 66.9381 54.2947 77.6247C54.9285 81.4173 55.8819 88.4682 55.0981 92.84C54.0389 98.7401 51.4165 106.008 49.0571 111.805L60.4329 116.995C63.2682 111.415 67.0672 104.663 70.9909 99.8237C74.157 95.919 81.1838 91.1967 83.0996 89.9445Z" fill="#FF986B"/>
<path d="M14.5743 59.482L17.2553 62.4613L21.192 58.3466L19.7754 63.9771L24.5453 64.6126L20.169 66.8947L21.8416 70.5387L18.1383 69.0177L15.6442 73.9259L15.2142 68.7466L11.3002 69.563L13.5966 66.2865L11.1958 63.7741L14.5058 63.4889L14.5743 59.482Z" fill="#011416"/>
<path d="M54.2019 111.468C60.5222 99.8814 72.2761 75.617 68.7338 71.255C64.3058 65.8026 57.3037 74.8351 57.6912 79.9108C58.0787 84.9864 75.7708 93.2806 79.5877 90.03C83.4045 86.7795 85.011 74.4173 78.942 75.176C74.0867 75.7831 64.8522 100.36 58.3929 112.921" stroke="#011416" stroke-width="0.565299" stroke-linecap="round"/>
<path d="M98.0972 85.3768L108.952 90.6914L98.0972 85.3768ZM98.4516 26.2467L90.4706 41.243L98.4516 26.2467ZM60.9587 33.4668L64.7334 43.5662L60.9587 33.4668ZM104.015 64.8617L118.292 62.6707L104.015 64.8617ZM44.9227 61.9146L36.1282 57.9055L44.9227 61.9146Z" stroke="#011416" stroke-width="0.565299" stroke-linecap="round"/>
<path d="M47.8222 111.085L61.904 117.44L57.2131 127.834L43.1313 121.478L47.8222 111.085Z" fill="#011416"/>
<path d="M312.904 132.949C313.551 134.679 315.203 137.91 316.933 137.263C318.664 136.616 319.818 132.337 319.171 130.606C318.524 128.875 316.597 127.997 314.866 128.644C313.136 129.291 312.257 131.218 312.904 132.949Z" fill="#011416"/>
<path d="M304.17 136.213C304.816 137.944 306.468 141.175 308.199 140.528C309.93 139.881 311.084 135.602 310.437 133.871C309.79 132.14 307.863 131.262 306.132 131.908C304.401 132.555 303.523 134.483 304.17 136.213Z" fill="#011416"/>
<path d="M295.447 139.473C296.094 141.204 297.746 144.435 299.476 143.788C301.207 143.141 302.361 138.862 301.714 137.131C301.067 135.4 299.14 134.522 297.409 135.169C295.679 135.815 294.8 137.743 295.447 139.473Z" fill="#011416"/>
<path d="M49.6821 125.799C32.1066 137.002 3.28412 165.872 28.5988 191.733C60.2421 224.061 86.589 206.54 85.7292 191.955C84.8695 177.369 30.5541 169.366 33.6436 225.762C36.7332 282.158 111.791 296.184 124.213 281.289C136.634 266.394 115.331 259.039 99.3305 271.09C83.3301 283.142 80.3622 338.813 120.631 346.594C165.185 355.203 170.728 334.223 167.605 327.213C164.482 320.204 148.222 315.4 140.714 325.439C133.207 335.478 167.118 356.202 215.138 319.763" stroke="#011416" stroke-width="0.565299" stroke-linecap="round"/>
</svg>
