<svg width="49" height="48" viewBox="0 0 49 48" fill="none" xmlns="http://www.w3.org/2000/svg">
<path opacity="0.4" d="M26.4526 6.22723L30.9056 15.1758C31.2336 15.8241 31.8598 16.2743 32.5819 16.3744L42.5841 17.8311C43.1682 17.9132 43.6983 18.2213 44.0564 18.6916C44.4105 19.1558 44.5625 19.7441 44.4765 20.3224C44.4065 20.8026 44.1804 21.2469 43.8343 21.587L36.5868 28.6126C36.0567 29.1029 35.8166 29.8292 35.9446 30.5396L37.729 40.4166C37.9191 41.6092 37.1289 42.7338 35.9446 42.9599C35.4565 43.0379 34.9564 42.9559 34.5163 42.7318L25.5944 38.0834C24.9323 37.7493 24.1501 37.7493 23.488 38.0834L14.5661 42.7318C13.4698 43.3141 12.1115 42.9179 11.5014 41.8373C11.2753 41.4071 11.1953 40.9169 11.2693 40.4386L13.0537 30.5596C13.1818 29.8512 12.9397 29.1209 12.4116 28.6306L5.16403 21.609C4.30185 20.7766 4.27584 19.4059 5.10602 18.5435C5.12402 18.5255 5.14403 18.5055 5.16403 18.4855C5.50811 18.1353 5.9602 17.9132 6.44831 17.8551L16.4505 16.3964C17.1706 16.2943 17.7967 15.8481 18.1268 15.1958L22.4197 6.22723C22.8018 5.45884 23.594 4.98059 24.4542 5.0006H24.7222C25.4684 5.09065 26.1185 5.55289 26.4526 6.22723Z" fill="#FC804A"/>
<path d="M24.484 37.8342C24.0966 37.8462 23.7192 37.9503 23.3797 38.1365L14.5014 42.7743C13.4151 43.2927 12.1151 42.8904 11.5061 41.8515C11.2804 41.4272 11.1985 40.9408 11.2744 40.4644L13.0477 30.6063C13.1675 29.8897 12.9279 29.1611 12.4067 28.6567L5.15587 21.637C4.2952 20.7943 4.27923 19.4111 5.12193 18.5484C5.13391 18.5364 5.14389 18.5264 5.15587 18.5164C5.49934 18.1761 5.94266 17.9519 6.41992 17.8819L16.4305 16.4087C17.1553 16.3166 17.7844 15.8642 18.1039 15.2077L22.4552 6.12624C22.8685 5.39364 23.6613 4.95728 24.5 5.00332C24.484 5.5978 24.484 37.4299 24.484 37.8342Z" fill="#FC804A"/>
</svg>
