<svg width="49" height="48" viewBox="0 0 49 48" fill="none" xmlns="http://www.w3.org/2000/svg">
<path opacity="0.4" d="M28.001 19.406V15.3663C27.2079 15.3663 26.5503 14.7275 26.5503 13.9571V9.14709C26.5503 8.50638 26.028 8.00095 25.3704 8.00095H12.0822C7.90425 8.00095 4.5 11.306 4.5 15.3663V20.2309C4.5 20.6085 4.65474 20.9655 4.92553 21.2286C5.19632 21.4898 5.56383 21.6401 5.95068 21.6401C7.4207 21.6401 8.54255 22.6547 8.54255 23.9887C8.54255 25.381 7.40135 26.4896 5.97002 26.5065C5.17698 26.5065 4.5 27.0514 4.5 27.8405V32.6525C4.5 36.7109 7.90426 39.9991 12.0629 39.9991H25.3704C26.028 39.9991 26.5503 39.4899 26.5503 38.8529V34.7926C26.5503 34.0053 27.2079 33.3834 28.001 33.3834V29.7401C27.2079 29.7401 26.5503 29.0994 26.5503 28.3309V20.8152C26.5503 20.0449 27.2079 19.406 28.001 19.406Z" fill="#FC804A"/>
<path d="M40.4565 23.9897C40.4565 25.3801 41.617 26.4886 43.029 26.5074C43.8221 26.5074 44.499 27.0523 44.499 27.8227V32.6515C44.499 36.7119 41.1141 40 36.9362 40H30.6306C29.9923 40 29.4507 39.4908 29.4507 38.852V34.7935C29.4507 34.0043 28.8124 33.3843 28 33.3843V29.7411C28.8124 29.7411 29.4507 29.1003 29.4507 28.3319V20.8162C29.4507 20.0439 28.8124 19.407 28 19.407V15.3654C28.8124 15.3654 29.4507 14.7266 29.4507 13.9562V9.14802C29.4507 8.50731 29.9923 8 30.6306 8H36.9362C41.1141 8 44.499 11.2881 44.499 15.3466V20.0815C44.499 20.4573 44.3443 20.8162 44.0735 21.0773C43.8027 21.3404 43.4352 21.4907 43.0484 21.4907C41.617 21.4907 40.4565 22.6199 40.4565 23.9897Z" fill="#FC804A"/>
</svg>
