<svg width="32" height="32" viewBox="0 0 32 32" fill="none" xmlns="http://www.w3.org/2000/svg">
<circle cx="16" cy="16" r="16" fill="#FFF0EA"/>
<path d="M14.3327 13.5H11.8327C11.6117 13.5 11.3997 13.5878 11.2434 13.744C11.0872 13.9003 10.9994 14.1123 10.9994 14.3333C10.9994 14.5543 11.0872 14.7663 11.2434 14.9225C11.3997 15.0788 11.6117 15.1666 11.8327 15.1666H12.2494V17.6666C12.2494 17.8876 12.3372 18.0996 12.4934 18.2559C12.6497 18.4122 12.8617 18.5 13.0827 18.5C13.3037 18.5 13.5157 18.4122 13.6719 18.2559C13.8282 18.0996 13.916 17.8876 13.916 17.6666V15.1666H14.3327C14.5537 15.1666 14.7657 15.0788 14.9219 14.9225C15.0782 14.7663 15.166 14.5543 15.166 14.3333C15.166 14.1123 15.0782 13.9003 14.9219 13.744C14.7657 13.5878 14.5537 13.5 14.3327 13.5ZM20.4827 13.5666C20.3309 13.5028 20.1637 13.4854 20.002 13.5165C19.8404 13.5477 19.6915 13.626 19.5744 13.7416L18.4994 14.825L17.4244 13.7416C17.3072 13.626 17.1584 13.5477 16.9967 13.5165C16.835 13.4854 16.6678 13.5028 16.516 13.5666C16.3638 13.6291 16.2336 13.7353 16.1416 13.8717C16.0497 14.0082 16.0002 14.1688 15.9994 14.3333V17.6666C15.9994 17.8876 16.0872 18.0996 16.2434 18.2559C16.3997 18.4122 16.6117 18.5 16.8327 18.5C17.0537 18.5 17.2657 18.4122 17.4219 18.2559C17.5782 18.0996 17.666 17.8876 17.666 17.6666V16.3416L17.9077 16.5916C17.9852 16.6697 18.0773 16.7317 18.1789 16.774C18.2804 16.8163 18.3893 16.8381 18.4994 16.8381C18.6094 16.8381 18.7183 16.8163 18.8198 16.774C18.9214 16.7317 19.0135 16.6697 19.091 16.5916L19.3327 16.3416V17.6666C19.3327 17.8876 19.4205 18.0996 19.5768 18.2559C19.733 18.4122 19.945 18.5 20.166 18.5C20.387 18.5 20.599 18.4122 20.7553 18.2559C20.9116 18.0996 20.9994 17.8876 20.9994 17.6666V14.3333C20.9985 14.1688 20.949 14.0082 20.8571 13.8717C20.7651 13.7353 20.6349 13.6291 20.4827 13.5666ZM15.9994 7.66663C14.3512 7.66663 12.74 8.15537 11.3696 9.07105C9.99919 9.98672 8.93109 11.2882 8.30036 12.8109C7.66963 14.3336 7.5046 16.0092 7.82614 17.6257C8.14769 19.2422 8.94136 20.7271 10.1068 21.8925C11.2722 23.058 12.7571 23.8516 14.3736 24.1732C15.9901 24.4947 17.6657 24.3297 19.1884 23.699C20.7111 23.0682 22.0126 22.0001 22.9283 20.6297C23.8439 19.2593 24.3327 17.6481 24.3327 16C24.3327 14.9056 24.1171 13.822 23.6983 12.8109C23.2796 11.7999 22.6657 10.8812 21.8919 10.1074C21.1181 9.33358 20.1994 8.71975 19.1884 8.30096C18.1773 7.88217 17.0937 7.66663 15.9994 7.66663ZM15.9994 22.6666C14.6808 22.6666 13.3919 22.2756 12.2956 21.5431C11.1992 20.8105 10.3447 19.7694 9.84016 18.5512C9.33557 17.333 9.20355 15.9926 9.46078 14.6994C9.71802 13.4062 10.353 12.2183 11.2853 11.2859C12.2177 10.3536 13.4055 9.71863 14.6988 9.46139C15.992 9.20416 17.3324 9.33618 18.5506 9.84076C19.7687 10.3453 20.8099 11.1998 21.5425 12.2962C22.275 13.3925 22.666 14.6814 22.666 16C22.666 17.7681 21.9636 19.4638 20.7134 20.714C19.4632 21.9642 17.7675 22.6666 15.9994 22.6666Z" fill="#FC804A"/>
</svg>
