<svg width="32" height="32" viewBox="0 0 32 32" fill="none" xmlns="http://www.w3.org/2000/svg">
<path d="M26.6026 10.5603C26.6189 10.7954 26.6189 11.0305 26.6189 11.2677C26.6189 18.4969 21.1155 26.8344 11.0522 26.8344V26.8301C8.07952 26.8344 5.16856 25.9829 2.66602 24.3773C3.09827 24.4293 3.5327 24.4553 3.9682 24.4564C6.43174 24.4586 8.82486 23.632 10.763 22.1099C8.42186 22.0655 6.36891 20.539 5.65173 18.3106C6.47183 18.4688 7.31684 18.4363 8.12177 18.2163C5.56939 17.7007 3.73312 15.4581 3.73312 12.8538C3.73312 12.8299 3.73312 12.8072 3.73312 12.7844C4.49363 13.208 5.34514 13.4431 6.21615 13.4691C3.8122 11.8625 3.07119 8.66444 4.52288 6.16407C7.30059 9.58204 11.3989 11.6599 15.7984 11.8798C15.3575 9.97962 15.9598 7.98843 17.3812 6.65266C19.5847 4.58129 23.0503 4.68746 25.1217 6.88991C26.347 6.64832 27.5213 6.19873 28.596 5.56172C28.1876 6.82816 27.3328 7.90393 26.191 8.58752C27.2754 8.45968 28.3349 8.16935 29.3327 7.72626C28.5982 8.82694 27.673 9.78571 26.6026 10.5603Z" fill="white"/>
</svg>
